<?xml version="1.0" standalone="no"?>
<!DOCTYPE svg PUBLIC "-//W3C//DTD SVG 1.1//EN" "http://www.w3.org/Graphics/SVG/1.1/DTD/svg11.dtd" >
<svg>
<metadata>
Created by FontForge 20090914 at Fri Dec  5 10:14:21 2014
 By www-data
Font data copyright Google 2013
</metadata>
<defs>
<font id="RobotoSlab-Bold" horiz-adv-x="1471" >
  <font-face 
    font-family="Roboto Slab"
    font-weight="700"
    font-stretch="normal"
    units-per-em="2048"
    panose-1="0 0 0 0 0 0 0 0 0 0"
    ascent="1638"
    descent="-410"
    x-height="1082"
    cap-height="1456"
    bbox="-937.001 -614.003 2631 2146"
    underline-thickness="100"
    underline-position="-100"
    unicode-range="U+0002-U+FFFD"
  />
<missing-glyph horiz-adv-x="502" 
 />
    <glyph glyph-name="fi" unicode="fi" horiz-adv-x="1337" 
d="M34 877v204.999h161v74c0 136 41.5 240.833 124.5 314.5s199.833 110.5 350.5 110.5c52 0 103.333 -5.16699 154 -15.5s109.334 -25.166 176.001 -44.499l-42 -230c-48.667 14.667 -92.834 26 -132.501 34s-85.167 12 -136.5 12c-67.333 0 -117.833 -15.333 -151.5 -46
s-50.5 -75.667 -50.5 -135v-74h656v-877l155 -30v-175h-588v175l141 30v672h-364v-672l141 -30v-175h-589v175l156 30v672h-161z" />
    <glyph glyph-name="uniFB02" unicode="fl" horiz-adv-x="1421" 
d="M940 1324c-36.667 8 -73 14.332 -109 18.999s-75 7 -117 7c-75.333 0 -132 -18.667 -170 -56s-57 -92.333 -57 -165v-47h240v-205h-240v-672l141 -30v-175h-589v175l156 30v672h-136v205h136v47c0 144.667 43.667 256.167 131 334.5s210.333 117.5 369 117.5
c57.333 0 114 -5.16699 170 -15.5s121 -25.166 195 -44.499h172v-1316l141 -30v-175h-574v175l141 30v1119v0z" />
    <glyph glyph-name=".notdef" horiz-adv-x="502" 
 />
    <glyph glyph-name="uni0009" horiz-adv-x="0" 
 />
    <glyph glyph-name="uni0009" horiz-adv-x="0" 
 />
    <glyph glyph-name="uni0002" horiz-adv-x="225" 
 />
    <glyph glyph-name="nonmarkingreturn" unicode="&#xd;" horiz-adv-x="502" 
 />
    <glyph glyph-name="space" unicode=" " horiz-adv-x="502" 
 />
    <glyph glyph-name="exclam" unicode="!" horiz-adv-x="507" 
d="M411 502h-292v954h292v-954zM411 0h-292v256h292v-256z" />
    <glyph glyph-name="quotedbl" unicode="&#x22;" horiz-adv-x="782" 
d="M346 1288l-77 -249h-129v521h206v-272zM672 1288l-77 -249h-128v521h205v-272z" />
    <glyph glyph-name="numbersign" unicode="#" horiz-adv-x="1198" 
d="M642 410h-192l-72 -410h-184l72 410h-227v169h256l51 290h-231v171h261l74 416h183l-73 -416h192l73 416h184l-74 -416h220v-171h-250l-51 -290h226v-169h-255l-72 -410h-183zM479 579h192l51 290h-192z" />
    <glyph glyph-name="dollar" unicode="$" horiz-adv-x="1107" 
d="M749 383c0 54 -15.501 97.9951 -46.501 131.995s-84.167 65.667 -159.5 95c-148 54 -257.667 114.167 -329 180.5s-107 159.833 -107 280.5c0 112 35.833 203.833 107.5 275.5s168.167 113.834 289.5 126.501v215h159v-218c116.667 -17.333 208.5 -66.166 275.5 -146.499
s99.833 -184.833 98.5 -313.5l-3 -5h-284c0 78.667 -16.333 139.334 -49 182.001s-76.667 64 -132 64c-57.333 0 -100.166 -16.5 -128.499 -49.5s-42.5 -76.833 -42.5 -131.5c0 -52 14.833 -94.167 44.5 -126.5s84.167 -64.166 163.5 -95.499
c147.333 -58 256.666 -120 327.999 -186s107 -158.333 107 -277c0 -115.333 -35.833 -207.833 -107.5 -277.5s-168.5 -110.834 -290.5 -123.501v-198h-159v197c-124.667 12.667 -227.667 56.834 -309 132.501s-120.666 186.834 -117.999 333.501l2 5h284
c0 -89.333 20.667 -153.333 62 -192s93.333 -58 156 -58c60.667 0 107.167 16.167 139.5 48.5s48.5 75.833 48.5 130.5z" />
    <glyph glyph-name="percent" unicode="%" horiz-adv-x="1429" 
d="M49 1176c0 86 27.832 157.667 83.499 215s133.167 86 232.5 86c100.667 0 178.667 -28.5 234 -85.5s83 -128.833 83 -215.5v-77c0 -86 -27.667 -157.333 -83 -214s-132.666 -85 -231.999 -85c-100 0 -178 28.333 -234 85s-84 128 -84 214v77zM242.999 1099
c0 -38.667 10.667 -71.167 32 -97.5s52 -39.5 92 -39.5c38.667 0 68.667 13.167 90 39.5s32 58.833 32 97.5v77c0 38.667 -10.833 71.5 -32.5 98.5s-52.167 40.5 -91.5 40.5s-69.5 -13.5 -90.5 -40.5s-31.5 -59.833 -31.5 -98.5v-77zM744.999 357
c0 85.333 27.999 156.668 83.999 214.001s133.667 86 233 86c100 0 177.833 -28.5 233.5 -85.5s83.5 -128.5 83.5 -214.5v-77c0 -86.667 -27.667 -158.334 -83 -215.001s-132.666 -85 -231.999 -85c-100 0 -178.167 28.5 -234.5 85.5s-84.5 128.5 -84.5 214.5v77z
M938.998 280.002c0 -38 11.499 -70.5 34.499 -97.5s53.167 -40.5 90.5 -40.5c43.333 0 74.333 12.5 93 37.5s28 58.5 28 100.5v77c0 38 -10.667 70.5 -32 97.5s-51.666 40.5 -90.999 40.5c-40 0 -70.5 -13.5 -91.5 -40.5s-31.5 -59.5 -31.5 -97.5v-77zM449.997 109.002
l-142 75l711 1138l142 -75z" />
    <glyph glyph-name="ampersand" unicode="&#x26;" horiz-adv-x="1278" 
d="M45 392c0 78.667 21.668 146.499 65.001 203.499s109.333 116.5 198 178.5c-45.333 61.333 -79.166 117.333 -101.499 168s-33.5 102.334 -33.5 155.001c0 115.333 36 207.5 108 276.5s168.333 103.5 289 103.5c106 0 192.167 -32.833 258.5 -98.5
s99.5 -145.167 99.5 -238.5c0 -65.333 -16.333 -125 -49 -179s-77.334 -101.333 -134.001 -142l-93 -66l276 -322c24 40 42.667 83.333 56 130s20 96 20 148h218c0 -92 -11.333 -176.667 -34 -254s-57.334 -146 -104.001 -206l208 -244l-2 -5h-324l-77 89
c-56.667 -36.667 -115 -64.167 -175 -82.5s-124.333 -27.5 -193 -27.5c-145.333 0 -261 38.167 -347 114.5s-129 175.833 -129 298.5zM536.001 202.999c35.333 0 70.667 4.49902 106 13.499s69.333 22.5 102 40.5l-300 348l-19 -13c-34 -32 -57.167 -63.167 -69.5 -93.5
s-18.5 -60.833 -18.5 -91.5c0 -59.333 18.333 -108.166 55 -146.499s84.667 -57.5 144 -57.5zM434.002 1100c0 -28.667 7.16504 -58.167 21.498 -88.5s35.833 -63.833 64.5 -100.5l86 56c37.333 24 62.5 48.667 75.5 74s19.5 53 19.5 83c0 33.333 -12.167 63 -36.5 89
s-56.166 39 -95.499 39c-43.333 0 -76.666 -14.5 -99.999 -43.5s-35 -65.167 -35 -108.5z" />
    <glyph glyph-name="quotesingle" unicode="'" horiz-adv-x="449" 
d="M338 1291l-70 -283h-129v552h199v-269z" />
    <glyph glyph-name="parenleft" unicode="(" horiz-adv-x="685" 
d="M89 592c0 261.333 50.667 483.165 152 665.498s216 300.5 344 354.5h6l53 -146c-87.333 -65.333 -160.666 -170.666 -219.999 -315.999s-89 -330.666 -89 -555.999v-26c0 -226 29.667 -411.5 89 -556.5s132.666 -251.167 219.999 -318.5l-53 -143h-6
c-128 54 -242.667 172 -344 354s-152 404 -152 666v22z" />
    <glyph glyph-name="parenright" unicode=")" horiz-adv-x="712" 
d="M631 570c0 -255.333 -52.666 -475.833 -157.999 -661.5s-222.666 -305.167 -351.999 -358.5h-6l-54 143c86 65.333 159 171 219 317s90 332 90 558v26c0 224 -30.333 409.5 -91 556.5s-133.334 253.5 -218.001 319.5l54 142h6c129.333 -53.333 246.666 -173 351.999 -359
s158 -406.333 158 -661v-22z" />
    <glyph glyph-name="asterisk" unicode="*" horiz-adv-x="914" 
d="M336 966l-302 89l57 177l297 -123l-18 347h188l-20 -353l291 120l56 -180l-306 -89l200 -265l-151 -110l-175 290l-173 -281l-152 106z" />
    <glyph glyph-name="plus" unicode="+" horiz-adv-x="1098" 
d="M688 812h359v-252h-359v-414h-277v414h-362v252h362v394h277v-394z" />
    <glyph glyph-name="comma" unicode="," horiz-adv-x="503" 
d="M400 39c0 -68 -19.168 -140.001 -57.501 -216.001s-85.166 -138.333 -140.499 -187l-144 78c26 46.667 46 94.834 60 144.501s21 105.167 21 166.5v218h262z" />
    <glyph glyph-name="hyphen" unicode="-" horiz-adv-x="815" 
d="M695 510h-564v225h564v-225z" />
    <glyph glyph-name="period" unicode="." horiz-adv-x="522" 
d="M420 0h-291v256h291v-256z" />
    <glyph glyph-name="slash" unicode="/" horiz-adv-x="748" 
d="M193 -125h-216l534 1581h216z" />
    <glyph glyph-name="zero" unicode="0" horiz-adv-x="1170" 
d="M1082 567c0 -192.667 -44.166 -338.834 -132.499 -438.501s-207.833 -149.5 -358.5 -149.5c-152 0 -272.333 49.833 -361 149.5s-133 245.834 -133 438.501v321c0 192 44.167 338.167 132.5 438.5s208.166 150.5 359.499 150.5c150.667 0 270.5 -50.167 359.5 -150.5
s133.5 -246.5 133.5 -438.5v-321zM791.001 918c0 115.333 -17.333 199.833 -52 253.5s-84.667 80.5 -150 80.5c-66 0 -116 -26.667 -150 -80s-51 -138 -51 -254v-379c0 -117.333 17.167 -202.666 51.5 -255.999s84.833 -80 151.5 -80c65.333 0 115 26.667 149 80
s51 138.666 51 255.999v379z" />
    <glyph glyph-name="one" unicode="1" horiz-adv-x="905" 
d="M65 175l246 30v986h-249v167l540 98v-1251l246 -30v-175h-783v175z" />
    <glyph glyph-name="two" unicode="2" horiz-adv-x="1132" 
d="M73 0l-0.000976562 191l471 505c68 78 116.333 143.833 145 197.5s43 103.5 43 149.5c0 61.333 -16.5 111.5 -49.5 150.5s-79.833 58.5 -140.5 58.5c-67.333 0 -118.5 -22.833 -153.5 -68.5s-52.5 -106.5 -52.5 -182.5h-284l-2 6
c-3.33301 131.333 39.834 242.5 129.501 333.5s210.5 136.5 362.5 136.5c150 0 268 -39 354 -117s129 -182 129 -312c0 -88 -24.167 -169.333 -72.5 -244s-128.5 -172 -240.5 -292l-259 -283l2 -5h378l12 144h222v-368h-994z" />
    <glyph glyph-name="three" unicode="3" horiz-adv-x="1112" 
d="M381 852l164 -0.00292969c69.333 0 120.666 18.167 153.999 54.5s50 86.833 50 151.5c0 58.667 -16.667 105.667 -50 141s-81.666 53 -144.999 53c-54.667 0 -100.667 -16 -138 -48s-56 -74 -56 -126h-283l-2 6c-4 114 39.667 208 131 282s204.666 111 339.999 111
c150.667 0 270.834 -36 360.501 -108s134.5 -174.667 134.5 -308c0 -63.333 -20 -123.5 -60 -180.5s-95 -101.5 -165 -133.5c80.667 -28.667 142.167 -72.667 184.5 -132s63.5 -128.333 63.5 -207c0 -133.333 -48.5 -238.166 -145.5 -314.499s-221.167 -114.5 -372.5 -114.5
c-135.333 0 -251.5 35.833 -348.5 107.5s-143.833 172.834 -140.5 303.501l2 6h283c0 -56 20 -102.167 60 -138.5s90.667 -54.5 152 -54.5c67.333 0 120.5 18.667 159.5 56s58.5 88 58.5 152c0 76.667 -19.167 132.834 -57.5 168.501s-94.833 53.5 -169.5 53.5h-164v219z
" />
    <glyph glyph-name="four" unicode="4" horiz-adv-x="1154" 
d="M935 542h165v-194h-165v-143l155 -30v-175h-602v175l156 30v143h-594l-14 143l605 965h294v-914zM309 542h335v525l-6 2l-24 -42z" />
    <glyph glyph-name="five" unicode="5" horiz-adv-x="1092" 
d="M834 1124l-25.999 98.001h-392l-41 -336c27.333 20 60 36.5 98 49.5s80 19.833 126 20.5c140 2 248.333 -40.333 325 -127s115 -207.334 115 -362.001c0 -140 -42.167 -256.333 -126.5 -349s-205.833 -139 -364.5 -139c-133.333 0 -247.666 36.5 -342.999 109.5
s-141.333 173.5 -138 301.5l2 5l280 14c0 -64.667 18.333 -115.167 55 -151.5s84.667 -54.5 144 -54.5c68 0 118.333 24.333 151 73s49 111.667 49 189c0 84 -17.333 151.333 -52 202s-86.334 76 -155.001 76c-55.333 0 -97.833 -10.333 -127.5 -31
s-50.834 -48.667 -63.501 -84l-258 17l84 811h838v-332h-180z" />
    <glyph glyph-name="six" unicode="6" horiz-adv-x="1144" 
d="M675 1477c54.667 0 105.167 -5.16992 151.5 -15.5029s92.833 -25.5 139.5 -45.5l-51 -213c-42 14.667 -80.667 25.834 -116 33.501s-76 11.5 -122 11.5c-86.667 0 -156.167 -31.667 -208.5 -95s-78.833 -156.666 -79.5 -279.999l3 -5c32.667 34 74.167 60.667 124.5 80
s106.5 29 168.5 29c130 0 232 -46.167 306 -138.5s111 -210.166 111 -353.499c0 -146.667 -45.667 -267.667 -137 -363s-209.333 -143 -354 -143c-153.333 0 -278.333 52.167 -375 156.5s-145 248.833 -145 433.5v256c0 206 54.5 366.167 163.5 480.5
s249.167 171.5 420.5 171.5zM608 755.997c-54 0 -100 -8.66699 -138 -26s-67.333 -41 -88 -71v-97c0 -115.333 20.833 -204 62.5 -266s97.167 -93 166.5 -93c60 0 108.167 27.5 144.5 82.5s54.5 121.5 54.5 199.5c0 80.667 -18.333 146 -55 196s-85.667 75 -147 75z" />
    <glyph glyph-name="seven" unicode="7" horiz-adv-x="1107" 
d="M1078 1231c-156 -182.667 -262.501 -353 -319.501 -511s-97.833 -348.667 -122.5 -572l-14 -148h-292l14 148c22.667 214 71.334 410.5 146.001 589.5s177 343.5 307 493.5h-513l-11 -144h-224v369h1029v-225z" />
    <glyph glyph-name="eight" unicode="8" horiz-adv-x="1115" 
d="M1026 1070c0 -72.667 -19.334 -136.999 -58.001 -192.999s-91.667 -99.667 -159 -131c77.333 -32.667 138.333 -79.334 183 -140.001s67 -130 67 -208c0 -134.667 -45.667 -238.167 -137 -310.5s-210.666 -108.5 -357.999 -108.5c-148 0 -267.833 36.167 -359.5 108.5
s-137.5 175.833 -137.5 310.5c0 78.667 22.167 148.167 66.5 208.5s105.166 106.833 182.499 139.5c-68 31.333 -121 75 -159 131s-57 120.333 -57 193c0 129.333 42.333 229.5 127 300.5s196.334 106.5 335.001 106.5s250.667 -35.5 336 -106.5s128 -171.167 128 -300.5z
M767.999 418.001c0 65.333 -19.168 117.666 -57.501 156.999s-87.833 59 -148.5 59s-109.667 -19.667 -147 -59s-56 -91.666 -56 -156.999c0 -66.667 18.667 -119.167 56 -157.5s87 -57.5 149 -57.5c60.667 0 109.834 19.333 147.501 58s56.5 91 56.5 157zM733.998 1057
c0 58.667 -15.5 105.833 -46.5 141.5s-72.833 53.5 -125.5 53.5c-53.333 0 -94.833 -17.5 -124.5 -52.5s-44.5 -82.5 -44.5 -142.5c0 -60.667 15 -108.834 45 -144.501s72 -53.5 126 -53.5c52.667 0 94.167 17.833 124.5 53.5s45.5 83.834 45.5 144.501z" />
    <glyph glyph-name="nine" unicode="9" horiz-adv-x="1141" 
d="M501 203c78 0 141.001 29.834 189.001 89.501s72 149.167 72 268.5v22c-32.667 -42 -71.667 -73.833 -117 -95.5s-94 -32.5 -146 -32.5c-136 0 -242.667 44.5 -320 133.5s-116 211.833 -116 368.5c0 147.333 46.167 270.833 138.5 370.5s209.166 149.5 350.499 149.5
c148.667 0 269.334 -51.167 362.001 -153.5s139 -246.166 139 -431.499v-316c0 -188.667 -51.5 -335.334 -154.5 -440.001s-235.5 -157 -397.5 -157c-50.667 0 -102.834 5.16699 -156.501 15.5s-103.167 25.5 -148.5 45.5l33 211c44.667 -16.667 88 -28.834 130 -36.501
s89.333 -11.5 142 -11.5zM548.001 669.001c48.667 0 91.168 9.16699 127.501 27.5s65.166 42.833 86.499 73.5v156c0 106.667 -18.667 187.667 -56 243s-88 83 -152 83c-58.667 0 -106.5 -28.833 -143.5 -86.5s-55.5 -127.167 -55.5 -208.5c0 -88 16.5 -158 49.5 -210
s80.833 -78 143.5 -78z" />
    <glyph glyph-name="colon" unicode=":" horiz-adv-x="455" 
d="M382 0h-291v256h291v-256zM382 825h-291v256h291v-256z" />
    <glyph glyph-name="semicolon" unicode=";" horiz-adv-x="453" 
d="M381 825h-291v256h291v-256zM370 39c0 -68 -19.168 -140.001 -57.501 -216.001s-85.166 -138.333 -140.499 -187l-144 78c26 46.667 46 94.834 60 144.501s21 105.167 21 166.5v218h262z" />
    <glyph glyph-name="less" unicode="&#x3c;" horiz-adv-x="1012" 
d="M343 550v-6l576 -203v-272l-861 367v227l861 366v-272z" />
    <glyph glyph-name="equal" unicode="=" horiz-adv-x="1123" 
d="M1019 763h-896v229h896v-229zM1019 332h-896v229h896v-229z" />
    <glyph glyph-name="greater" unicode="&#x3e;" horiz-adv-x="1031" 
d="M689 539v6l-585 206v269l871 -366v-227l-871 -367v270z" />
    <glyph glyph-name="question" unicode="?" horiz-adv-x="985" 
d="M326 414c0.666992 93.333 14.502 161.666 41.502 204.999s80.833 96 161.5 158c47.333 38.667 85.166 80.334 113.499 125.001s42.5 94.667 42.5 150c0 61.333 -16.167 109.333 -48.5 144s-78.5 52 -138.5 52c-49.333 0 -91.166 -14.667 -125.499 -44
s-51.833 -72.333 -52.5 -129h-284l-2 6c-2 128 40.167 226 126.5 294s198.833 102 337.5 102c149.333 0 266.5 -37.833 351.5 -113.5s127.5 -178.5 127.5 -308.5c0 -84.667 -24.833 -163 -74.5 -235s-111.834 -132.333 -186.501 -181
c-40.667 -31.333 -67.334 -62.833 -80.001 -94.5s-19 -75.167 -19 -130.5h-291zM619.002 0h-294v250h294v-250z" />
    <glyph glyph-name="at" unicode="@" horiz-adv-x="1806" 
d="M1731 513c-6 -145.333 -48.6641 -270.665 -127.997 -375.998s-198 -158 -356 -158c-52 0 -97 14.667 -135 44s-65 70.333 -81 123c-29.333 -54.667 -65.833 -95.667 -109.5 -123s-94.834 -41 -153.501 -41c-94 0 -166.167 39.667 -216.5 119s-69.166 184.333 -56.499 315
c16.667 169.333 64.667 305 144 407s175.333 153 288 153c77.333 0 139.333 -8.66699 186 -26s98.334 -44 155.001 -80l-3 -4h5l-51 -573c-4.66699 -62.667 0 -105.834 14 -129.501s33 -35.5 57 -35.5c76.667 0 138.167 36.333 184.5 109s72.166 164.667 77.499 276
c10.667 236 -34.833 419.833 -136.5 551.5s-258.834 197.5 -471.501 197.5c-202.667 0 -364.167 -71 -484.5 -213s-185.5 -332.333 -195.5 -571c-12 -236.667 36.5 -423.334 145.5 -560.001s265.5 -205 469.5 -205c56.667 0 115.167 6.66699 175.5 20s112.166 30 155.499 50
l38 -147c-44.667 -28 -101.5 -49.833 -170.5 -65.5s-136.5 -23.5 -202.5 -23.5c-264 0 -467.5 83 -610.5 249s-208.833 393.333 -197.5 682c12 284.667 97 512.5 255 683.5s366.667 256.5 626 256.5c258 0 455.667 -80.833 593 -242.5s200.666 -382.5 189.999 -662.5z
M721.003 416.001c-6.66699 -84.667 -0.499023 -148.835 18.501 -192.502s49.833 -65.5 92.5 -65.5c37.333 0 71.166 8.83301 101.499 26.5s57.5 49.834 81.5 96.501c0 1.33301 0.166992 3.33301 0.5 6s0.5 4.66699 0.5 6l44 496
c-15.333 4.66699 -30.833 8.33398 -46.5 11.001s-31.5 4 -47.5 4c-74 0 -130.333 -32.167 -169 -96.5s-64 -161.5 -76 -291.5z" />
    <glyph glyph-name="A" unicode="A" 
d="M41 175l104 15l443 1266h299l440 -1266l104 -15v-175h-496v175l101 18l-64 200h-472l-64 -200l101 -18v-175h-496v175zM569 608h334l-164 513h-6z" />
    <glyph glyph-name="B" unicode="B" horiz-adv-x="1354" 
d="M703 1456c171.333 0 305 -33.332 401 -99.999s144 -166.334 144 -299.001c0 -67.333 -17.833 -127.5 -53.5 -180.5s-87.5 -92.833 -155.5 -119.5c87.333 -18.667 152.833 -58.667 196.5 -120s65.5 -132.333 65.5 -213c0 -139.333 -46 -244.833 -138 -316.5
s-222.333 -107.5 -391 -107.5h-716v175l155 30v1045l-155 30v176h155h492zM503 644.001l0.000976562 -420h269c77.333 0 136.333 16.833 177 50.5s61 83.5 61 149.5c0 71.333 -17.333 125.833 -52 163.5s-89.334 56.5 -164.001 56.5h-291zM503.001 846.001h210
c78 0 138 16 180 48s63 78.667 63 140c0 67.333 -21.167 117 -63.5 149s-105.5 48 -189.5 48h-200v-385z" />
    <glyph glyph-name="C" unicode="C" horiz-adv-x="1327" 
d="M1249 965l-217 -0.00195312l-30 194c-28.667 28.667 -64.834 51.334 -108.501 68.001s-95.167 25 -154.5 25c-126.667 0 -224.167 -46 -292.5 -138s-102.5 -212 -102.5 -360v-51c0 -148 34 -268.333 102 -361s164 -139 288 -139c57.333 0 109.833 8.33301 157.5 25
s84.5 39.334 110.5 68.001l30 194h217v-288c-58.667 -68 -133.5 -122.167 -224.5 -162.5s-192.833 -60.5 -305.5 -60.5c-195.333 0 -355.333 67.667 -480 203s-187 309 -187 521v49c0 211.333 62 385 186 521s284.333 204 481 204c112.667 0 214.334 -20.5 305.001 -61.5
s165.667 -95.167 225 -162.5v-288z" />
    <glyph glyph-name="D" unicode="D" horiz-adv-x="1411" 
d="M711 1456c178 0 324.667 -56.833 440 -170.5s173 -259.5 173 -437.5v-241c0 -178.667 -57.667 -324.5 -173 -437.5s-262 -169.5 -440 -169.5h-655v175l155 30v1045l-155 30v176h155h500zM503 1231v-1007h193c104.667 0 186.667 35.333 246 106s89 163 89 277v243
c0 112.667 -29.667 204.334 -89 275.001s-141.333 106 -246 106h-193z" />
    <glyph glyph-name="E" unicode="E" horiz-adv-x="1308" 
d="M996 640h-493v-416h470l13 174h222v-398h-1152v175l155 30v1045l-155 30v176h155h995v-399h-224l-13 174h-466v-366h493v-225z" />
    <glyph glyph-name="F" unicode="F" horiz-adv-x="1265" 
d="M56 175l155 30v1045l-155 30v176h1159v-399h-224l-13 174h-475v-401h510v-225h-510v-400l156 -30v-175h-603v175z" />
    <glyph glyph-name="G" unicode="G" horiz-adv-x="1353" 
d="M1263 162c-47.333 -46.667 -116.33 -88.835 -206.997 -126.502s-205.334 -56.5 -344.001 -56.5c-196.667 0 -356.667 65.833 -480 197.5s-185 302.834 -185 513.501v50c0 218 60.833 395.333 182.5 532s280.5 205 476.5 205c114 0 218.167 -18.167 312.5 -54.5
s172.833 -85.5 235.5 -147.5v-293h-216l-41 195c-26.667 22.667 -61.834 40.834 -105.501 54.501s-93.834 20.5 -150.501 20.5c-127.333 0 -226.333 -47 -297 -141s-106 -217 -106 -369v-52c0 -148 34.667 -266.167 104 -354.5s169.333 -132.5 300 -132.5
c58.667 0 106.167 5 142.5 15s64.833 21.667 85.5 35v247l-208 16v205h501v-559z" />
    <glyph glyph-name="H" unicode="H" horiz-adv-x="1601" 
d="M56 1280v176h603v-176l-156 -30v-420h594v420l-156 30v176h156h291h156v-176l-156 -30v-1045l156 -30v-175h-603v175l156 30v400h-594v-400l156 -30v-175h-603v175l155 30v1045z" />
    <glyph glyph-name="I" unicode="I" horiz-adv-x="713" 
d="M55 1280v176h603v-176l-156 -30v-1045l156 -30v-175h-603v175l156 30v1045z" />
    <glyph glyph-name="J" unicode="J" horiz-adv-x="1192" 
d="M1165 1456l0.000976562 -176.001l-156 -30v-813c0 -140.667 -45.833 -252.167 -137.5 -334.5s-207.5 -123.5 -347.5 -123.5c-152 0 -272.333 37 -361 111s-131.334 183 -128.001 327l2 6h284c0 -76.667 18.333 -132.5 55 -167.5s86 -52.5 148 -52.5
c54 0 99.833 20.833 137.5 62.5s56.5 98.834 56.5 171.501v813l-156 30v176h447h156z" />
    <glyph glyph-name="K" unicode="K" horiz-adv-x="1464" 
d="M56 175l155 30v1045l-155 30v176h595v-176l-148 -30v-389h127l280 407l-86 12v176h577v-176l-158 -27l-358 -478l402 -575l146 -25v-175h-577v175l90 12l-280 421h-163v-403l148 -30v-175h-595v175z" />
    <glyph glyph-name="L" unicode="L" horiz-adv-x="1200" 
d="M56 0v175l155 30v1045l-155 30v176h155h292h156v-176l-156 -30v-1026h411l14 183h223v-407h-1095z" />
    <glyph glyph-name="M" unicode="M" horiz-adv-x="1929" 
d="M1461 1077l-6 1l-390 -1078h-196l-388 1074l-6 -1l28 -639v-229l156 -30v-175h-603v175l155 30v1045l-155 30v176h155h381l371 -1073h6l374 1073h538v-176l-156 -30v-1045l156 -30v-175h-603v175l155 30v229z" />
    <glyph glyph-name="N" unicode="N" horiz-adv-x="1582" 
d="M1544 1456v-176l-156 -30v-1250h-291l-588 980l-6 -1v-774l156 -30v-175h-603v175l155 30v1045l-155 30v176h155h292l588 -980l6 1v773l-156 30v176h447h156z" />
    <glyph glyph-name="O" unicode="O" horiz-adv-x="1448" 
d="M1387 717c0 -213.333 -61 -389.666 -183 -528.999s-281.667 -209 -479 -209c-196.667 0 -355.5 69.667 -476.5 209s-181.5 315.666 -181.5 528.999v22c0 212 60.333 388 181 528s279.334 210 476.001 210c197.333 0 357.166 -70 479.499 -210s183.5 -316 183.5 -528v-22z
M1096 741c0 150.667 -31.332 273 -93.999 367s-155.334 141 -278.001 141s-214.167 -46.667 -274.5 -140s-90.5 -216 -90.5 -368v-24c0 -153.333 30.5 -276.833 91.5 -370.5s152.5 -140.5 274.5 -140.5c123.333 0 216 46.833 278 140.5s93 217.167 93 370.5v24z" />
    <glyph glyph-name="P" unicode="P" horiz-adv-x="1325" 
d="M749 1456c166.667 0 298.167 -42.832 394.5 -128.499s144.5 -197.834 144.5 -336.501c0 -139.333 -48.167 -251.333 -144.5 -336s-227.833 -127 -394.5 -127h-246v-323l156 -30v-175h-603v175l155 30v1045l-155 30v176h155h538zM503 753.001h246
c81.333 0 142.833 22.167 184.5 66.5s62.5 100.833 62.5 169.5c0 70 -20.833 127.833 -62.5 173.5s-103.167 68.5 -184.5 68.5h-246v-478z" />
    <glyph glyph-name="Q" unicode="Q" horiz-adv-x="1449" 
d="M1387 717c0 -126.667 -22.833 -242.333 -68.5 -347s-109.5 -190 -191.5 -256l310 -193l-206 -159l-349 235c-26 -5.33301 -52.167 -9.66602 -78.5 -12.999s-52.5 -5 -78.5 -5c-196.667 0 -355.5 69.667 -476.5 209s-181.5 315.666 -181.5 528.999v22
c0 212 60.333 388 181 528s279.334 210 476.001 210c197.333 0 357.166 -70 479.499 -210s183.5 -316 183.5 -528v-22zM1096 741.001c0 150.667 -31.332 273 -93.999 367s-155.334 141 -278.001 141s-214.167 -46.667 -274.5 -140s-90.5 -216 -90.5 -368v-24
c0 -153.333 30.5 -276.833 91.5 -370.5s152.5 -140.5 274.5 -140.5c123.333 0 216 46.833 278 140.5s93 217.167 93 370.5v24z" />
    <glyph glyph-name="R" unicode="R" horiz-adv-x="1408" 
d="M710 1456c165.333 0 295.001 -37.832 389.001 -113.499s141 -180.167 141 -313.5c0 -73.333 -19.667 -137 -59 -191s-97 -97.667 -173 -131c86 -25.333 147.833 -67.5 185.5 -126.5s56.5 -132.167 56.5 -219.5v-74c0 -32 6.33301 -56.833 19 -74.5
s33.667 -28.167 63 -31.5l36 -5v-176h-151c-95.333 0 -162.333 25.667 -201 77s-58 117.666 -58 198.999v83c0 70.667 -18.833 126.167 -56.5 166.5s-90.834 61.5 -159.501 63.5h-239v-384l156 -30v-175h-603v175l155 30v1045l-155 30v176h155h499zM503.001 814.001h202
c81.333 0 142.333 17.333 183 52s61 84.667 61 150s-20.167 117.5 -60.5 156.5s-99.833 58.5 -178.5 58.5h-207v-417z" />
    <glyph glyph-name="S" unicode="S" horiz-adv-x="1242" 
d="M1162 991l-218.997 -0.00292969l-38 200c-25.333 16 -62.333 30 -111 42s-100.334 18 -155.001 18c-80 0 -141.833 -16.833 -185.5 -50.5s-65.5 -77.167 -65.5 -130.5c0 -49.333 22.833 -89.833 68.5 -121.5s124.5 -65.167 236.5 -100.5
c160.667 -44.667 282.5 -103.667 365.5 -177s124.5 -169.666 124.5 -288.999c0 -124.667 -49.333 -223 -148 -295s-228.667 -108 -390 -108c-115.333 0 -219.5 18.333 -312.5 55s-170.5 87.334 -232.5 152.001v304h226l31 -207c29.333 -24 69.166 -43.833 119.499 -59.5
s106.5 -23.5 168.5 -23.5c80 0 140.833 16.333 182.5 49s62.5 76.334 62.5 131.001c0 56 -19.833 101 -59.5 135s-109.167 66 -208.5 96c-172.667 50 -303.334 109.333 -392.001 178s-133 162.667 -133 282c0 118 50 214.5 150 289.5s225.667 113.5 377 115.5
c112 0 214 -17 306 -51s169.333 -79.333 232 -136v-298z" />
    <glyph glyph-name="T" unicode="T" horiz-adv-x="1377" 
d="M1338 1456v-388h-224l-12 163h-268v-1026l156 -30v-175h-604v175l156 30v1026h-267l-12 -163h-223v388h1298z" />
    <glyph glyph-name="U" unicode="U" horiz-adv-x="1547" 
d="M642 1456l0.000976562 -176l-156 -30v-760c0 -96 25.833 -167.833 77.5 -215.5s122.5 -71.5 212.5 -71.5c91.333 0 163 23.667 215 71s78 119.333 78 216v760l-155 30v176h603v-176l-156 -30v-760c0 -163.333 -53.833 -289.333 -161.5 -378s-248.834 -133 -423.501 -133
c-174 0 -314.5 44.333 -421.5 133s-160.5 214.667 -160.5 378v760l-155 30v176h155h292h156z" />
    <glyph glyph-name="V" unicode="V" horiz-adv-x="1468" 
d="M566 1280l-111 -20l258 -873l18 -80h6l17 78l259 875l-110 20v176h532v-176l-122 -16l-429 -1264h-300l-430 1264l-120 16v176h532v-176z" />
    <glyph glyph-name="W" unicode="W" horiz-adv-x="1972" 
d="M1942 1280l-120 -15l-295 -1265h-271l-267 961h-6l-267 -961h-271l-297 1265l-119 15v176h536v-176l-133 -23l167 -798l6 -1l273 998h215l275 -998l6 1l166 798l-133 23v176h535v-176z" />
    <glyph glyph-name="X" unicode="X" horiz-adv-x="1438" 
d="M33 175l123 24l385 535l-375 521l-122 25v176h559v-176l-119 -13l225 -357l226 357l-117 13v176h561v-176l-122 -25l-375 -521l393 -534l129 -25v-175h-573v175l116 12l-234 368l-235 -368l117 -12v-175h-562v175z" />
    <glyph glyph-name="Y" unicode="Y" horiz-adv-x="1398" 
d="M587 1280l-119 -17l226 -478h6l226 478l-118 17v176h551v-176l-124 -20l-396 -748v-307l156 -30v-175h-603v175l156 30v322l-389 733l-123 20v176h551v-176z" />
    <glyph glyph-name="Z" unicode="Z" horiz-adv-x="1226" 
d="M1143 1456v-146l-713 -1086h507l24 176h222l-22 -400h-1087v152l710 1079h-463l-23 -176h-223l22 401h1046z" />
    <glyph glyph-name="bracketleft" unicode="[" horiz-adv-x="578" 
d="M572 1475h-141v-1595h141v-216h-433v2027h433v-216z" />
    <glyph glyph-name="backslash" unicode="\" horiz-adv-x="854" 
d="M12 1456h288l608 -1581h-288z" />
    <glyph glyph-name="bracketright" unicode="]" horiz-adv-x="569" 
d="M11 1691h434v-2027h-434v216h143v1595h-143v216z" />
    <glyph glyph-name="asciicircum" unicode="^" horiz-adv-x="884" 
d="M276 729h-231l299 727h212l299 -727h-231l-165 413l-8 34h-6l-7 -34z" />
    <glyph glyph-name="underscore" unicode="_" horiz-adv-x="1094" 
d="M1002 -186h-910v186h910v-186z" />
    <glyph glyph-name="grave" unicode="`" horiz-adv-x="622" 
d="M572 1212h-236l-272 260l2 6h310z" />
    <glyph glyph-name="a" unicode="a" horiz-adv-x="1125" 
d="M752 0c-8 18 -14.998 36.5029 -20.998 55.5029s-10.667 38.167 -14 57.5c-34.667 -40 -76.834 -72.333 -126.501 -97s-106.5 -37 -170.5 -37c-106 0 -190.167 28.833 -252.5 86.5s-93.5 136.167 -93.5 235.5c0 101.333 40.667 179.666 122 234.999s200.666 83 357.999 83
h149v106c0 52 -15 92.333 -45 121s-74.333 43 -133 43c-33.333 0 -63 -3.83301 -89 -11.5s-47 -16.834 -63 -27.501l-19 -116h-220l1 240c53.333 36 114.5 66.333 183.5 91s144.167 37 225.5 37c134 0 242.833 -32.833 326.5 -98.5s125.5 -159.167 125.5 -280.5v-447
c0 -16.667 0.166992 -32.334 0.5 -47.001s1.5 -28.667 3.5 -42l89 -12v-175h-337zM499.002 195.003c44 0 84 9.50098 120 28.501s64 42.833 84 71.5v165h-149c-62 0 -109 -14.5 -141 -43.5s-48 -63.833 -48 -104.5c0 -36.667 11.833 -65.334 35.5 -86.001s56.5 -31 98.5 -31
z" />
    <glyph glyph-name="b" unicode="b" horiz-adv-x="1181" 
d="M1109 511c0 -161.333 -36.001 -290.331 -108.001 -386.998s-176 -145 -312 -145c-63.333 0 -118.333 13.167 -165 39.5s-86 64.5 -118 114.5l-21 -133h-252v1354l-155 30v176h446v-593c31.333 43.333 68.833 76.666 112.5 99.999s93.834 35 150.501 35
c137.333 0 242 -51.833 314 -155.5s108 -241.834 108 -414.501v-21zM817.999 532.002c0 105.333 -15.501 188.832 -46.501 250.499s-83.833 92.5 -158.5 92.5c-45.333 0 -83.666 -9.5 -114.999 -28.5s-56 -46.167 -74 -81.5v-457c18 -33.333 42.833 -58.666 74.5 -75.999
s70.5 -26 116.5 -26c75.333 0 128 26.5 158 79.5s45 128.167 45 225.5v21z" />
    <glyph glyph-name="c" unicode="c" horiz-adv-x="1079" 
d="M571 203c52 0 93.666 15.167 124.999 45.5s47 70.833 47 121.5h264l3 -6c2.66699 -109.333 -38.333 -200.833 -123 -274.5s-190 -110.5 -316 -110.5c-161.333 0 -285.666 51 -372.999 153s-131 233 -131 393v30c0 159.333 44.833 290.333 134.5 393s217.5 154 383.5 154
c87.333 0 165.666 -13 234.999 -39s127 -62.667 173 -110l4 -289h-237l-48 169c-14.667 12.667 -32.667 23.167 -54 31.5s-45.666 12.5 -72.999 12.5c-82.667 0 -141 -30 -175 -90s-51 -137.333 -51 -232v-30c0 -96.667 15.667 -174.5 47 -233.5s86.333 -88.5 165 -88.5z
" />
    <glyph glyph-name="d" unicode="d" horiz-adv-x="1212" 
d="M767 132c-34 -50 -74.168 -88.001 -120.501 -114.001s-99.166 -39 -158.499 -39c-133.333 0 -236.833 48.667 -310.5 146s-110.5 226 -110.5 386v21c0 170.667 37 308.334 111 413.001s178 157 312 157c54 0 102.667 -11.833 146 -35.5s81.333 -57.167 114 -100.5v388
l-156 30v176h156h292v-1355l140 -30v-175h-393zM358.999 510.999c0 -94.667 15.833 -169.167 47.5 -223.5s83.5 -81.5 155.5 -81.5c42.667 0 79.667 8.66699 111 26s57 42.333 77 75v459c-20 34.667 -45.5 61.5 -76.5 80.5s-67.5 28.5 -109.5 28.5
c-71.333 0 -123.333 -31.667 -156 -95s-49 -146 -49 -248v-21z" />
    <glyph glyph-name="e" unicode="e" horiz-adv-x="1091" 
d="M581 -21c-156 0 -280.668 50 -374.001 150s-140 227 -140 381v40c0 160.667 44.167 293 132.5 397s206.833 155.667 355.5 155c146 0 259.333 -44 340 -132s121 -207 121 -357v-159h-646l-2 -6c5.33301 -71.333 29.166 -130 71.499 -176s99.833 -69 172.5 -69
c64.667 0 118.334 6.5 161.001 19.5s89.334 33.5 140.001 61.5l79 -180c-44.667 -35.333 -102.5 -65 -173.5 -89s-150.167 -36 -237.5 -36zM554.999 877c-54 0 -96.668 -20.668 -128.001 -62.001s-50.666 -95.666 -57.999 -162.999l3 -5h358v26
c0 62 -14.5 111.5 -43.5 148.5s-72.833 55.5 -131.5 55.5z" />
    <glyph glyph-name="f" unicode="f" horiz-adv-x="762" 
d="M79 175l140.997 30.001v672h-161v205h161v120c0 121.333 35 214.833 105 280.5s168.333 98.5 295 98.5c24.667 0 49.834 -1.83301 75.501 -5.5s53.834 -8.83398 84.501 -15.501l-25 -217c-16 2.66699 -31.5 5 -46.5 7s-32.5 3 -52.5 3
c-47.333 0 -83.166 -13 -107.499 -39s-36.5 -63.333 -36.5 -112v-120h215v-205h-215v-672l141 -30v-175h-574v175z" />
    <glyph glyph-name="g" unicode="g" horiz-adv-x="1170" 
d="M81 532c0 170.667 37.168 308.334 111.501 413.001s178.5 157 312.5 157c60.667 0 114 -13.5 160 -40.5s85.333 -65.5 118 -115.5l21 136h254v-1050c0 -142.667 -44.833 -256.5 -134.5 -341.5s-212.834 -127.5 -369.501 -127.5c-54.667 0 -112.667 7.5 -174 22.5
s-118 35.5 -170 61.5l54 205c46.667 -20 93.334 -35.833 140.001 -47.5s96 -17.5 148 -17.5c71.333 0 124.666 21.667 159.999 65s53 103.666 53 180.999v71c-32 -40.667 -69.667 -71.667 -113 -93s-93 -32 -149 -32c-132.667 0 -236.167 48.833 -310.5 146.5
s-111.5 226.167 -111.5 385.5v21zM373.001 511c0 -94.667 16 -169.166 48 -223.499s84 -81.5 156 -81.5c44.667 0 82.5 8.16699 113.5 24.5s55.833 40.166 74.5 71.499v470c-18.667 32.667 -43.5 58 -74.5 76s-68.167 27 -111.5 27c-71.333 0 -123.5 -31.667 -156.5 -95
s-49.5 -146 -49.5 -248v-21z" />
    <glyph glyph-name="h" unicode="h" horiz-adv-x="1302" 
d="M47 175l141.002 30.001v1149l-156 30v176h447v-616c34 50 75.667 88.833 125 116.5s104 41.5 164 41.5c113.333 0 202.166 -37.5 266.499 -112.5s96.5 -190.833 96.5 -347.5v-437l140 -30v-175h-558v175l126 30v439c0 84 -14.833 143.5 -44.5 178.5
s-73.834 52.5 -132.501 52.5c-40.667 0 -76.167 -7.33301 -106.5 -22s-55.833 -35.334 -76.5 -62.001v-586l126 -30v-175h-558v175z" />
    <glyph glyph-name="i" unicode="i" horiz-adv-x="660" 
d="M54 175l141 30v671l-156 30v176h448v-877l140 -30v-175h-573v175zM487 1341h-292v219h292v-219z" />
    <glyph glyph-name="j" unicode="j" horiz-adv-x="599" 
d="M492 -40c0 -126.667 -33.6689 -224.5 -101.002 -293.5s-160.666 -103.5 -279.999 -103.5c-27.333 0 -52.166 1.33301 -74.499 4s-45.5 7 -69.5 13l14 223c14.667 -4 29.667 -7 45 -9s32 -3 50 -3c39.333 0 69.833 13.833 91.5 41.5s32.5 70.167 32.5 127.5v916l-156 30
v176h448v-1122zM485.998 1343h-292v217h292v-217z" />
    <glyph glyph-name="k" unicode="k" horiz-adv-x="1249" 
d="M32 1384v176h447v-904h65l168 237l-95 13v176h532v-176l-128 -29l-195 -268l273 -411l111 -23v-175h-500v175l60 10l-166 268h-125v-248l126 -30v-175h-558v175l141 30v1149z" />
    <glyph glyph-name="l" unicode="l" horiz-adv-x="653" 
d="M32 1384v176h448v-1355l141 -30v-175h-574v175l141 30v1149z" />
    <glyph glyph-name="m" unicode="m" horiz-adv-x="1905" 
d="M29 906l0.00195312 176.001h427l12 -143c34.667 52 78.167 92.167 130.5 120.5s112.833 42.5 181.5 42.5c69.333 0 128.666 -15.333 177.999 -46s86.666 -77 111.999 -139c33.333 58 76.666 103.333 129.999 136s116 49 188 49c106.667 0 190.834 -36.833 252.501 -110.5
s92.5 -185.834 92.5 -336.501v-450l141 -30v-175h-559v175l126 30v451c0 82 -13.333 139 -40 171s-66.334 48 -119.001 48c-41.333 0 -77.166 -9.16699 -107.499 -27.5s-54.5 -43.833 -72.5 -76.5c0 -12.667 0.333008 -23.5 1 -32.5s1 -18.167 1 -27.5v-506l118 -30v-175
h-527v175l118 30v451c0 80 -13.333 136.5 -40 169.5s-66.667 49.5 -120 49.5c-39.333 0 -73.833 -7.5 -103.5 -22.5s-54.167 -36.167 -73.5 -63.5v-584l126 -30v-175h-558v175l141 30v671z" />
    <glyph glyph-name="n" unicode="n" horiz-adv-x="1300" 
d="M47 175l140.002 30.002v671l-155 30v176h427l13 -155c36 55.333 80.333 98.333 133 129s111.667 46 177 46c109.333 0 194.666 -34.333 255.999 -103s92 -176.334 92 -323.001v-471l140 -30v-175h-558v175l125 30v470c0 72.667 -14.667 124.167 -44 154.5
s-73.666 45.5 -132.999 45.5c-38.667 0 -73.334 -7.83301 -104.001 -23.5s-56.334 -37.834 -77.001 -66.501v-580l118 -30v-175h-550v175z" />
    <glyph glyph-name="o" unicode="o" horiz-adv-x="1148" 
d="M63 551c0 161.333 45.168 293.5 135.501 396.5s215.166 154.5 374.499 154.5c160 0 285.167 -51.333 375.5 -154s135.5 -235 135.5 -397v-21c0 -162.667 -45.167 -295.167 -135.5 -397.5s-214.833 -153.5 -373.5 -153.5c-160.667 0 -286.167 51.167 -376.5 153.5
s-135.5 234.833 -135.5 397.5v21zM355.001 530c0 -98.667 17.333 -177.833 52 -237.5s90.667 -89.5 168 -89.5c75.333 0 130.5 30 165.5 90s52.5 139 52.5 237v21c0 96 -17.667 174.333 -53 235s-91 91 -167 91s-131.333 -30.333 -166 -91s-52 -139 -52 -235v-21z" />
    <glyph glyph-name="p" unicode="p" horiz-adv-x="1240" 
d="M41 906v176.001h424l14 -126c32 46.667 70.333 82.667 115 108s96.667 38 156 38c134 0 238 -52.333 312 -157s111 -242.334 111 -413.001v-21c0 -160 -37 -288.667 -111 -386s-177.333 -146 -310 -146c-56.667 0 -107 10.5 -151 31.5s-81.667 51.833 -113 92.5v-313
l141 -30v-176h-573v176l141 30v1086zM881 532.001c0 102 -17 184.667 -51 248s-86 95 -156 95c-44 0 -81.5 -9 -112.5 -27s-55.5 -43.667 -73.5 -77v-474c18 -30.667 42.5 -54 73.5 -70s69.167 -24 114.5 -24c70.667 0 122.5 27.667 155.5 83s49.5 130.333 49.5 225v21z" />
    <glyph glyph-name="q" unicode="q" horiz-adv-x="1154" 
d="M67 532c0 170.667 37 308.333 111 413s178 157 312 157c58.667 0 110.667 -13 156 -39s84.333 -63 117 -111l23 130h253v-1292l141 -30v-176h-574v176l141 30v310c-32 -40 -69.5 -70.167 -112.5 -90.5s-91.833 -30.5 -146.5 -30.5c-133.333 0 -236.833 48.667 -310.5 146
s-110.5 226 -110.5 386v21zM359 510.999c0 -95.333 15.8311 -170.5 47.498 -225.5s83.5 -82.5 155.5 -82.5c42.667 0 79.334 7.83301 110.001 23.5s55.667 38.834 75 69.501v481c-19.333 32 -44.166 56.667 -74.499 74s-66.5 26 -108.5 26
c-71.333 0 -123.333 -31.833 -156 -95.5s-49 -146.834 -49 -249.501v-21z" />
    <glyph glyph-name="r" unicode="r" horiz-adv-x="862" 
d="M85 175l140 30v671l-155 30v176h427l13 -158c25.333 56 58 99.667 98 131s86.333 47 139 47c15.333 0 31.5 -1.16699 48.5 -3.5s31.167 -5.16602 42.5 -8.49902l-31 -266l-120 3c-42.667 0 -78 -8.33301 -106 -25s-49.333 -40.334 -64 -71.001v-526l140 -30v-175h-572
v175z" />
    <glyph glyph-name="s" unicode="s" horiz-adv-x="1054" 
d="M946 710l-195.999 0.00390625l-31 135c-20 16 -45.167 29.333 -75.5 40s-63.833 16 -100.5 16c-51.333 0 -92 -11.5 -122 -34.5s-45 -51.833 -45 -86.5c0 -32.667 14.333 -59.834 43 -81.501s86 -40.834 172 -57.501c134 -26.667 233.333 -65.834 298 -117.501
s97 -122.834 97 -213.501c0 -97.333 -41.833 -176.833 -125.5 -238.5s-193.834 -92.5 -330.501 -92.5c-83.333 0 -159.833 12.167 -229.5 36.5s-131.5 59.166 -185.5 104.499l-3 243h204l40 -141c17.333 -14.667 41 -25.5 71 -32.5s61.333 -10.5 94 -10.5
c59.333 0 104.5 10.667 135.5 32s46.5 50.333 46.5 87c0 32 -15.667 59.667 -47 83s-89 44 -173 62c-127.333 26 -223.5 64.5 -288.5 115.5s-97.5 120.5 -97.5 208.5c0 90.667 37.333 168.834 112 234.501s181 98.5 319 98.5c84 0 163.5 -11.333 238.5 -34
s133.833 -51.667 176.5 -87z" />
    <glyph glyph-name="t" unicode="t" horiz-adv-x="764" 
d="M494 1347l0.000976562 -265h190v-205h-190v-551c0 -42 8.66699 -72 26 -90s40.666 -27 69.999 -27c20 0 37.5 0.833008 52.5 2.5s31.833 4.5 50.5 8.5l25 -211c-32.667 -10 -65 -17.5 -97 -22.5s-66.667 -7.5 -104 -7.5c-100.667 0 -178.167 27.667 -232.5 83
s-81.5 143 -81.5 263v552h-159v205h159v265h291z" />
    <glyph glyph-name="u" unicode="u" horiz-adv-x="1278" 
d="M820 137c-34.667 -50.667 -77.5 -89.667 -128.5 -117s-109.167 -41 -174.5 -41c-114 0 -203.333 36.5 -268 109.5s-97 186.5 -97 340.5v447l-119 30v176h119h292v-655c0 -78.667 13.167 -135.167 39.5 -169.5s65.5 -51.5 117.5 -51.5c46 0 85.833 7.5 119.5 22.5
s61.167 36.5 82.5 64.5v583l-128 30v176h128h292v-877l131 -30v-175h-387z" />
    <glyph glyph-name="v" unicode="v" horiz-adv-x="1167" 
d="M522 906l-102 -19l143 -484l19 -102h6l21 102l141 483l-104 20v176h491v-176l-94 -15l-319 -891h-279l-320 891l-94 15v176h491v-176z" />
    <glyph glyph-name="w" unicode="w" horiz-adv-x="1642" 
d="M1605 906l-109 -14l-226 -892h-244l-201 644h-6l-201 -644h-243l-227 892l-109 14v176h490v-176l-115 -22l102 -495h6l202 693h196l204 -695h6l101 496l-116 23v176h490v-176z" />
    <glyph glyph-name="x" unicode="x" horiz-adv-x="1191" 
d="M32 175l101 16l294 356l-284 342l-101 17v176h487v-169l-99 -12l164 -208l161 208l-101 12v169h489v-176l-98 -17l-278 -342l293 -356l102 -16v-175h-495v168l99 12l-168 218l-171 -219l87 -11v-168h-482v175z" />
    <glyph glyph-name="y" unicode="y" horiz-adv-x="1212" 
d="M1183 906l-101.001 -15l-398 -1053c-31.333 -78 -73.166 -143.333 -125.499 -196s-131.166 -79 -236.499 -79c-24.667 0 -47.834 2 -69.501 6s-47.167 9.66699 -76.5 17l34 213l29 -4c10 -1.33301 18.667 -2 26 -2c48.667 0 86 11.833 112 35.5s46 53.167 60 88.5l33 82
l-343 891l-101 16v176h530v-176l-121 -20l148 -432l15 -78l6 -1l171 511l-122 20v176h530v-176z" />
    <glyph glyph-name="z" unicode="z" horiz-adv-x="1070" 
d="M450 224h302l12 144h223v-368h-899v172l515 684h-265l-11 -143h-224v369h866v-167z" />
    <glyph glyph-name="braceleft" unicode="{" horiz-adv-x="654" 
d="M577 -360c-130 36.667 -222.5 95 -277.5 175s-82.5 177 -82.5 291v203c0 66 -14.5 117.333 -43.5 154s-73.833 55 -134.5 55v201c60.667 0 105.5 18.167 134.5 54.5s43.5 88.166 43.5 155.499v203c0 114 27.5 210.833 82.5 290.5s147.5 137.834 277.5 174.501l56 -157
c-57.333 -20.667 -97.5 -57.5 -120.5 -110.5s-34.5 -118.833 -34.5 -197.5v-203c0 -69.333 -15 -130.833 -45 -184.5s-75 -95.5 -135 -125.5c60 -31.333 105 -73.833 135 -127.5s45 -114.5 45 -182.5v-203c0 -78.667 11.5 -144.5 34.5 -197.5s63.167 -89.833 120.5 -110.5z
" />
    <glyph glyph-name="bar" unicode="|" horiz-adv-x="428" 
d="M307 -270h-175v1726h175v-1726z" />
    <glyph glyph-name="braceright" unicode="}" horiz-adv-x="651" 
d="M11 -202c56 20.667 95.667 57.501 119 110.501s35 118.833 35 197.5v203c0 69.333 15.333 130.666 46 183.999s77.334 95 140.001 125c-62.667 30 -109.334 71.833 -140.001 125.5s-46 115.5 -46 185.5v203c0 78.667 -11.667 144.5 -35 197.5s-63 89.833 -119 110.5
l56 157c129.333 -36.667 221.666 -94.834 276.999 -174.501s83 -176.5 83 -290.5v-203c0 -67.333 14.333 -119.166 43 -155.499s73.334 -54.5 134.001 -54.5v-201c-60.667 0 -105.334 -18.333 -134.001 -55s-43 -88 -43 -154v-203c0 -114 -27.667 -211 -83 -291
s-147.666 -138.333 -276.999 -175z" />
    <glyph glyph-name="asciitilde" unicode="~" horiz-adv-x="1323" 
d="M1214 758c0 -107.333 -29.501 -197.5 -88.501 -270.5s-133.5 -109.5 -223.5 -109.5c-56.667 0 -109 10.5 -157 31.5s-98 54.833 -150 101.5c-33.333 29.333 -62.666 50.666 -87.999 63.999s-52.666 20 -81.999 20c-34.667 0 -64 -17 -88 -51s-36 -74.667 -36 -122
l-201 26c0 108 28.833 197.833 86.5 269.5s132.167 107.5 223.5 107.5c55.333 0 108.166 -11.167 158.499 -33.5s100.5 -55.5 150.5 -99.5c32.667 -30 61.667 -51.5 87 -64.5s52.333 -19.5 81 -19.5c34 0 63.333 17.333 88 52s37 76.334 37 125.001z" />
    <glyph glyph-name="nonbreakingspace" unicode="&#xa0;" horiz-adv-x="502" 
 />
    <glyph glyph-name="exclamdown" unicode="&#xa1;" horiz-adv-x="524" 
d="M423 -374h-293v953h293v-953zM423 825h-293v257h293v-257z" />
    <glyph glyph-name="cent" unicode="&#xa2;" horiz-adv-x="1092" 
d="M584 203c52 0 93.6641 15.166 124.997 45.499s47 70.833 47 121.5h265l3 -6c2 -96 -30.667 -179.167 -98 -249.5s-153.666 -113.166 -258.999 -128.499v-231h-200v235c-125.333 24 -221.166 84.5 -287.499 181.5s-99.5 214.833 -99.5 353.5v30
c0 135.333 33.333 251.5 100 348.5s162.334 158.833 287.001 185.5v229h200v-219c71.333 -6.66699 135.666 -22.5 192.999 -47.5s106 -57.833 146 -98.5l4 -289h-237l-48 169c-14.667 12.667 -32.667 23.167 -54 31.5s-45.666 12.5 -72.999 12.5
c-82.667 0 -141 -30 -175 -90s-51 -137.333 -51 -232v-30c0 -96.667 15.667 -174.5 47 -233.5s86.333 -88.5 165 -88.5z" />
    <glyph glyph-name="sterling" unicode="&#xa3;" horiz-adv-x="1177" 
d="M515 588l4.00098 -85.001c0 -52 -10 -102 -30 -150s-48.667 -91 -86 -129h479l12 144h223v-368h-997v224h10c31.333 8 54.833 39.5 70.5 94.5s23.5 112.167 23.5 171.5l-4 98h-163v225h155l-8 214c0 140 40.167 250 120.5 330s187.833 120 322.5 120
c143.333 0 254.5 -37.167 333.5 -111.5s117.167 -172.5 114.5 -294.5l-2 -6h-285c0 64 -15.333 111.167 -46 141.5s-69.334 45.5 -116.001 45.5c-47.333 0 -84.333 -19.667 -111 -59s-40 -94.666 -40 -165.999l10 -214h356v-225h-346z" />
    <glyph glyph-name="currency" unicode="&#xa4;" horiz-adv-x="1432" 
d="M1074 107c-51.333 -40.667 -107.834 -72.0039 -169.501 -94.0039s-125.834 -33 -192.501 -33c-67.333 0 -131.666 10.833 -192.999 32.5s-117 52.834 -167 93.501l-129 -132l-141 144l135 137c-32.667 50.667 -57.5 105.834 -74.5 165.501s-25.5 122.167 -25.5 187.5
c0 67.333 9.33301 131.833 28 193.5s45.667 118.834 81 171.501l-144 147l141 144l142 -145c49.333 36.667 103.333 65 162 85s120.334 30 185.001 30c64 0 125.667 -10.167 185 -30.5s114 -49.166 164 -86.499l145 148l142 -145l-148 -151c34 -52 60.333 -108.5 79 -169.5
s28 -124.833 28 -191.5c0 -64.667 -8.5 -126.5 -25.5 -185.5s-41.167 -113.5 -72.5 -163.5l139 -141l-142 -145zM301.999 607.996c0 -122.667 39.833 -226.5 119.5 -311.5s176.5 -127.5 290.5 -127.5c113.333 0 209.833 42.333 289.5 127s119.5 188.667 119.5 312
c0 122 -39.833 225.333 -119.5 310s-176.167 127 -289.5 127c-114 0 -210.833 -42.333 -290.5 -127s-119.5 -188 -119.5 -310z" />
    <glyph glyph-name="yen" unicode="&#xa5;" horiz-adv-x="1401" 
d="M1369 1280l-166 -22l-276 -516h244v-165h-324v-125h324v-164h-324v-83l140 -30v-175h-587v175l155 30v83h-339v164h339v125h-339v165h267l-276 516l-166 22v176h536v-176l-68 -13l193 -418h6l193 418l-68 13v176h536v-176z" />
    <glyph glyph-name="brokenbar" unicode="&#xa6;" horiz-adv-x="513" 
d="M134 -270v795h261v-795h-261zM395 698h-261v758h261v-758z" />
    <glyph glyph-name="section" unicode="&#xa7;" horiz-adv-x="1243" 
d="M1172 475c0 -60.667 -14 -113.667 -42 -159s-68.333 -82.333 -121 -111c45.333 -34 79.5 -74.5 102.5 -121.5s34.5 -102.833 34.5 -167.5c0 -118 -46.833 -210.333 -140.5 -277s-219.5 -100 -377.5 -100c-154.667 0 -283.667 33.167 -387 99.5
s-153.333 172.166 -150 317.499l2 6l282 1c0 -70.667 24.167 -121.334 72.5 -152.001s108.5 -46 180.5 -46c71.333 0 126.833 13.833 166.5 41.5s59.5 63.834 59.5 108.501s-20.167 80.5 -60.5 107.5s-116.833 57.167 -229.5 90.5c-163.333 42.667 -284 95.167 -362 157.5
s-117 150.833 -117 265.5c0 58.667 14 111 42 157s68.667 84 122 114c-46 33.333 -80.5 73.5 -103.5 120.5s-34.5 103.167 -34.5 168.5c0 114.667 47.167 206.834 141.5 276.501s220.5 104.5 378.5 104.5c162.667 0 289.667 -37 381 -111s135.333 -177.667 132 -311l-2 -6
h-282c0 58.667 -20.167 107.167 -60.5 145.5s-96.5 57.5 -168.5 57.5c-76 0 -132.833 -14.5 -170.5 -43.5s-56.5 -65.833 -56.5 -110.5c0 -50 18.5 -87.833 55.5 -113.5s114.167 -54.5 231.5 -86.5c164.667 -42.667 286 -95.167 364 -157.5s117 -150.833 117 -265.5z
M591 663c-26.667 6.66699 -51.334 13.667 -74.001 21l-65 22c-25.333 -14.667 -44.166 -34.334 -56.499 -59.001s-18.5 -53 -18.5 -85c0 -54 18.333 -94.667 55 -122s114 -58.333 232 -93l68.5 -20l69.5 -21c26 14.667 46.167 34.334 60.5 59.001s21.5 53 21.5 85
c0 47.333 -20.667 86 -62 116s-118.333 62.333 -231 97z" />
    <glyph glyph-name="dieresis" unicode="&#xa8;" horiz-adv-x="1031" 
d="M911 1252h-267v204h267v-204zM411 1252h-267v204h267v-204z" />
    <glyph glyph-name="copyright" unicode="&#xa9;" horiz-adv-x="1566" 
d="M1097 596l2.00098 -5.99902c2.66699 -100.667 -25.333 -177.167 -84 -229.5s-140.334 -78.5 -245.001 -78.5c-106.667 0 -191.5 35.333 -254.5 106s-94.5 164.334 -94.5 281.001v119c0 115.333 31.5 208.666 94.5 279.999s147.833 107 254.5 107
c104.667 0 186.5 -26.5 245.5 -79.5s87.167 -129.167 84.5 -228.5l-2 -6h-148c0 62.667 -15 108.167 -45 136.5s-75 42.5 -135 42.5c-62.667 0 -110.667 -23 -144 -69s-50 -106.667 -50 -182v-120c0 -76.667 16.667 -137.834 50 -183.501s81.333 -68.5 144 -68.5
c60 0 104.833 13.833 134.5 41.5s44.5 73.5 44.5 137.5h148zM196.001 729.001c0 -176 57.168 -324.167 171.501 -444.5s253.166 -180.5 416.499 -180.5c162.667 0 301.167 60.167 415.5 180.5s171.5 268.5 171.5 444.5c0 175.333 -57.167 322.833 -171.5 442.5
s-252.833 179.5 -415.5 179.5c-164 0 -303 -59.833 -417 -179.5s-171 -267.167 -171 -442.5zM74.002 729.001c0 210 69 387 207 531s305.667 216 503 216c196.667 0 364.167 -72 502.5 -216s207.5 -321 207.5 -531c0 -210.667 -69.333 -388.334 -208 -533.001
s-306 -217 -502 -217c-197.333 0 -365 72.333 -503 217s-207 322.334 -207 533.001z" />
    <glyph glyph-name="ordfeminine" unicode="&#xaa;" horiz-adv-x="867" 
d="M586 706c-5.33301 14 -9.66699 28.8301 -13 44.4971s-6 32.167 -8 49.5c-22 -31.333 -51.5 -57.166 -88.5 -77.499s-81.5 -30.5 -133.5 -30.5c-79.333 0 -140.666 20.333 -183.999 61s-65 96.334 -65 167.001c0 74 28.167 131 84.5 171s138.5 60 246.5 60h137v51
c0 41.333 -9.83301 72.833 -29.5 94.5s-48.5 32.5 -86.5 32.5c-44 0 -78 -8.66699 -102 -26s-36 -41.666 -36 -72.999l-165 13l-1 6c-4 65.333 22.333 119.666 79 162.999s131.667 65 225 65c89.333 0 160.166 -23.667 212.499 -71s78.5 -115.666 78.5 -204.999v-314
c0 -34 2 -65.667 6 -95s10.667 -58 20 -86h-177zM385.999 835.997c34 0 69.001 10 105.001 30s59.667 41.667 71 65v103h-136c-49.333 0 -87.833 -10.667 -115.5 -32s-41.5 -47.333 -41.5 -78c0 -28.667 9.66699 -50.5 29 -65.5s48.666 -22.5 87.999 -22.5z" />
    <glyph glyph-name="guillemotleft" unicode="&#xab;" horiz-adv-x="953" 
d="M231 515l240 -399h-187l-280 390v19l280 390h187zM626 515l240 -399h-187l-280 390v19l280 390h187z" />
    <glyph glyph-name="logicalnot" unicode="&#xac;" horiz-adv-x="1098" 
d="M949 374h-200v260h-635v171h835v-431z" />
    <glyph glyph-name="uni00AD" unicode="&#xad;" horiz-adv-x="815" 
d="M695 510h-564v225h564v-225z" />
    <glyph glyph-name="registered" unicode="&#xae;" horiz-adv-x="1566" 
d="M74 729c0 210 69 387 207 531s305.667 216 503 216c196.667 0 364.167 -72 502.5 -216s207.5 -321 207.5 -531c0 -210.667 -69.333 -388.334 -208 -533.001s-306 -217 -502 -217c-197.333 0 -365 72.333 -503 217s-207 322.334 -207 533.001zM196 729
c0 -176 57.168 -324.167 171.501 -444.5s253.166 -180.5 416.499 -180.5c162.667 0 301.167 60.167 415.5 180.5s171.5 268.5 171.5 444.5c0 175.333 -57.167 322.833 -171.5 442.5s-252.833 179.5 -415.5 179.5c-164 0 -303 -59.833 -417 -179.5s-171 -267.167 -171 -442.5
zM640.001 653l-0.00195312 -337.001h-151v850h281c100.667 0 180 -22.667 238 -68s87 -110 87 -194c0 -38.667 -9.66699 -72.5 -29 -101.5s-47.666 -53.833 -84.999 -74.5c38.667 -20 66.834 -48.167 84.501 -84.5s26.5 -79.166 26.5 -128.499v-56
c0 -27.333 1.16699 -51.833 3.5 -73.5s6.83301 -39.5 13.5 -53.5v-16h-155c-6 14 -9.66699 34.5 -11 61.5s-2 54.5 -2 82.5v54c0 47.333 -11.167 82.333 -33.5 105s-58.833 34 -109.5 34h-158zM639.999 786.999h136c47.333 0 87.333 10 120 30s49 48.667 49 86
c0 48 -13 81.667 -39 101s-71.333 29 -136 29h-130v-246z" />
    <glyph glyph-name="macron" unicode="&#xaf;" horiz-adv-x="1008" 
d="M877 1292h-731v165h731v-165z" />
    <glyph glyph-name="macron" unicode="&#x2c9;" horiz-adv-x="1008" 
d="M877 1292h-731v165h731v-165z" />
    <glyph glyph-name="degree" unicode="&#xb0;" horiz-adv-x="745" 
d="M106 1203c0 74.667 26.667 139 80 193s117.333 81 192 81c73.333 0 136.333 -27 189 -81s79 -118.333 79 -193c0 -76 -26.167 -140.167 -78.5 -192.5s-115.5 -78.5 -189.5 -78.5c-75.333 0 -139.5 26.333 -192.5 79s-79.5 116.667 -79.5 192zM253 1203
c0 -35.333 12.167 -64.833 36.5 -88.5s53.833 -35.5 88.5 -35.5s63.667 11.667 87 35s35 53 35 89s-11.833 66.333 -35.5 91s-52.5 37 -86.5 37c-34.667 0 -64.167 -12.333 -88.5 -37s-36.5 -55 -36.5 -91z" />
    <glyph glyph-name="plusminus" unicode="&#xb1;" horiz-adv-x="1040" 
d="M655 947h327v-232h-327v-383h-256v383h-333v232h333v363h256v-363zM953 1h-834v228h834v-228z" />
    <glyph glyph-name="twosuperior" unicode="&#xb2;" horiz-adv-x="823" 
d="M729 667l-622.997 0.00390625v155l310 252c40 33.333 65.833 61.166 77.5 83.499s17.5 47.166 17.5 74.499c0 26 -7.83301 47.833 -23.5 65.5s-39.834 26.5 -72.501 26.5c-36.667 0 -64.334 -10 -83.001 -30s-28 -45.667 -28 -77h-201l-2 6c-4 70.667 23.5 131 82.5 181
s137.833 75 236.5 75c96 0 170.167 -21.667 222.5 -65s78.5 -104.333 78.5 -183c0 -54.667 -17.833 -102.834 -53.5 -144.501s-94.834 -96.834 -177.501 -165.501l-109 -93l2 -6h346v-155z" />
    <glyph glyph-name="threesuperior" unicode="&#xb3;" horiz-adv-x="833" 
d="M401 1139c41.333 0 71.835 8.16797 91.502 24.501s29.5 39.833 29.5 70.5c0 25.333 -9.33301 46.5 -28 63.5s-46.667 25.5 -84 25.5c-34 0 -60.333 -7.33301 -79 -22s-28 -32.334 -28 -53.001h-200l-2 6c-4 67.333 23.333 121.5 82 162.5s132.667 61.5 222 61.5
c100.667 0 180.5 -19.833 239.5 -59.5s88.5 -96.167 88.5 -169.5c0 -36.667 -11.833 -70.167 -35.5 -100.5s-55.834 -53.833 -96.501 -70.5c47.333 -16 83.5 -39.833 108.5 -71.5s37.5 -70.167 37.5 -115.5c0 -74.667 -29.833 -132.667 -89.5 -174s-140.5 -62 -242.5 -62
c-96.667 0 -176.334 20.833 -239.001 62.5s-92 100.167 -88 175.5l2 6h200c0 -28 10.5 -49.833 31.5 -65.5s51.5 -23.5 91.5 -23.5c37.333 0 67.333 8 90 24s34 38.667 34 68c0 33.333 -11.667 59 -35 77s-57 27 -101 27h-112v133h112z" />
    <glyph glyph-name="acute" unicode="&#xb4;" horiz-adv-x="644" 
d="M281 1478h309l2 -6l-276 -260h-234z" />
    <glyph glyph-name="mu" unicode="&#xb5;" horiz-adv-x="1347" 
d="M899 68c-29.333 -29.333 -62.833 -51.499 -100.5 -66.499s-79.167 -22.5 -124.5 -22.5c-34 0 -65.333 3.5 -94 10.5s-54.667 17.833 -78 32.5v-438h-291v1292l-156 30v176h156h291v-620c0 -99.333 14.833 -166.833 44.5 -202.5s74.5 -53.5 134.5 -53.5
c50.667 0 92.667 9.16699 126 27.5s59.333 45.166 78 80.499v562l-156 30v176h447v-877l141 -30v-175h-412z" />
    <glyph glyph-name="paragraph" unicode="&#xb6;" horiz-adv-x="1127" 
d="M473 175l156 30.001v315h-83c-155.333 0 -276.166 43.167 -362.499 129.5s-129.5 199.166 -129.5 338.499c0 138 43.167 250.5 129.5 337.5s207.166 130.5 362.499 130.5h375v-1251l155 -30v-175h-603v175zM1076 1456v-176l-155 -30v206h155z" />
    <glyph glyph-name="periodcentered" unicode="&#xb7;" horiz-adv-x="553" 
d="M437 568h-292v260h292v-260z" />
    <glyph glyph-name="cedilla" unicode="&#xb8;" horiz-adv-x="500" 
d="M333 6l-11.001 -57.002c42.667 -7.33301 78.334 -24.666 107.001 -51.999s43 -67.666 43 -120.999c0 -71.333 -30.5 -128.333 -91.5 -171s-147.5 -64 -259.5 -64l-7 161c34 0 61 6.83301 81 20.5s30 34.5 30 62.5c0 27.333 -10.667 46.5 -32 57.5s-58 18.167 -110 21.5
l31 142h219z" />
    <glyph glyph-name="onesuperior" unicode="&#xb9;" horiz-adv-x="536" 
d="M439 665h-210v630h-127v159l337 23v-812z" />
    <glyph glyph-name="ordmasculine" unicode="&#xba;" horiz-adv-x="914" 
d="M109 1142c0 98.667 31.334 179.167 94.001 241.5s146.667 93.5 252 93.5s189.5 -31.167 252.5 -93.5s94.5 -142.833 94.5 -241.5v-117c0 -99.333 -31.333 -179.833 -94 -241.5s-146.334 -92.5 -251.001 -92.5c-106 0 -190.5 30.833 -253.5 92.5
s-94.5 142.167 -94.5 241.5v117zM284.001 1025c0 -56.667 14.667 -102.167 44 -136.5s72.333 -51.5 129 -51.5c54.667 0 96.667 17.167 126 51.5s44 79.833 44 136.5v117c0 55.333 -14.833 100.333 -44.5 135s-72.167 52 -127.5 52c-56 0 -98.5 -17.333 -127.5 -52
s-43.5 -79.667 -43.5 -135v-117z" />
    <glyph glyph-name="guillemotright" unicode="&#xbb;" horiz-adv-x="973" 
d="M251 950l280 -390v-19l-280 -390h-187l239 399l-239 400h187zM657 950l280 -390v-19l-280 -390h-187l239 399l-239 400h187z" />
    <glyph glyph-name="onequarter" unicode="&#xbc;" horiz-adv-x="1413" 
d="M454 664h-210v630h-127v159l337 23v-812zM382 117l-142 75l711 1138l142 -75zM1338 296h101v-157h-101v-139h-211v139h-410l-13 126l423 534v2h211v-505zM919 296h208v257l-6 2l-13 -20z" />
    <glyph glyph-name="onehalf" unicode="&#xbd;" horiz-adv-x="1457" 
d="M380 117l-142 75l711 1138l142 -75zM439 664h-210v630h-127v159l337 23v-812zM1452 0l-622.997 0.00390625v155l310 252c40 33.333 65.833 61.166 77.5 83.499s17.5 47.166 17.5 74.499c0 26 -7.83301 47.833 -23.5 65.5s-39.834 26.5 -72.501 26.5
c-36.667 0 -64.334 -10 -83.001 -30s-28 -45.667 -28 -77h-201l-2 6c-4 70.667 23.5 131 82.5 181s137.833 75 236.5 75c96 0 170.167 -21.667 222.5 -65s78.5 -104.333 78.5 -183c0 -54.667 -17.833 -102.834 -53.5 -144.501s-94.834 -96.834 -177.501 -165.501l-109 -93
l2 -6h346v-155z" />
    <glyph glyph-name="threequarters" unicode="&#xbe;" horiz-adv-x="1635" 
d="M598 117l-142 75l711 1138l142 -75zM1525 296h101v-157h-101v-139h-211v139h-410l-13 126l423 534v2h211v-505zM1106 296h208v257l-6 2l-13 -20zM392 1140c41.333 0 71.835 8.16797 91.502 24.501s29.5 39.833 29.5 70.5c0 25.333 -9.33301 46.5 -28 63.5
s-46.667 25.5 -84 25.5c-34 0 -60.333 -7.33301 -79 -22s-28 -32.334 -28 -53.001h-200l-2 6c-4 67.333 23.333 121.5 82 162.5s132.667 61.5 222 61.5c100.667 0 180.5 -19.833 239.5 -59.5s88.5 -96.167 88.5 -169.5c0 -36.667 -11.833 -70.167 -35.5 -100.5
s-55.834 -53.833 -96.501 -70.5c47.333 -16 83.5 -39.833 108.5 -71.5s37.5 -70.167 37.5 -115.5c0 -74.667 -29.833 -132.667 -89.5 -174s-140.5 -62 -242.5 -62c-96.667 0 -176.334 20.833 -239.001 62.5s-92 100.167 -88 175.5l2 6h200c0 -28 10.5 -49.833 31.5 -65.5
s51.5 -23.5 91.5 -23.5c37.333 0 67.333 8 90 24s34 38.667 34 68c0 33.333 -11.667 59 -35 77s-57 27 -101 27h-112v133h112z" />
    <glyph glyph-name="questiondown" unicode="&#xbf;" horiz-adv-x="945" 
d="M696 668c-1.33301 -94 -15.499 -162.835 -42.499 -206.502s-80.167 -96.167 -159.5 -157.5c-48 -38.667 -86.167 -80.5 -114.5 -125.5s-42.5 -94.833 -42.5 -149.5c0 -60 16.167 -107.333 48.5 -142s78.833 -52 139.5 -52c48.667 0 90 14.333 124 43
s52 71.334 54 128.001h283l2 -6c1.33301 -127.333 -41.167 -224.833 -127.5 -292.5s-198.166 -101.5 -335.499 -101.5c-150.667 0 -268.334 37.667 -353.001 113s-127 178 -127 308c0 83.333 24.667 161 74 233s111.666 133 186.999 183c40 30 66.5 60.833 79.5 92.5
s19.5 75.834 19.5 132.501h291zM403.001 1082h294v-251h-294v251z" />
    <glyph glyph-name="Agrave" unicode="&#xc0;" 
d="M41 175l104 15l443 1266h299l440 -1266l104 -15v-175h-496v175l101 18l-64 200h-472l-64 -200l101 -18v-175h-496v175zM569 608h334l-164 513h-6zM884 1568h-236l-272 260l2 6h310z" />
    <glyph glyph-name="Aacute" unicode="&#xc1;" 
d="M41 175l104 15l443 1266h299l440 -1266l104 -15v-175h-496v175l101 18l-64 200h-472l-64 -200l101 -18v-175h-496v175zM569 608h334l-164 513h-6zM754 1826h309l2 -6l-276 -260h-234z" />
    <glyph glyph-name="Acircumflex" unicode="&#xc2;" 
d="M41 175l104 15l443 1266h299l440 -1266l104 -15v-175h-496v175l101 18l-64 200h-472l-64 -200l101 -18v-175h-496v175zM569 608h334l-164 513h-6zM1102 1604v-23h-217l-155 146l-154 -146h-212v26l282 240h169z" />
    <glyph glyph-name="Atilde" unicode="&#xc3;" 
d="M41 175l104 15l443 1266h299l440 -1266l104 -15v-175h-496v175l101 18l-64 200h-472l-64 -200l101 -18v-175h-496v175zM569 608h334l-164 513h-6zM1095 1836c0 -64 -19.833 -118.499 -59.5 -163.499s-89.834 -67.5 -150.501 -67.5c-46.667 0 -99.5 14.5 -158.5 43.5
s-105.833 43.5 -140.5 43.5c-24 0 -44.167 -10.833 -60.5 -32.5s-24.5 -47.5 -24.5 -77.5l-155 42c0 62.667 19.833 117.167 59.5 163.5s89.5 69.5 149.5 69.5c37.333 0 87.833 -14.5 151.5 -43.5s112.834 -43.5 147.501 -43.5c23.333 0 43.5 10.667 60.5 32
s25.5 47.666 25.5 78.999z" />
    <glyph glyph-name="Adieresis" unicode="&#xc4;" 
d="M41 175l104 15l443 1266h299l440 -1266l104 -15v-175h-496v175l101 18l-64 200h-472l-64 -200l101 -18v-175h-496v175zM569 608h334l-164 513h-6zM1101 1601h-267v204h267v-204zM601 1601h-267v204h267v-204z" />
    <glyph glyph-name="Aring" unicode="&#xc5;" 
d="M41 175l104 15l443 1266h299l440 -1266l104 -15v-175h-496v175l101 18l-64 200h-472l-64 -200l101 -18v-175h-496v175zM569 608h334l-164 513h-6zM519 1745c0 55.333 20.501 101.833 61.501 139.5s91.5 56.5 151.5 56.5c58.667 0 108.167 -18.833 148.5 -56.5
s60.5 -84.167 60.5 -139.5c0 -56 -20.167 -102 -60.5 -138s-89.833 -54 -148.5 -54c-60.667 0 -111.334 18 -152.001 54s-61 82 -61 138zM634.001 1745c0 -28.667 9.33301 -52.167 28 -70.5s42 -27.5 70 -27.5c27.333 0 49.666 9.16699 66.999 27.5s26 41.833 26 70.5
c0 29.333 -8.66699 53.333 -26 72s-39.666 28 -66.999 28c-28 0 -51.333 -9.5 -70 -28.5s-28 -42.833 -28 -71.5z" />
    <glyph glyph-name="AE" unicode="&#xc6;" horiz-adv-x="2047" 
d="M66 175l136 20l678 1261h1017v-369h-223l-11 141h-362l16 -366h499v-227h-490l17 -408h381l12 141h222v-368h-1052v175l146 28l-6 151h-430l-83 -165l84 -14v-175h-551v175zM730 582h306l-23 554l-5 1z" />
    <glyph glyph-name="Ccedilla" unicode="&#xc7;" horiz-adv-x="1327" 
d="M1249 965l-217 -0.00195312l-30 194c-28.667 28.667 -64.834 51.334 -108.501 68.001s-95.167 25 -154.5 25c-126.667 0 -224.167 -46 -292.5 -138s-102.5 -212 -102.5 -360v-51c0 -148 34 -268.333 102 -361s164 -139 288 -139c57.333 0 109.833 8.33301 157.5 25
s84.5 39.334 110.5 68.001l30 194h217v-288c-58.667 -68 -133.5 -122.167 -224.5 -162.5s-192.833 -60.5 -305.5 -60.5c-195.333 0 -355.333 67.667 -480 203s-187 309 -187 521v49c0 211.333 62 385 186 521s284.333 204 481 204c112.667 0 214.334 -20.5 305.001 -61.5
s165.667 -95.167 225 -162.5v-288zM809 3.99805l-11.001 -57.002c42.667 -7.33301 78.334 -24.666 107.001 -51.999s43 -67.666 43 -120.999c0 -71.333 -30.5 -128.333 -91.5 -171s-147.5 -64 -259.5 -64l-7 161c34 0 61 6.83301 81 20.5s30 34.5 30 62.5
c0 27.333 -10.667 46.5 -32 57.5s-58 18.167 -110 21.5l31 142h219z" />
    <glyph glyph-name="Egrave" unicode="&#xc8;" horiz-adv-x="1308" 
d="M996 640h-493v-416h470l13 174h222v-398h-1152v175l155 30v1045l-155 30v176h155h995v-399h-224l-13 174h-466v-366h493v-225zM795 1568h-236l-272 260l2 6h310z" />
    <glyph glyph-name="Eacute" unicode="&#xc9;" horiz-adv-x="1308" 
d="M996 640h-493v-416h470l13 174h222v-398h-1152v175l155 30v1045l-155 30v176h155h995v-399h-224l-13 174h-466v-366h493v-225zM665 1826h309l2 -6l-276 -260h-234z" />
    <glyph glyph-name="Ecircumflex" unicode="&#xca;" horiz-adv-x="1308" 
d="M996 640h-493v-416h470l13 174h222v-398h-1152v175l155 30v1045l-155 30v176h155h995v-399h-224l-13 174h-466v-366h493v-225zM1013 1604v-23h-217l-155 146l-154 -146h-212v26l282 240h169z" />
    <glyph glyph-name="Edieresis" unicode="&#xcb;" horiz-adv-x="1308" 
d="M996 640h-493v-416h470l13 174h222v-398h-1152v175l155 30v1045l-155 30v176h155h995v-399h-224l-13 174h-466v-366h493v-225zM1012 1601h-267v204h267v-204zM512 1601h-267v204h267v-204z" />
    <glyph glyph-name="Igrave" unicode="&#xcc;" horiz-adv-x="713" 
d="M55 1280v176h603v-176l-156 -30v-1045l156 -30v-175h-603v175l156 30v1045zM494 1567h-236l-272 260l2 6h310z" />
    <glyph glyph-name="Iacute" unicode="&#xcd;" horiz-adv-x="713" 
d="M55 1280v176h603v-176l-156 -30v-1045l156 -30v-175h-603v175l156 30v1045zM363 1825h309l2 -6l-276 -260h-234z" />
    <glyph glyph-name="Icircumflex" unicode="&#xce;" horiz-adv-x="713" 
d="M55 1280v176h603v-176l-156 -30v-1045l156 -30v-175h-603v175l156 30v1045zM712 1603v-23h-217l-155 146l-154 -146h-212v26l282 240h169z" />
    <glyph glyph-name="Idieresis" unicode="&#xcf;" horiz-adv-x="713" 
d="M55 1280v176h603v-176l-156 -30v-1045l156 -30v-175h-603v175l156 30v1045zM711 1600h-267v204h267v-204zM211 1600h-267v204h267v-204z" />
    <glyph glyph-name="Eth" unicode="&#xd0;" horiz-adv-x="1441" 
d="M741 1456c178 0 324.667 -56.833 440 -170.5s173 -259.5 173 -437.5v-241c0 -178.667 -57.667 -324.5 -173 -437.5s-262 -169.5 -440 -169.5h-655v175l155 30v460h-195v155h195v430l-155 30v176h655zM747 665l-214 -0.000976562v-441h193
c104.667 0 186.667 35.333 246 106s89 163 89 277v243c0 112.667 -29.667 204.334 -89 275.001s-141.333 106 -246 106h-193v-411h214v-155z" />
    <glyph glyph-name="Ntilde" unicode="&#xd1;" horiz-adv-x="1582" 
d="M1544 1456v-176l-156 -30v-1250h-291l-588 980l-6 -1v-774l156 -30v-175h-603v175l155 30v1045l-155 30v176h155h292l588 -980l6 1v773l-156 30v176h447h156zM1150 1836c0 -64 -19.833 -118.499 -59.5 -163.499s-89.834 -67.5 -150.501 -67.5
c-46.667 0 -99.5 14.5 -158.5 43.5s-105.833 43.5 -140.5 43.5c-24 0 -44.167 -10.833 -60.5 -32.5s-24.5 -47.5 -24.5 -77.5l-155 42c0 62.667 19.833 117.167 59.5 163.5s89.5 69.5 149.5 69.5c37.333 0 87.833 -14.5 151.5 -43.5s112.834 -43.5 147.501 -43.5
c23.333 0 43.5 10.667 60.5 32s25.5 47.666 25.5 78.999z" />
    <glyph glyph-name="Ograve" unicode="&#xd2;" horiz-adv-x="1448" 
d="M1387 717c0 -213.333 -61 -389.666 -183 -528.999s-281.667 -209 -479 -209c-196.667 0 -355.5 69.667 -476.5 209s-181.5 315.666 -181.5 528.999v22c0 212 60.333 388 181 528s279.334 210 476.001 210c197.333 0 357.166 -70 479.499 -210s183.5 -316 183.5 -528v-22z
M1096 741c0 150.667 -31.332 273 -93.999 367s-155.334 141 -278.001 141s-214.167 -46.667 -274.5 -140s-90.5 -216 -90.5 -368v-24c0 -153.333 30.5 -276.833 91.5 -370.5s152.5 -140.5 274.5 -140.5c123.333 0 216 46.833 278 140.5s93 217.167 93 370.5v24z
M880.001 1567h-236l-272 260l2 6h310z" />
    <glyph glyph-name="Oacute" unicode="&#xd3;" horiz-adv-x="1448" 
d="M1387 717c0 -213.333 -61 -389.666 -183 -528.999s-281.667 -209 -479 -209c-196.667 0 -355.5 69.667 -476.5 209s-181.5 315.666 -181.5 528.999v22c0 212 60.333 388 181 528s279.334 210 476.001 210c197.333 0 357.166 -70 479.499 -210s183.5 -316 183.5 -528v-22z
M1096 741c0 150.667 -31.332 273 -93.999 367s-155.334 141 -278.001 141s-214.167 -46.667 -274.5 -140s-90.5 -216 -90.5 -368v-24c0 -153.333 30.5 -276.833 91.5 -370.5s152.5 -140.5 274.5 -140.5c123.333 0 216 46.833 278 140.5s93 217.167 93 370.5v24z
M750.001 1825h309l2 -6l-276 -260h-234z" />
    <glyph glyph-name="Ocircumflex" unicode="&#xd4;" horiz-adv-x="1448" 
d="M1387 717c0 -213.333 -61 -389.666 -183 -528.999s-281.667 -209 -479 -209c-196.667 0 -355.5 69.667 -476.5 209s-181.5 315.666 -181.5 528.999v22c0 212 60.333 388 181 528s279.334 210 476.001 210c197.333 0 357.166 -70 479.499 -210s183.5 -316 183.5 -528v-22z
M1096 741c0 150.667 -31.332 273 -93.999 367s-155.334 141 -278.001 141s-214.167 -46.667 -274.5 -140s-90.5 -216 -90.5 -368v-24c0 -153.333 30.5 -276.833 91.5 -370.5s152.5 -140.5 274.5 -140.5c123.333 0 216 46.833 278 140.5s93 217.167 93 370.5v24zM1098 1603
v-23h-217l-155 146l-154 -146h-212v26l282 240h169z" />
    <glyph glyph-name="Otilde" unicode="&#xd5;" horiz-adv-x="1448" 
d="M1387 717c0 -213.333 -61 -389.666 -183 -528.999s-281.667 -209 -479 -209c-196.667 0 -355.5 69.667 -476.5 209s-181.5 315.666 -181.5 528.999v22c0 212 60.333 388 181 528s279.334 210 476.001 210c197.333 0 357.166 -70 479.499 -210s183.5 -316 183.5 -528v-22z
M1096 741c0 150.667 -31.332 273 -93.999 367s-155.334 141 -278.001 141s-214.167 -46.667 -274.5 -140s-90.5 -216 -90.5 -368v-24c0 -153.333 30.5 -276.833 91.5 -370.5s152.5 -140.5 274.5 -140.5c123.333 0 216 46.833 278 140.5s93 217.167 93 370.5v24zM1091 1835
c0 -64 -19.833 -118.499 -59.5 -163.499s-89.834 -67.5 -150.501 -67.5c-46.667 0 -99.5 14.5 -158.5 43.5s-105.833 43.5 -140.5 43.5c-24 0 -44.167 -10.833 -60.5 -32.5s-24.5 -47.5 -24.5 -77.5l-155 42c0 62.667 19.833 117.167 59.5 163.5s89.5 69.5 149.5 69.5
c37.333 0 87.833 -14.5 151.5 -43.5s112.834 -43.5 147.501 -43.5c23.333 0 43.5 10.667 60.5 32s25.5 47.666 25.5 78.999z" />
    <glyph glyph-name="Odieresis" unicode="&#xd6;" horiz-adv-x="1448" 
d="M1387 717c0 -213.333 -61 -389.666 -183 -528.999s-281.667 -209 -479 -209c-196.667 0 -355.5 69.667 -476.5 209s-181.5 315.666 -181.5 528.999v22c0 212 60.333 388 181 528s279.334 210 476.001 210c197.333 0 357.166 -70 479.499 -210s183.5 -316 183.5 -528v-22z
M1096 741c0 150.667 -31.332 273 -93.999 367s-155.334 141 -278.001 141s-214.167 -46.667 -274.5 -140s-90.5 -216 -90.5 -368v-24c0 -153.333 30.5 -276.833 91.5 -370.5s152.5 -140.5 274.5 -140.5c123.333 0 216 46.833 278 140.5s93 217.167 93 370.5v24zM1097 1600
h-267v204h267v-204zM597.001 1600h-267v204h267v-204z" />
    <glyph glyph-name="multiply" unicode="&#xd7;" horiz-adv-x="1068" 
d="M61 371l309 315l-309 315l171 164l304 -310l304 310l171 -164l-309 -315l309 -315l-171 -164l-304 310l-304 -310z" />
    <glyph glyph-name="Oslash" unicode="&#xd8;" horiz-adv-x="1400" 
d="M1392 717c0 -213.333 -61.001 -389.669 -183.001 -529.002s-281.667 -209 -479 -209c-62.667 0 -122 7.5 -178 22.5s-107.667 37.167 -155 66.5l-95 -163h-144l139 239c-72 66.667 -127.5 149.334 -166.5 248.001s-58.5 207 -58.5 325v22c0 212 60.333 388 181 528
s279.334 210 476.001 210c55.333 0 108.333 -6.16699 159 -18.5s98.667 -30.166 144 -53.499l66 113h144l-106 -181c81.333 -67.333 144.333 -152.833 189 -256.5s67 -217.5 67 -341.5v-22zM1101 740.997c0 74.667 -8 143.333 -24 206s-39.333 114.667 -70 156l-6 1
l-482 -827c27.333 -23.333 58.5 -41 93.5 -53s74.167 -18 117.5 -18c123.333 0 216 46.833 278 140.5s93 217.167 93 370.5v24zM363.999 716.996c0 -66.667 5.66895 -128.168 17.002 -184.501s28.666 -104.166 51.999 -143.499l6 -1l473 812
c-26 15.333 -54.333 27.333 -85 36s-63.334 13 -98.001 13c-122.667 0 -214.167 -46.667 -274.5 -140s-90.5 -216 -90.5 -368v-24z" />
    <glyph glyph-name="Ugrave" unicode="&#xd9;" horiz-adv-x="1547" 
d="M642 1456l0.000976562 -176l-156 -30v-760c0 -96 25.833 -167.833 77.5 -215.5s122.5 -71.5 212.5 -71.5c91.333 0 163 23.667 215 71s78 119.333 78 216v760l-155 30v176h603v-176l-156 -30v-760c0 -163.333 -53.833 -289.333 -161.5 -378s-248.834 -133 -423.501 -133
c-174 0 -314.5 44.333 -421.5 133s-160.5 214.667 -160.5 378v760l-155 30v176h155h292h156zM931.001 1568h-236l-272 260l2 6h310z" />
    <glyph glyph-name="Uacute" unicode="&#xda;" horiz-adv-x="1547" 
d="M642 1456l0.000976562 -176l-156 -30v-760c0 -96 25.833 -167.833 77.5 -215.5s122.5 -71.5 212.5 -71.5c91.333 0 163 23.667 215 71s78 119.333 78 216v760l-155 30v176h603v-176l-156 -30v-760c0 -163.333 -53.833 -289.333 -161.5 -378s-248.834 -133 -423.501 -133
c-174 0 -314.5 44.333 -421.5 133s-160.5 214.667 -160.5 378v760l-155 30v176h155h292h156zM801.001 1826h309l2 -6l-276 -260h-234z" />
    <glyph glyph-name="Ucircumflex" unicode="&#xdb;" horiz-adv-x="1547" 
d="M642 1456l0.000976562 -176l-156 -30v-760c0 -96 25.833 -167.833 77.5 -215.5s122.5 -71.5 212.5 -71.5c91.333 0 163 23.667 215 71s78 119.333 78 216v760l-155 30v176h603v-176l-156 -30v-760c0 -163.333 -53.833 -289.333 -161.5 -378s-248.834 -133 -423.501 -133
c-174 0 -314.5 44.333 -421.5 133s-160.5 214.667 -160.5 378v760l-155 30v176h155h292h156zM1149 1604v-23h-217l-155 146l-154 -146h-212v26l282 240h169z" />
    <glyph glyph-name="Udieresis" unicode="&#xdc;" horiz-adv-x="1547" 
d="M642 1456l0.000976562 -176l-156 -30v-760c0 -96 25.833 -167.833 77.5 -215.5s122.5 -71.5 212.5 -71.5c91.333 0 163 23.667 215 71s78 119.333 78 216v760l-155 30v176h603v-176l-156 -30v-760c0 -163.333 -53.833 -289.333 -161.5 -378s-248.834 -133 -423.501 -133
c-174 0 -314.5 44.333 -421.5 133s-160.5 214.667 -160.5 378v760l-155 30v176h155h292h156zM1148 1601h-267v204h267v-204zM648.001 1601h-267v204h267v-204z" />
    <glyph glyph-name="Yacute" unicode="&#xdd;" horiz-adv-x="1398" 
d="M587 1280l-119 -17l226 -478h6l226 478l-118 17v176h551v-176l-124 -20l-396 -748v-307l156 -30v-175h-603v175l156 30v322l-389 733l-123 20v176h551v-176zM736 1826h309l2 -6l-276 -260h-234z" />
    <glyph glyph-name="Thorn" unicode="&#xde;" horiz-adv-x="1306" 
d="M67 175l156 30v1045l-156 30v176h448h156v-176l-156 -30v-64h221c169.333 0 301.333 -41.333 396 -124s142 -190.667 142 -324c0 -134 -47.333 -242.333 -142 -325s-226.667 -124 -396 -124h-221v-84l156 -30v-175h-604v175zM515 961v-446.998h221
c82 0 143.5 21.167 184.5 63.5s61.5 95.166 61.5 158.499s-20.5 116.666 -61.5 159.999s-102.5 65 -184.5 65h-221z" />
    <glyph glyph-name="germandbls" unicode="&#xdf;" horiz-adv-x="1321" 
d="M486 0l-446.999 -0.00195312v175l155 30v896c0 150.667 43 267 129 349s203.333 123 352 123c120.667 0 220.5 -31.833 299.5 -95.5s118.5 -154.167 118.5 -271.5c0 -72 -17.667 -140.5 -53 -205.5s-53 -120.167 -53 -165.5c0 -37.333 49.833 -103.166 149.5 -197.499
s149.5 -188.166 149.5 -281.499c0 -126 -38.333 -220.333 -115 -283s-187.334 -94 -332.001 -94c-51.333 0 -101.833 5 -151.5 15s-86.834 23.667 -111.501 41l54 223c24 -14.667 53.833 -27.5 89.5 -38.5s73.5 -16.5 113.5 -16.5c50.667 0 90.334 12.667 119.001 38
s43 59.666 43 102.999c0 47.333 -50 115.833 -150 205.5s-150 181.834 -150 276.501c0 60 18.333 123.333 55 190s55 125 55 175c0 47.333 -13.167 85.5 -39.5 114.5s-62.833 43.5 -109.5 43.5c-50.667 0 -91.667 -22.5 -123 -67.5s-47 -106.5 -47 -184.5v-1097z" />
    <glyph glyph-name="agrave" unicode="&#xe0;" horiz-adv-x="1125" 
d="M752 0c-8 18 -14.998 36.5029 -20.998 55.5029s-10.667 38.167 -14 57.5c-34.667 -40 -76.834 -72.333 -126.501 -97s-106.5 -37 -170.5 -37c-106 0 -190.167 28.833 -252.5 86.5s-93.5 136.167 -93.5 235.5c0 101.333 40.667 179.666 122 234.999s200.666 83 357.999 83
h149v106c0 52 -15 92.333 -45 121s-74.333 43 -133 43c-33.333 0 -63 -3.83301 -89 -11.5s-47 -16.834 -63 -27.501l-19 -116h-220l1 240c53.333 36 114.5 66.333 183.5 91s144.167 37 225.5 37c134 0 242.833 -32.833 326.5 -98.5s125.5 -159.167 125.5 -280.5v-447
c0 -16.667 0.166992 -32.334 0.5 -47.001s1.5 -28.667 3.5 -42l89 -12v-175h-337zM499.002 195.003c44 0 84 9.50098 120 28.501s64 42.833 84 71.5v165h-149c-62 0 -109 -14.5 -141 -43.5s-48 -63.833 -48 -104.5c0 -36.667 11.833 -65.334 35.5 -86.001s56.5 -31 98.5 -31
zM727.002 1244h-236l-272 260l2 6h310z" />
    <glyph glyph-name="aacute" unicode="&#xe1;" horiz-adv-x="1125" 
d="M752 0c-8 18 -14.998 36.5029 -20.998 55.5029s-10.667 38.167 -14 57.5c-34.667 -40 -76.834 -72.333 -126.501 -97s-106.5 -37 -170.5 -37c-106 0 -190.167 28.833 -252.5 86.5s-93.5 136.167 -93.5 235.5c0 101.333 40.667 179.666 122 234.999s200.666 83 357.999 83
h149v106c0 52 -15 92.333 -45 121s-74.333 43 -133 43c-33.333 0 -63 -3.83301 -89 -11.5s-47 -16.834 -63 -27.501l-19 -116h-220l1 240c53.333 36 114.5 66.333 183.5 91s144.167 37 225.5 37c134 0 242.833 -32.833 326.5 -98.5s125.5 -159.167 125.5 -280.5v-447
c0 -16.667 0.166992 -32.334 0.5 -47.001s1.5 -28.667 3.5 -42l89 -12v-175h-337zM499.002 195.003c44 0 84 9.50098 120 28.501s64 42.833 84 71.5v165h-149c-62 0 -109 -14.5 -141 -43.5s-48 -63.833 -48 -104.5c0 -36.667 11.833 -65.334 35.5 -86.001s56.5 -31 98.5 -31
zM597.002 1502h309l2 -6l-276 -260h-234z" />
    <glyph glyph-name="acircumflex" unicode="&#xe2;" horiz-adv-x="1125" 
d="M752 0c-8 18 -14.998 36.5029 -20.998 55.5029s-10.667 38.167 -14 57.5c-34.667 -40 -76.834 -72.333 -126.501 -97s-106.5 -37 -170.5 -37c-106 0 -190.167 28.833 -252.5 86.5s-93.5 136.167 -93.5 235.5c0 101.333 40.667 179.666 122 234.999s200.666 83 357.999 83
h149v106c0 52 -15 92.333 -45 121s-74.333 43 -133 43c-33.333 0 -63 -3.83301 -89 -11.5s-47 -16.834 -63 -27.501l-19 -116h-220l1 240c53.333 36 114.5 66.333 183.5 91s144.167 37 225.5 37c134 0 242.833 -32.833 326.5 -98.5s125.5 -159.167 125.5 -280.5v-447
c0 -16.667 0.166992 -32.334 0.5 -47.001s1.5 -28.667 3.5 -42l89 -12v-175h-337zM499.002 195.003c44 0 84 9.50098 120 28.501s64 42.833 84 71.5v165h-149c-62 0 -109 -14.5 -141 -43.5s-48 -63.833 -48 -104.5c0 -36.667 11.833 -65.334 35.5 -86.001s56.5 -31 98.5 -31
zM945.002 1280v-23h-217l-155 146l-154 -146h-212v26l282 240h169z" />
    <glyph glyph-name="atilde" unicode="&#xe3;" horiz-adv-x="1125" 
d="M752 0c-8 18 -14.998 36.5029 -20.998 55.5029s-10.667 38.167 -14 57.5c-34.667 -40 -76.834 -72.333 -126.501 -97s-106.5 -37 -170.5 -37c-106 0 -190.167 28.833 -252.5 86.5s-93.5 136.167 -93.5 235.5c0 101.333 40.667 179.666 122 234.999s200.666 83 357.999 83
h149v106c0 52 -15 92.333 -45 121s-74.333 43 -133 43c-33.333 0 -63 -3.83301 -89 -11.5s-47 -16.834 -63 -27.501l-19 -116h-220l1 240c53.333 36 114.5 66.333 183.5 91s144.167 37 225.5 37c134 0 242.833 -32.833 326.5 -98.5s125.5 -159.167 125.5 -280.5v-447
c0 -16.667 0.166992 -32.334 0.5 -47.001s1.5 -28.667 3.5 -42l89 -12v-175h-337zM499.002 195.003c44 0 84 9.50098 120 28.501s64 42.833 84 71.5v165h-149c-62 0 -109 -14.5 -141 -43.5s-48 -63.833 -48 -104.5c0 -36.667 11.833 -65.334 35.5 -86.001s56.5 -31 98.5 -31
zM938.002 1512c0 -64 -19.833 -118.499 -59.5 -163.499s-89.834 -67.5 -150.501 -67.5c-46.667 0 -99.5 14.5 -158.5 43.5s-105.833 43.5 -140.5 43.5c-24 0 -44.167 -10.833 -60.5 -32.5s-24.5 -47.5 -24.5 -77.5l-155 42c0 62.667 19.833 117.167 59.5 163.5
s89.5 69.5 149.5 69.5c37.333 0 87.833 -14.5 151.5 -43.5s112.834 -43.5 147.501 -43.5c23.333 0 43.5 10.667 60.5 32s25.5 47.666 25.5 78.999z" />
    <glyph glyph-name="adieresis" unicode="&#xe4;" horiz-adv-x="1125" 
d="M752 0c-8 18 -14.998 36.5029 -20.998 55.5029s-10.667 38.167 -14 57.5c-34.667 -40 -76.834 -72.333 -126.501 -97s-106.5 -37 -170.5 -37c-106 0 -190.167 28.833 -252.5 86.5s-93.5 136.167 -93.5 235.5c0 101.333 40.667 179.666 122 234.999s200.666 83 357.999 83
h149v106c0 52 -15 92.333 -45 121s-74.333 43 -133 43c-33.333 0 -63 -3.83301 -89 -11.5s-47 -16.834 -63 -27.501l-19 -116h-220l1 240c53.333 36 114.5 66.333 183.5 91s144.167 37 225.5 37c134 0 242.833 -32.833 326.5 -98.5s125.5 -159.167 125.5 -280.5v-447
c0 -16.667 0.166992 -32.334 0.5 -47.001s1.5 -28.667 3.5 -42l89 -12v-175h-337zM499.002 195.003c44 0 84 9.50098 120 28.501s64 42.833 84 71.5v165h-149c-62 0 -109 -14.5 -141 -43.5s-48 -63.833 -48 -104.5c0 -36.667 11.833 -65.334 35.5 -86.001s56.5 -31 98.5 -31
zM944.002 1277h-267v204h267v-204zM444.002 1277h-267v204h267v-204z" />
    <glyph glyph-name="aring" unicode="&#xe5;" horiz-adv-x="1125" 
d="M752 0c-8 18 -14.998 36.5029 -20.998 55.5029s-10.667 38.167 -14 57.5c-34.667 -40 -76.834 -72.333 -126.501 -97s-106.5 -37 -170.5 -37c-106 0 -190.167 28.833 -252.5 86.5s-93.5 136.167 -93.5 235.5c0 101.333 40.667 179.666 122 234.999s200.666 83 357.999 83
h149v106c0 52 -15 92.333 -45 121s-74.333 43 -133 43c-33.333 0 -63 -3.83301 -89 -11.5s-47 -16.834 -63 -27.501l-19 -116h-220l1 240c53.333 36 114.5 66.333 183.5 91s144.167 37 225.5 37c134 0 242.833 -32.833 326.5 -98.5s125.5 -159.167 125.5 -280.5v-447
c0 -16.667 0.166992 -32.334 0.5 -47.001s1.5 -28.667 3.5 -42l89 -12v-175h-337zM499.002 195.003c44 0 84 9.50098 120 28.501s64 42.833 84 71.5v165h-149c-62 0 -109 -14.5 -141 -43.5s-48 -63.833 -48 -104.5c0 -36.667 11.833 -65.334 35.5 -86.001s56.5 -31 98.5 -31
zM362.002 1421c0 55.333 20.501 101.833 61.501 139.5s91.5 56.5 151.5 56.5c58.667 0 108.167 -18.833 148.5 -56.5s60.5 -84.167 60.5 -139.5c0 -56 -20.167 -102 -60.5 -138s-89.833 -54 -148.5 -54c-60.667 0 -111.334 18 -152.001 54s-61 82 -61 138zM477.003 1421
c0 -28.667 9.33301 -52.167 28 -70.5s42 -27.5 70 -27.5c27.333 0 49.666 9.16699 66.999 27.5s26 41.833 26 70.5c0 29.333 -8.66699 53.333 -26 72s-39.666 28 -66.999 28c-28 0 -51.333 -9.5 -70 -28.5s-28 -42.833 -28 -71.5z" />
    <glyph glyph-name="ae" unicode="&#xe6;" horiz-adv-x="1784" 
d="M1273 -21c-86 0 -162.5 13.501 -229.5 40.501s-122.833 65.833 -167.5 116.5c-40 -45.333 -93.833 -82.833 -161.5 -112.5s-147.834 -44.5 -240.501 -44.5c-128 0 -226.833 30.167 -296.5 90.5s-104.5 142.833 -104.5 247.5c0 106 42.333 187.667 127 245s208 86 370 86
h181v59c0 52.667 -13.667 94.167 -41 124.5s-65.666 45.5 -114.999 45.5c-54 0 -96.333 -12.5 -127 -37.5s-46 -56.167 -46 -93.5l-283 18l-2 6c-4 96 36.5 175.333 121.5 238s198.167 94 339.5 94c68 0 130 -9.16699 186 -27.5s103.667 -44.833 143 -79.5
c40.667 34.667 88.167 61.167 142.5 79.5s114.5 27.5 180.5 27.5c141.333 0 252.333 -44 333 -132s121 -207.333 121 -358v-158h-650l-2 -6c2.66699 -74.667 24.667 -134.167 66 -178.5s103.333 -66.5 186 -66.5c61.333 0 112.666 6.66699 153.999 20s88 33.666 140 60.999
l77 -184c-41.333 -32 -97.666 -60.167 -168.999 -84.5s-149 -36.5 -233 -36.5zM530 185.001c38.667 0 78.998 10.167 120.998 30.5s75.333 44.5 100 72.5v176h-179c-65.333 0 -116.166 -14.667 -152.499 -44s-54.5 -65 -54.5 -107c0 -39.333 13.833 -70.5 41.5 -93.5
s68.834 -34.5 123.501 -34.5zM1250 877.001c-63.333 0 -110.668 -20.5 -142.001 -61.5s-49.333 -96.5 -54 -166.5l2 -5h362v28c0 62.667 -14.167 112.5 -42.5 149.5s-70.166 55.5 -125.499 55.5z" />
    <glyph glyph-name="ccedilla" unicode="&#xe7;" horiz-adv-x="1079" 
d="M571 203c52 0 93.666 15.167 124.999 45.5s47 70.833 47 121.5h264l3 -6c2.66699 -109.333 -38.333 -200.833 -123 -274.5s-190 -110.5 -316 -110.5c-161.333 0 -285.666 51 -372.999 153s-131 233 -131 393v30c0 159.333 44.833 290.333 134.5 393s217.5 154 383.5 154
c87.333 0 165.666 -13 234.999 -39s127 -62.667 173 -110l4 -289h-237l-48 169c-14.667 12.667 -32.667 23.167 -54 31.5s-45.666 12.5 -72.999 12.5c-82.667 0 -141 -30 -175 -90s-51 -137.333 -51 -232v-30c0 -96.667 15.667 -174.5 47 -233.5s86.333 -88.5 165 -88.5z
M655.999 4l-11.001 -57.002c42.667 -7.33301 78.334 -24.666 107.001 -51.999s43 -67.666 43 -120.999c0 -71.333 -30.5 -128.333 -91.5 -171s-147.5 -64 -259.5 -64l-7 161c34 0 61 6.83301 81 20.5s30 34.5 30 62.5c0 27.333 -10.667 46.5 -32 57.5s-58 18.167 -110 21.5
l31 142h219z" />
    <glyph glyph-name="egrave" unicode="&#xe8;" horiz-adv-x="1091" 
d="M581 -21c-156 0 -280.668 50 -374.001 150s-140 227 -140 381v40c0 160.667 44.167 293 132.5 397s206.833 155.667 355.5 155c146 0 259.333 -44 340 -132s121 -207 121 -357v-159h-646l-2 -6c5.33301 -71.333 29.166 -130 71.499 -176s99.833 -69 172.5 -69
c64.667 0 118.334 6.5 161.001 19.5s89.334 33.5 140.001 61.5l79 -180c-44.667 -35.333 -102.5 -65 -173.5 -89s-150.167 -36 -237.5 -36zM554.999 877c-54 0 -96.668 -20.668 -128.001 -62.001s-50.666 -95.666 -57.999 -162.999l3 -5h358v26
c0 62 -14.5 111.5 -43.5 148.5s-72.833 55.5 -131.5 55.5zM692.998 1245h-236l-272 260l2 6h310z" />
    <glyph glyph-name="eacute" unicode="&#xe9;" horiz-adv-x="1091" 
d="M581 -21c-156 0 -280.668 50 -374.001 150s-140 227 -140 381v40c0 160.667 44.167 293 132.5 397s206.833 155.667 355.5 155c146 0 259.333 -44 340 -132s121 -207 121 -357v-159h-646l-2 -6c5.33301 -71.333 29.166 -130 71.499 -176s99.833 -69 172.5 -69
c64.667 0 118.334 6.5 161.001 19.5s89.334 33.5 140.001 61.5l79 -180c-44.667 -35.333 -102.5 -65 -173.5 -89s-150.167 -36 -237.5 -36zM554.999 877c-54 0 -96.668 -20.668 -128.001 -62.001s-50.666 -95.666 -57.999 -162.999l3 -5h358v26
c0 62 -14.5 111.5 -43.5 148.5s-72.833 55.5 -131.5 55.5zM562.998 1503h309l2 -6l-276 -260h-234z" />
    <glyph glyph-name="ecircumflex" unicode="&#xea;" horiz-adv-x="1091" 
d="M581 -21c-156 0 -280.668 50 -374.001 150s-140 227 -140 381v40c0 160.667 44.167 293 132.5 397s206.833 155.667 355.5 155c146 0 259.333 -44 340 -132s121 -207 121 -357v-159h-646l-2 -6c5.33301 -71.333 29.166 -130 71.499 -176s99.833 -69 172.5 -69
c64.667 0 118.334 6.5 161.001 19.5s89.334 33.5 140.001 61.5l79 -180c-44.667 -35.333 -102.5 -65 -173.5 -89s-150.167 -36 -237.5 -36zM554.999 877c-54 0 -96.668 -20.668 -128.001 -62.001s-50.666 -95.666 -57.999 -162.999l3 -5h358v26
c0 62 -14.5 111.5 -43.5 148.5s-72.833 55.5 -131.5 55.5zM910.998 1281v-23h-217l-155 146l-154 -146h-212v26l282 240h169z" />
    <glyph glyph-name="edieresis" unicode="&#xeb;" horiz-adv-x="1091" 
d="M581 -21c-156 0 -280.668 50 -374.001 150s-140 227 -140 381v40c0 160.667 44.167 293 132.5 397s206.833 155.667 355.5 155c146 0 259.333 -44 340 -132s121 -207 121 -357v-159h-646l-2 -6c5.33301 -71.333 29.166 -130 71.499 -176s99.833 -69 172.5 -69
c64.667 0 118.334 6.5 161.001 19.5s89.334 33.5 140.001 61.5l79 -180c-44.667 -35.333 -102.5 -65 -173.5 -89s-150.167 -36 -237.5 -36zM554.999 877c-54 0 -96.668 -20.668 -128.001 -62.001s-50.666 -95.666 -57.999 -162.999l3 -5h358v26
c0 62 -14.5 111.5 -43.5 148.5s-72.833 55.5 -131.5 55.5zM910.998 1278h-267v204h267v-204zM410.998 1278h-267v204h267v-204z" />
    <glyph glyph-name="igrave" unicode="&#xec;" horiz-adv-x="686" 
d="M70 906v176h448v-877l140 -30v-175h-573v175l141 30v671zM515 1246h-236l-272 260l2 6h310z" />
    <glyph glyph-name="iacute" unicode="&#xed;" horiz-adv-x="686" 
d="M70 906v176h448v-877l140 -30v-175h-573v175l141 30v671zM384 1504h309l2 -6l-276 -260h-234z" />
    <glyph glyph-name="icircumflex" unicode="&#xee;" horiz-adv-x="686" 
d="M70 906v176h448v-877l140 -30v-175h-573v175l141 30v671zM733 1282v-23h-217l-155 146l-154 -146h-212v26l282 240h169z" />
    <glyph glyph-name="idieresis" unicode="&#xef;" horiz-adv-x="686" 
d="M70 906v176h448v-877l140 -30v-175h-573v175l141 30v671zM732 1279h-267v204h267v-204zM232 1279h-267v204h267v-204z" />
    <glyph glyph-name="eth" unicode="&#xf0;" horiz-adv-x="1217" 
d="M918 1282c73.333 -78 130 -169.5 170 -274.5s60 -220.5 60 -346.5v-76c0 -178 -52.5 -323.5 -157.5 -436.5s-235.833 -169.5 -392.5 -169.5c-158.667 0 -288 46.833 -388 140.5s-150 209.834 -150 348.501c0 150.667 44.667 271.5 134 362.5s211 136.5 365 136.5
c50 0 97.667 -7.33301 143 -22s84.666 -35 117.999 -61l4 4c-13.333 50 -33 96.667 -59 140s-56.667 82.666 -92 117.999l-231 -128l-78 113l190 105c-23.333 12.667 -47.166 24.167 -71.499 34.5s-48.833 19.833 -73.5 28.5l92 218c56.667 -14 111 -32.667 163 -56
s100.667 -51.333 146 -84l208 116l77 -113zM856 663c-22.667 26.667 -55.5 48.667 -98.5 66s-93.833 26 -152.5 26c-80.667 0 -143.167 -26.333 -187.5 -79s-66.5 -122 -66.5 -208c0 -74 22.833 -136.667 68.5 -188s106.5 -77 182.5 -77c78 0 139.833 35.833 185.5 107.5
s68.5 163.167 68.5 274.5v78z" />
    <glyph glyph-name="ntilde" unicode="&#xf1;" horiz-adv-x="1300" 
d="M47 175l140.002 30.002v671l-155 30v176h427l13 -155c36 55.333 80.333 98.333 133 129s111.667 46 177 46c109.333 0 194.666 -34.333 255.999 -103s92 -176.334 92 -323.001v-471l140 -30v-175h-558v175l125 30v470c0 72.667 -14.667 124.167 -44 154.5
s-73.666 45.5 -132.999 45.5c-38.667 0 -73.334 -7.83301 -104.001 -23.5s-56.334 -37.834 -77.001 -66.501v-580l118 -30v-175h-550v175zM985.002 1512c0 -64 -19.833 -118.499 -59.5 -163.499s-89.834 -67.5 -150.501 -67.5c-46.667 0 -99.5 14.5 -158.5 43.5
s-105.833 43.5 -140.5 43.5c-24 0 -44.167 -10.833 -60.5 -32.5s-24.5 -47.5 -24.5 -77.5l-155 42c0 62.667 19.833 117.167 59.5 163.5s89.5 69.5 149.5 69.5c37.333 0 87.833 -14.5 151.5 -43.5s112.834 -43.5 147.501 -43.5c23.333 0 43.5 10.667 60.5 32
s25.5 47.666 25.5 78.999z" />
    <glyph glyph-name="ograve" unicode="&#xf2;" horiz-adv-x="1148" 
d="M63 551c0 161.333 45.168 293.5 135.501 396.5s215.166 154.5 374.499 154.5c160 0 285.167 -51.333 375.5 -154s135.5 -235 135.5 -397v-21c0 -162.667 -45.167 -295.167 -135.5 -397.5s-214.833 -153.5 -373.5 -153.5c-160.667 0 -286.167 51.167 -376.5 153.5
s-135.5 234.833 -135.5 397.5v21zM355.001 530c0 -98.667 17.333 -177.833 52 -237.5s90.667 -89.5 168 -89.5c75.333 0 130.5 30 165.5 90s52.5 139 52.5 237v21c0 96 -17.667 174.333 -53 235s-91 91 -167 91s-131.333 -30.333 -166 -91s-52 -139 -52 -235v-21z
M727.001 1246h-236l-272 260l2 6h310z" />
    <glyph glyph-name="oacute" unicode="&#xf3;" horiz-adv-x="1148" 
d="M63 551c0 161.333 45.168 293.5 135.501 396.5s215.166 154.5 374.499 154.5c160 0 285.167 -51.333 375.5 -154s135.5 -235 135.5 -397v-21c0 -162.667 -45.167 -295.167 -135.5 -397.5s-214.833 -153.5 -373.5 -153.5c-160.667 0 -286.167 51.167 -376.5 153.5
s-135.5 234.833 -135.5 397.5v21zM355.001 530c0 -98.667 17.333 -177.833 52 -237.5s90.667 -89.5 168 -89.5c75.333 0 130.5 30 165.5 90s52.5 139 52.5 237v21c0 96 -17.667 174.333 -53 235s-91 91 -167 91s-131.333 -30.333 -166 -91s-52 -139 -52 -235v-21z
M597.001 1504h309l2 -6l-276 -260h-234z" />
    <glyph glyph-name="ocircumflex" unicode="&#xf4;" horiz-adv-x="1148" 
d="M63 551c0 161.333 45.168 293.5 135.501 396.5s215.166 154.5 374.499 154.5c160 0 285.167 -51.333 375.5 -154s135.5 -235 135.5 -397v-21c0 -162.667 -45.167 -295.167 -135.5 -397.5s-214.833 -153.5 -373.5 -153.5c-160.667 0 -286.167 51.167 -376.5 153.5
s-135.5 234.833 -135.5 397.5v21zM355.001 530c0 -98.667 17.333 -177.833 52 -237.5s90.667 -89.5 168 -89.5c75.333 0 130.5 30 165.5 90s52.5 139 52.5 237v21c0 96 -17.667 174.333 -53 235s-91 91 -167 91s-131.333 -30.333 -166 -91s-52 -139 -52 -235v-21z
M945.001 1282v-23h-217l-155 146l-154 -146h-212v26l282 240h169z" />
    <glyph glyph-name="otilde" unicode="&#xf5;" horiz-adv-x="1148" 
d="M63 551c0 161.333 45.168 293.5 135.501 396.5s215.166 154.5 374.499 154.5c160 0 285.167 -51.333 375.5 -154s135.5 -235 135.5 -397v-21c0 -162.667 -45.167 -295.167 -135.5 -397.5s-214.833 -153.5 -373.5 -153.5c-160.667 0 -286.167 51.167 -376.5 153.5
s-135.5 234.833 -135.5 397.5v21zM355.001 530c0 -98.667 17.333 -177.833 52 -237.5s90.667 -89.5 168 -89.5c75.333 0 130.5 30 165.5 90s52.5 139 52.5 237v21c0 96 -17.667 174.333 -53 235s-91 91 -167 91s-131.333 -30.333 -166 -91s-52 -139 -52 -235v-21z
M938.001 1514c0 -64 -19.833 -118.499 -59.5 -163.499s-89.834 -67.5 -150.501 -67.5c-46.667 0 -99.5 14.5 -158.5 43.5s-105.833 43.5 -140.5 43.5c-24 0 -44.167 -10.833 -60.5 -32.5s-24.5 -47.5 -24.5 -77.5l-155 42c0 62.667 19.833 117.167 59.5 163.5
s89.5 69.5 149.5 69.5c37.333 0 87.833 -14.5 151.5 -43.5s112.834 -43.5 147.501 -43.5c23.333 0 43.5 10.667 60.5 32s25.5 47.666 25.5 78.999z" />
    <glyph glyph-name="odieresis" unicode="&#xf6;" horiz-adv-x="1148" 
d="M63 551c0 161.333 45.168 293.5 135.501 396.5s215.166 154.5 374.499 154.5c160 0 285.167 -51.333 375.5 -154s135.5 -235 135.5 -397v-21c0 -162.667 -45.167 -295.167 -135.5 -397.5s-214.833 -153.5 -373.5 -153.5c-160.667 0 -286.167 51.167 -376.5 153.5
s-135.5 234.833 -135.5 397.5v21zM355.001 530c0 -98.667 17.333 -177.833 52 -237.5s90.667 -89.5 168 -89.5c75.333 0 130.5 30 165.5 90s52.5 139 52.5 237v21c0 96 -17.667 174.333 -53 235s-91 91 -167 91s-131.333 -30.333 -166 -91s-52 -139 -52 -235v-21z
M944.001 1279h-267v204h267v-204zM444.001 1279h-267v204h267v-204z" />
    <glyph glyph-name="divide" unicode="&#xf7;" horiz-adv-x="1133" 
d="M1084 573h-1028v227h1028v-227zM717 973h-292v233h292v-233zM717 164h-292v233h292v-233z" />
    <glyph glyph-name="oslash" unicode="&#xf8;" horiz-adv-x="1178" 
d="M76 551c0 161.333 45.1699 293.498 135.503 396.498s215.166 154.5 374.499 154.5c30 0 59 -2.16699 87 -6.5s55.667 -10.166 83 -17.499l67 137h162l-98 -201c67.333 -48 119.166 -112.167 155.499 -192.5s54.5 -170.5 54.5 -270.5v-21
c0 -162.667 -45.167 -295.167 -135.5 -397.5s-214.833 -153.5 -373.5 -153.5c-35.333 0 -69 2.66699 -101 8s-62.333 13 -91 23l-74 -151h-162l108 221c-62.667 48 -110.334 110.833 -143.001 188.5s-49 164.834 -49 261.501v21zM806.003 550.998
c0 41.333 -3.33203 79.833 -9.99902 115.5s-16.334 65.5 -29.001 89.5h-6l-262 -535c12 -6 25.5 -10.5 40.5 -13.5s31.167 -4.5 48.5 -4.5c75.333 0 130.5 30 165.5 90s52.5 139 52.5 237v21zM368.004 529.998c0 -36.667 2.16699 -70.332 6.5 -100.999
s11.166 -56.334 20.499 -77.001l5 -1l253 516c-10.667 2.66699 -21.667 5 -33 7s-22.666 3 -33.999 3c-76 0 -131.333 -30.333 -166 -91s-52 -139 -52 -235v-21z" />
    <glyph glyph-name="ugrave" unicode="&#xf9;" horiz-adv-x="1278" 
d="M820 137c-34.667 -50.667 -77.5 -89.667 -128.5 -117s-109.167 -41 -174.5 -41c-114 0 -203.333 36.5 -268 109.5s-97 186.5 -97 340.5v447l-119 30v176h119h292v-655c0 -78.667 13.167 -135.167 39.5 -169.5s65.5 -51.5 117.5 -51.5c46 0 85.833 7.5 119.5 22.5
s61.167 36.5 82.5 64.5v583l-128 30v176h128h292v-877l131 -30v-175h-387zM760 1246h-236l-272 260l2 6h310z" />
    <glyph glyph-name="uacute" unicode="&#xfa;" horiz-adv-x="1278" 
d="M820 137c-34.667 -50.667 -77.5 -89.667 -128.5 -117s-109.167 -41 -174.5 -41c-114 0 -203.333 36.5 -268 109.5s-97 186.5 -97 340.5v447l-119 30v176h119h292v-655c0 -78.667 13.167 -135.167 39.5 -169.5s65.5 -51.5 117.5 -51.5c46 0 85.833 7.5 119.5 22.5
s61.167 36.5 82.5 64.5v583l-128 30v176h128h292v-877l131 -30v-175h-387zM630 1504h309l2 -6l-276 -260h-234z" />
    <glyph glyph-name="ucircumflex" unicode="&#xfb;" horiz-adv-x="1278" 
d="M820 137c-34.667 -50.667 -77.5 -89.667 -128.5 -117s-109.167 -41 -174.5 -41c-114 0 -203.333 36.5 -268 109.5s-97 186.5 -97 340.5v447l-119 30v176h119h292v-655c0 -78.667 13.167 -135.167 39.5 -169.5s65.5 -51.5 117.5 -51.5c46 0 85.833 7.5 119.5 22.5
s61.167 36.5 82.5 64.5v583l-128 30v176h128h292v-877l131 -30v-175h-387zM978 1282v-23h-217l-155 146l-154 -146h-212v26l282 240h169z" />
    <glyph glyph-name="udieresis" unicode="&#xfc;" horiz-adv-x="1278" 
d="M820 137c-34.667 -50.667 -77.5 -89.667 -128.5 -117s-109.167 -41 -174.5 -41c-114 0 -203.333 36.5 -268 109.5s-97 186.5 -97 340.5v447l-119 30v176h119h292v-655c0 -78.667 13.167 -135.167 39.5 -169.5s65.5 -51.5 117.5 -51.5c46 0 85.833 7.5 119.5 22.5
s61.167 36.5 82.5 64.5v583l-128 30v176h128h292v-877l131 -30v-175h-387zM977 1279h-267v204h267v-204zM477 1279h-267v204h267v-204z" />
    <glyph glyph-name="yacute" unicode="&#xfd;" horiz-adv-x="1212" 
d="M1183 906l-101.001 -15l-398 -1053c-31.333 -78 -73.166 -143.333 -125.499 -196s-131.166 -79 -236.499 -79c-24.667 0 -47.834 2 -69.501 6s-47.167 9.66699 -76.5 17l34 213l29 -4c10 -1.33301 18.667 -2 26 -2c48.667 0 86 11.833 112 35.5s46 53.167 60 88.5l33 82
l-343 891l-101 16v176h530v-176l-121 -20l148 -432l15 -78l6 -1l171 511l-122 20v176h530v-176zM612.999 1489h309l2 -6l-276 -260h-234z" />
    <glyph glyph-name="thorn" unicode="&#xfe;" horiz-adv-x="1246" 
d="M34 1384l0.000976562 176.001h447v-591c31.333 42.667 68.666 75.5 111.999 98.5s93.333 34.5 150 34.5c134 0 238 -52.333 312 -157s111 -242.334 111 -413.001v-21c0 -160 -37 -288.667 -111 -386s-177.333 -146 -310 -146c-56.667 0 -107 10.5 -151 31.5
s-81.667 51.833 -113 92.5v-313l141 -30v-176h-573v176l141 30v1564zM874.001 532.001c0 102 -17 184.667 -51 248s-86 95 -156 95c-44 0 -81.5 -9 -112.5 -27s-55.5 -43.667 -73.5 -77v-474c18 -30.667 42.5 -54 73.5 -70s69.167 -24 114.5 -24
c70.667 0 122.5 27.667 155.5 83s49.5 130.333 49.5 225v21z" />
    <glyph glyph-name="ydieresis" unicode="&#xff;" horiz-adv-x="1212" 
d="M1183 906l-101.001 -15l-398 -1053c-31.333 -78 -73.166 -143.333 -125.499 -196s-131.166 -79 -236.499 -79c-24.667 0 -47.834 2 -69.501 6s-47.167 9.66699 -76.5 17l34 213l29 -4c10 -1.33301 18.667 -2 26 -2c48.667 0 86 11.833 112 35.5s46 53.167 60 88.5l33 82
l-343 891l-101 16v176h530v-176l-121 -20l148 -432l15 -78l6 -1l171 511l-122 20v176h530v-176zM959.999 1264h-267v204h267v-204zM459.999 1264h-267v204h267v-204z" />
    <glyph glyph-name="Amacron" unicode="&#x100;" 
d="M41 175l104 15l443 1266h299l440 -1266l104 -15v-175h-496v175l101 18l-64 200h-472l-64 -200l101 -18v-175h-496v175zM569 608h334l-164 513h-6zM1084 1617h-731v165h731v-165z" />
    <glyph glyph-name="amacron" unicode="&#x101;" horiz-adv-x="1125" 
d="M752 0c-8 18 -14.998 36.5029 -20.998 55.5029s-10.667 38.167 -14 57.5c-34.667 -40 -76.834 -72.333 -126.501 -97s-106.5 -37 -170.5 -37c-106 0 -190.167 28.833 -252.5 86.5s-93.5 136.167 -93.5 235.5c0 101.333 40.667 179.666 122 234.999s200.666 83 357.999 83
h149v106c0 52 -15 92.333 -45 121s-74.333 43 -133 43c-33.333 0 -63 -3.83301 -89 -11.5s-47 -16.834 -63 -27.501l-19 -116h-220l1 240c53.333 36 114.5 66.333 183.5 91s144.167 37 225.5 37c134 0 242.833 -32.833 326.5 -98.5s125.5 -159.167 125.5 -280.5v-447
c0 -16.667 0.166992 -32.334 0.5 -47.001s1.5 -28.667 3.5 -42l89 -12v-175h-337zM499.002 195.003c44 0 84 9.50098 120 28.501s64 42.833 84 71.5v165h-149c-62 0 -109 -14.5 -141 -43.5s-48 -63.833 -48 -104.5c0 -36.667 11.833 -65.334 35.5 -86.001s56.5 -31 98.5 -31
zM927.002 1293h-731v165h731v-165z" />
    <glyph glyph-name="Abreve" unicode="&#x102;" 
d="M41 175l104 15l443 1266h299l440 -1266l104 -15v-175h-496v175l101 18l-64 200h-472l-64 -200l101 -18v-175h-496v175zM569 608h334l-164 513h-6zM1062 1883l1.99805 -6c3.33301 -84.667 -26.167 -153.834 -88.5 -207.501s-146.166 -80.5 -251.499 -80.5
c-106 0 -190.333 26.833 -253 80.5s-92 122.834 -88 207.501l2 6h198c0 -38.667 11.333 -70.667 34 -96s58.334 -38 107.001 -38c47.333 0 82.333 12.5 105 37.5s34 57.167 34 96.5h199z" />
    <glyph glyph-name="abreve" unicode="&#x103;" horiz-adv-x="1125" 
d="M752 0c-8 18 -14.998 36.5029 -20.998 55.5029s-10.667 38.167 -14 57.5c-34.667 -40 -76.834 -72.333 -126.501 -97s-106.5 -37 -170.5 -37c-106 0 -190.167 28.833 -252.5 86.5s-93.5 136.167 -93.5 235.5c0 101.333 40.667 179.666 122 234.999s200.666 83 357.999 83
h149v106c0 52 -15 92.333 -45 121s-74.333 43 -133 43c-33.333 0 -63 -3.83301 -89 -11.5s-47 -16.834 -63 -27.501l-19 -116h-220l1 240c53.333 36 114.5 66.333 183.5 91s144.167 37 225.5 37c134 0 242.833 -32.833 326.5 -98.5s125.5 -159.167 125.5 -280.5v-447
c0 -16.667 0.166992 -32.334 0.5 -47.001s1.5 -28.667 3.5 -42l89 -12v-175h-337zM499.002 195.003c44 0 84 9.50098 120 28.501s64 42.833 84 71.5v165h-149c-62 0 -109 -14.5 -141 -43.5s-48 -63.833 -48 -104.5c0 -36.667 11.833 -65.334 35.5 -86.001s56.5 -31 98.5 -31
zM905.002 1559l1.99805 -6c3.33301 -84.667 -26.167 -153.834 -88.5 -207.501s-146.166 -80.5 -251.499 -80.5c-106 0 -190.333 26.833 -253 80.5s-92 122.834 -88 207.501l2 6h198c0 -38.667 11.333 -70.667 34 -96s58.334 -38 107.001 -38c47.333 0 82.333 12.5 105 37.5
s34 57.167 34 96.5h199z" />
    <glyph glyph-name="Aogonek" unicode="&#x104;" 
d="M41 175l104 15l443 1266h299l440 -1266l104 -15v-175h-496v175l101 18l-64 200h-472l-64 -200l101 -18v-175h-496v175zM569 608h334l-164 513h-6zM1432 0c-35.333 -35.333 -61.332 -65.3311 -77.999 -89.998s-25 -53.334 -25 -86.001c0 -18 5.5 -34.167 16.5 -48.5
s33.833 -21.5 68.5 -21.5c18.667 0 35.167 2 49.5 6s29.166 8.66699 44.499 14l35 -154c-24 -12.667 -50.667 -23.167 -80 -31.5s-64.333 -12.5 -105 -12.5c-72.667 0 -132.167 18.833 -178.5 56.5s-69.5 90.167 -69.5 157.5c0 51.333 15.333 100.166 46 146.499
s78.667 87.5 144 123.5z" />
    <glyph glyph-name="aogonek" unicode="&#x105;" horiz-adv-x="1125" 
d="M752 0c-8 18 -14.998 36.5029 -20.998 55.5029s-10.667 38.167 -14 57.5c-34.667 -40 -76.834 -72.333 -126.501 -97s-106.5 -37 -170.5 -37c-106 0 -190.167 28.833 -252.5 86.5s-93.5 136.167 -93.5 235.5c0 101.333 40.667 179.666 122 234.999s200.666 83 357.999 83
h149v106c0 52 -15 92.333 -45 121s-74.333 43 -133 43c-33.333 0 -63 -3.83301 -89 -11.5s-47 -16.834 -63 -27.501l-19 -116h-220l1 240c53.333 36 114.5 66.333 183.5 91s144.167 37 225.5 37c134 0 242.833 -32.833 326.5 -98.5s125.5 -159.167 125.5 -280.5v-447
c0 -16.667 0.166992 -32.334 0.5 -47.001s1.5 -28.667 3.5 -42l89 -12v-175h-337zM499.002 195.003c44 0 84 9.50098 120 28.501s64 42.833 84 71.5v165h-149c-62 0 -109 -14.5 -141 -43.5s-48 -63.833 -48 -104.5c0 -36.667 11.833 -65.334 35.5 -86.001s56.5 -31 98.5 -31
zM1089 0.00390625c-35.333 -35.333 -61.332 -65.3311 -77.999 -89.998s-25 -53.334 -25 -86.001c0 -18 5.5 -34.167 16.5 -48.5s33.833 -21.5 68.5 -21.5c18.667 0 35.167 2 49.5 6s29.166 8.66699 44.499 14l35 -154c-24 -12.667 -50.667 -23.167 -80 -31.5
s-64.333 -12.5 -105 -12.5c-72.667 0 -132.167 18.833 -178.5 56.5s-69.5 90.167 -69.5 157.5c0 51.333 15.333 100.166 46 146.499s78.667 87.5 144 123.5z" />
    <glyph glyph-name="Cacute" unicode="&#x106;" horiz-adv-x="1327" 
d="M1249 965l-217 -0.00195312l-30 194c-28.667 28.667 -64.834 51.334 -108.501 68.001s-95.167 25 -154.5 25c-126.667 0 -224.167 -46 -292.5 -138s-102.5 -212 -102.5 -360v-51c0 -148 34 -268.333 102 -361s164 -139 288 -139c57.333 0 109.833 8.33301 157.5 25
s84.5 39.334 110.5 68.001l30 194h217v-288c-58.667 -68 -133.5 -122.167 -224.5 -162.5s-192.833 -60.5 -305.5 -60.5c-195.333 0 -355.333 67.667 -480 203s-187 309 -187 521v49c0 211.333 62 385 186 521s284.333 204 481 204c112.667 0 214.334 -20.5 305.001 -61.5
s165.667 -95.167 225 -162.5v-288zM741 1833h309l2 -6l-276 -260h-234z" />
    <glyph glyph-name="cacute" unicode="&#x107;" horiz-adv-x="1079" 
d="M571 203c52 0 93.666 15.167 124.999 45.5s47 70.833 47 121.5h264l3 -6c2.66699 -109.333 -38.333 -200.833 -123 -274.5s-190 -110.5 -316 -110.5c-161.333 0 -285.666 51 -372.999 153s-131 233 -131 393v30c0 159.333 44.833 290.333 134.5 393s217.5 154 383.5 154
c87.333 0 165.666 -13 234.999 -39s127 -62.667 173 -110l4 -289h-237l-48 169c-14.667 12.667 -32.667 23.167 -54 31.5s-45.666 12.5 -72.999 12.5c-82.667 0 -141 -30 -175 -90s-51 -137.333 -51 -232v-30c0 -96.667 15.667 -174.5 47 -233.5s86.333 -88.5 165 -88.5z
M597.999 1502h309l2 -6l-276 -260h-234z" />
    <glyph glyph-name="Ccircumflex" unicode="&#x108;" horiz-adv-x="1327" 
d="M1249 965l-217 -0.00195312l-30 194c-28.667 28.667 -64.834 51.334 -108.501 68.001s-95.167 25 -154.5 25c-126.667 0 -224.167 -46 -292.5 -138s-102.5 -212 -102.5 -360v-51c0 -148 34 -268.333 102 -361s164 -139 288 -139c57.333 0 109.833 8.33301 157.5 25
s84.5 39.334 110.5 68.001l30 194h217v-288c-58.667 -68 -133.5 -122.167 -224.5 -162.5s-192.833 -60.5 -305.5 -60.5c-195.333 0 -355.333 67.667 -480 203s-187 309 -187 521v49c0 211.333 62 385 186 521s284.333 204 481 204c112.667 0 214.334 -20.5 305.001 -61.5
s165.667 -95.167 225 -162.5v-288zM1089 1611v-23h-217l-155 146l-154 -146h-212v26l282 240h169z" />
    <glyph glyph-name="ccircumflex" unicode="&#x109;" horiz-adv-x="1079" 
d="M571 203c52 0 93.666 15.167 124.999 45.5s47 70.833 47 121.5h264l3 -6c2.66699 -109.333 -38.333 -200.833 -123 -274.5s-190 -110.5 -316 -110.5c-161.333 0 -285.666 51 -372.999 153s-131 233 -131 393v30c0 159.333 44.833 290.333 134.5 393s217.5 154 383.5 154
c87.333 0 165.666 -13 234.999 -39s127 -62.667 173 -110l4 -289h-237l-48 169c-14.667 12.667 -32.667 23.167 -54 31.5s-45.666 12.5 -72.999 12.5c-82.667 0 -141 -30 -175 -90s-51 -137.333 -51 -232v-30c0 -96.667 15.667 -174.5 47 -233.5s86.333 -88.5 165 -88.5z
M945.999 1280v-23h-217l-155 146l-154 -146h-212v26l282 240h169z" />
    <glyph glyph-name="uni010A" unicode="&#x10a;" horiz-adv-x="1327" 
d="M1249 965l-217 -0.00195312l-30 194c-28.667 28.667 -64.834 51.334 -108.501 68.001s-95.167 25 -154.5 25c-126.667 0 -224.167 -46 -292.5 -138s-102.5 -212 -102.5 -360v-51c0 -148 34 -268.333 102 -361s164 -139 288 -139c57.333 0 109.833 8.33301 157.5 25
s84.5 39.334 110.5 68.001l30 194h217v-288c-58.667 -68 -133.5 -122.167 -224.5 -162.5s-192.833 -60.5 -305.5 -60.5c-195.333 0 -355.333 67.667 -480 203s-187 309 -187 521v49c0 211.333 62 385 186 521s284.333 204 481 204c112.667 0 214.334 -20.5 305.001 -61.5
s165.667 -95.167 225 -162.5v-288zM857 1608h-305v241h305v-241z" />
    <glyph glyph-name="uni010B" unicode="&#x10b;" horiz-adv-x="1079" 
d="M571 203c52 0 93.666 15.167 124.999 45.5s47 70.833 47 121.5h264l3 -6c2.66699 -109.333 -38.333 -200.833 -123 -274.5s-190 -110.5 -316 -110.5c-161.333 0 -285.666 51 -372.999 153s-131 233 -131 393v30c0 159.333 44.833 290.333 134.5 393s217.5 154 383.5 154
c87.333 0 165.666 -13 234.999 -39s127 -62.667 173 -110l4 -289h-237l-48 169c-14.667 12.667 -32.667 23.167 -54 31.5s-45.666 12.5 -72.999 12.5c-82.667 0 -141 -30 -175 -90s-51 -137.333 -51 -232v-30c0 -96.667 15.667 -174.5 47 -233.5s86.333 -88.5 165 -88.5z
M713.999 1277h-305v241h305v-241z" />
    <glyph glyph-name="Ccaron" unicode="&#x10c;" horiz-adv-x="1327" 
d="M1249 965l-217 -0.00195312l-30 194c-28.667 28.667 -64.834 51.334 -108.501 68.001s-95.167 25 -154.5 25c-126.667 0 -224.167 -46 -292.5 -138s-102.5 -212 -102.5 -360v-51c0 -148 34 -268.333 102 -361s164 -139 288 -139c57.333 0 109.833 8.33301 157.5 25
s84.5 39.334 110.5 68.001l30 194h217v-288c-58.667 -68 -133.5 -122.167 -224.5 -162.5s-192.833 -60.5 -305.5 -60.5c-195.333 0 -355.333 67.667 -480 203s-187 309 -187 521v49c0 211.333 62 385 186 521s284.333 204 481 204c112.667 0 214.334 -20.5 305.001 -61.5
s165.667 -95.167 225 -162.5v-288zM699 1734l132 140h248v-17l-280 -255h-200l-281 256v16h249z" />
    <glyph glyph-name="ccaron" unicode="&#x10d;" horiz-adv-x="1079" 
d="M571 203c52 0 93.666 15.167 124.999 45.5s47 70.833 47 121.5h264l3 -6c2.66699 -109.333 -38.333 -200.833 -123 -274.5s-190 -110.5 -316 -110.5c-161.333 0 -285.666 51 -372.999 153s-131 233 -131 393v30c0 159.333 44.833 290.333 134.5 393s217.5 154 383.5 154
c87.333 0 165.666 -13 234.999 -39s127 -62.667 173 -110l4 -289h-237l-48 169c-14.667 12.667 -32.667 23.167 -54 31.5s-45.666 12.5 -72.999 12.5c-82.667 0 -141 -30 -175 -90s-51 -137.333 -51 -232v-30c0 -96.667 15.667 -174.5 47 -233.5s86.333 -88.5 165 -88.5z
M555.999 1403l132 140h248v-17l-280 -255h-200l-281 256v16h249z" />
    <glyph glyph-name="Dcaron" unicode="&#x10e;" horiz-adv-x="1411" 
d="M711 1456c178 0 324.667 -56.833 440 -170.5s173 -259.5 173 -437.5v-241c0 -178.667 -57.667 -324.5 -173 -437.5s-262 -169.5 -440 -169.5h-655v175l155 30v1045l-155 30v176h155h500zM503 1231v-1007h193c104.667 0 186.667 35.333 246 106s89 163 89 277v243
c0 112.667 -29.667 204.334 -89 275.001s-141.333 106 -246 106h-193zM610 1727l132 140h248v-17l-280 -255h-200l-281 256v16h249z" />
    <glyph glyph-name="dcaron" unicode="&#x10f;" horiz-adv-x="1362" 
d="M767 132c-34 -50 -74.168 -88.001 -120.501 -114.001s-99.166 -39 -158.499 -39c-133.333 0 -236.833 48.667 -310.5 146s-110.5 226 -110.5 386v21c0 170.667 37 308.334 111 413.001s178 157 312 157c54 0 102.667 -11.833 146 -35.5s81.333 -57.167 114 -100.5v388
l-156 30v176h156h292v-1355l140 -30v-175h-393zM358.999 510.999c0 -94.667 15.833 -169.167 47.5 -223.5s83.5 -81.5 155.5 -81.5c42.667 0 79.667 8.66699 111 26s57 42.333 77 75v459c-20 34.667 -45.5 61.5 -76.5 80.5s-67.5 28.5 -109.5 28.5
c-71.333 0 -123.333 -31.667 -156 -95s-49 -146 -49 -248v-21zM1398 1439c0 -70 -14.1689 -141.5 -42.502 -214.5s-64.166 -133.5 -107.499 -181.5l-144 78c26.667 47.333 46.834 94.5 60.501 141.5s20.5 101.5 20.5 163.5v133h213v-120z" />
    <glyph glyph-name="Dcroat" unicode="&#x110;" horiz-adv-x="1441" 
d="M741 1456c178 0 324.667 -56.833 440 -170.5s173 -259.5 173 -437.5v-241c0 -178.667 -57.667 -324.5 -173 -437.5s-262 -169.5 -440 -169.5h-655v175l155 30v460h-195v155h195v430l-155 30v176h655zM747 665l-214 -0.000976562v-441h193
c104.667 0 186.667 35.333 246 106s89 163 89 277v243c0 112.667 -29.667 204.334 -89 275.001s-141.333 106 -246 106h-193v-411h214v-155z" />
    <glyph glyph-name="dcroat" unicode="&#x111;" horiz-adv-x="1242" 
d="M767 132c-34 -50 -74.168 -88.001 -120.501 -114.001s-99.166 -39 -158.499 -39c-133.333 0 -236.833 48.667 -310.5 146s-110.5 226 -110.5 386v21c0 170.667 37 308.334 111 413.001s178 157 312 157c54 0 102.667 -11.833 146 -35.5s81.333 -57.167 114 -100.5v166
h-211v155h211v67l-156 30v176h448v-273h198v-155h-198v-927l140 -30v-175h-393zM358.999 510.999c0 -94.667 15.833 -169.167 47.5 -223.5s83.5 -81.5 155.5 -81.5c42.667 0 79.667 8.66699 111 26s57 42.333 77 75v459c-20 34.667 -45.5 61.5 -76.5 80.5
s-67.5 28.5 -109.5 28.5c-71.333 0 -123.333 -31.667 -156 -95s-49 -146 -49 -248v-21z" />
    <glyph glyph-name="Emacron" unicode="&#x112;" horiz-adv-x="1308" 
d="M996 640h-493v-416h470l13 174h222v-398h-1152v175l155 30v1045l-155 30v176h155h995v-399h-224l-13 174h-466v-366h493v-225zM995 1617h-731v165h731v-165z" />
    <glyph glyph-name="emacron" unicode="&#x113;" horiz-adv-x="1091" 
d="M581 -21c-156 0 -280.668 50 -374.001 150s-140 227 -140 381v40c0 160.667 44.167 293 132.5 397s206.833 155.667 355.5 155c146 0 259.333 -44 340 -132s121 -207 121 -357v-159h-646l-2 -6c5.33301 -71.333 29.166 -130 71.499 -176s99.833 -69 172.5 -69
c64.667 0 118.334 6.5 161.001 19.5s89.334 33.5 140.001 61.5l79 -180c-44.667 -35.333 -102.5 -65 -173.5 -89s-150.167 -36 -237.5 -36zM554.999 877c-54 0 -96.668 -20.668 -128.001 -62.001s-50.666 -95.666 -57.999 -162.999l3 -5h358v26
c0 62 -14.5 111.5 -43.5 148.5s-72.833 55.5 -131.5 55.5zM892.998 1294h-731v165h731v-165z" />
    <glyph glyph-name="Ebreve" unicode="&#x114;" horiz-adv-x="1308" 
d="M996 640h-493v-416h470l13 174h222v-398h-1152v175l155 30v1045l-155 30v176h155h995v-399h-224l-13 174h-466v-366h493v-225zM973 1883l1.99805 -6c3.33301 -84.667 -26.167 -153.834 -88.5 -207.501s-146.166 -80.5 -251.499 -80.5c-106 0 -190.333 26.833 -253 80.5
s-92 122.834 -88 207.501l2 6h198c0 -38.667 11.333 -70.667 34 -96s58.334 -38 107.001 -38c47.333 0 82.333 12.5 105 37.5s34 57.167 34 96.5h199z" />
    <glyph glyph-name="ebreve" unicode="&#x115;" horiz-adv-x="1091" 
d="M581 -21c-156 0 -280.668 50 -374.001 150s-140 227 -140 381v40c0 160.667 44.167 293 132.5 397s206.833 155.667 355.5 155c146 0 259.333 -44 340 -132s121 -207 121 -357v-159h-646l-2 -6c5.33301 -71.333 29.166 -130 71.499 -176s99.833 -69 172.5 -69
c64.667 0 118.334 6.5 161.001 19.5s89.334 33.5 140.001 61.5l79 -180c-44.667 -35.333 -102.5 -65 -173.5 -89s-150.167 -36 -237.5 -36zM554.999 877c-54 0 -96.668 -20.668 -128.001 -62.001s-50.666 -95.666 -57.999 -162.999l3 -5h358v26
c0 62 -14.5 111.5 -43.5 148.5s-72.833 55.5 -131.5 55.5zM870.998 1560l1.99805 -6c3.33301 -84.667 -26.167 -153.834 -88.5 -207.501s-146.166 -80.5 -251.499 -80.5c-106 0 -190.333 26.833 -253 80.5s-92 122.834 -88 207.501l2 6h198c0 -38.667 11.333 -70.667 34 -96
s58.334 -38 107.001 -38c47.333 0 82.333 12.5 105 37.5s34 57.167 34 96.5h199z" />
    <glyph glyph-name="Edotaccent" unicode="&#x116;" horiz-adv-x="1308" 
d="M996 640h-493v-416h470l13 174h222v-398h-1152v175l155 30v1045l-155 30v176h155h995v-399h-224l-13 174h-466v-366h493v-225zM781 1601h-305v241h305v-241z" />
    <glyph glyph-name="edotaccent" unicode="&#x117;" horiz-adv-x="1091" 
d="M581 -21c-156 0 -280.668 50 -374.001 150s-140 227 -140 381v40c0 160.667 44.167 293 132.5 397s206.833 155.667 355.5 155c146 0 259.333 -44 340 -132s121 -207 121 -357v-159h-646l-2 -6c5.33301 -71.333 29.166 -130 71.499 -176s99.833 -69 172.5 -69
c64.667 0 118.334 6.5 161.001 19.5s89.334 33.5 140.001 61.5l79 -180c-44.667 -35.333 -102.5 -65 -173.5 -89s-150.167 -36 -237.5 -36zM554.999 877c-54 0 -96.668 -20.668 -128.001 -62.001s-50.666 -95.666 -57.999 -162.999l3 -5h358v26
c0 62 -14.5 111.5 -43.5 148.5s-72.833 55.5 -131.5 55.5zM678.998 1278h-305v241h305v-241z" />
    <glyph glyph-name="Eogonek" unicode="&#x118;" horiz-adv-x="1308" 
d="M996 640h-493v-416h470l13 174h222v-398h-1152v175l155 30v1045l-155 30v176h155h995v-399h-224l-13 174h-466v-366h493v-225zM744 10c-35.333 -35.333 -61.332 -65.3311 -77.999 -89.998s-25 -53.334 -25 -86.001c0 -18 5.5 -34.167 16.5 -48.5s33.833 -21.5 68.5 -21.5
c18.667 0 35.167 2 49.5 6s29.166 8.66699 44.499 14l35 -154c-24 -12.667 -50.667 -23.167 -80 -31.5s-64.333 -12.5 -105 -12.5c-72.667 0 -132.167 18.833 -178.5 56.5s-69.5 90.167 -69.5 157.5c0 51.333 15.333 100.166 46 146.499s78.667 87.5 144 123.5z" />
    <glyph glyph-name="eogonek" unicode="&#x119;" horiz-adv-x="1091" 
d="M581 -21c-156 0 -280.668 50 -374.001 150s-140 227 -140 381v40c0 160.667 44.167 293 132.5 397s206.833 155.667 355.5 155c146 0 259.333 -44 340 -132s121 -207 121 -357v-159h-646l-2 -6c5.33301 -71.333 29.166 -130 71.499 -176s99.833 -69 172.5 -69
c64.667 0 118.334 6.5 161.001 19.5s89.334 33.5 140.001 61.5l79 -180c-44.667 -35.333 -102.5 -65 -173.5 -89s-150.167 -36 -237.5 -36zM554.999 877c-54 0 -96.668 -20.668 -128.001 -62.001s-50.666 -95.666 -57.999 -162.999l3 -5h358v26
c0 62 -14.5 111.5 -43.5 148.5s-72.833 55.5 -131.5 55.5zM880.998 57.999c-35.333 -35.333 -61.332 -65.3311 -77.999 -89.998s-25 -53.334 -25 -86.001c0 -18 5.5 -34.167 16.5 -48.5s33.833 -21.5 68.5 -21.5c18.667 0 35.167 2 49.5 6s29.166 8.66699 44.499 14l35 -154
c-24 -12.667 -50.667 -23.167 -80 -31.5s-64.333 -12.5 -105 -12.5c-72.667 0 -132.167 18.833 -178.5 56.5s-69.5 90.167 -69.5 157.5c0 51.333 15.333 100.166 46 146.499s78.667 87.5 144 123.5z" />
    <glyph glyph-name="Ecaron" unicode="&#x11a;" horiz-adv-x="1308" 
d="M996 640h-493v-416h470l13 174h222v-398h-1152v175l155 30v1045l-155 30v176h155h995v-399h-224l-13 174h-466v-366h493v-225zM623 1727l132 140h248v-17l-280 -255h-200l-281 256v16h249z" />
    <glyph glyph-name="ecaron" unicode="&#x11b;" horiz-adv-x="1091" 
d="M581 -21c-156 0 -280.668 50 -374.001 150s-140 227 -140 381v40c0 160.667 44.167 293 132.5 397s206.833 155.667 355.5 155c146 0 259.333 -44 340 -132s121 -207 121 -357v-159h-646l-2 -6c5.33301 -71.333 29.166 -130 71.499 -176s99.833 -69 172.5 -69
c64.667 0 118.334 6.5 161.001 19.5s89.334 33.5 140.001 61.5l79 -180c-44.667 -35.333 -102.5 -65 -173.5 -89s-150.167 -36 -237.5 -36zM554.999 877c-54 0 -96.668 -20.668 -128.001 -62.001s-50.666 -95.666 -57.999 -162.999l3 -5h358v26
c0 62 -14.5 111.5 -43.5 148.5s-72.833 55.5 -131.5 55.5zM520.998 1404l132 140h248v-17l-280 -255h-200l-281 256v16h249z" />
    <glyph glyph-name="Gcircumflex" unicode="&#x11c;" horiz-adv-x="1353" 
d="M1263 162c-47.333 -46.667 -116.33 -88.835 -206.997 -126.502s-205.334 -56.5 -344.001 -56.5c-196.667 0 -356.667 65.833 -480 197.5s-185 302.834 -185 513.501v50c0 218 60.833 395.333 182.5 532s280.5 205 476.5 205c114 0 218.167 -18.167 312.5 -54.5
s172.833 -85.5 235.5 -147.5v-293h-216l-41 195c-26.667 22.667 -61.834 40.834 -105.501 54.501s-93.834 20.5 -150.501 20.5c-127.333 0 -226.333 -47 -297 -141s-106 -217 -106 -369v-52c0 -148 34.667 -266.167 104 -354.5s169.333 -132.5 300 -132.5
c58.667 0 106.167 5 142.5 15s64.833 21.667 85.5 35v247l-208 16v205h501v-559zM1080 1603v-23h-217l-155 146l-154 -146h-212v26l282 240h169z" />
    <glyph glyph-name="gcircumflex" unicode="&#x11d;" horiz-adv-x="1170" 
d="M81 532c0 170.667 37.168 308.334 111.501 413.001s178.5 157 312.5 157c60.667 0 114 -13.5 160 -40.5s85.333 -65.5 118 -115.5l21 136h254v-1050c0 -142.667 -44.833 -256.5 -134.5 -341.5s-212.834 -127.5 -369.501 -127.5c-54.667 0 -112.667 7.5 -174 22.5
s-118 35.5 -170 61.5l54 205c46.667 -20 93.334 -35.833 140.001 -47.5s96 -17.5 148 -17.5c71.333 0 124.666 21.667 159.999 65s53 103.666 53 180.999v71c-32 -40.667 -69.667 -71.667 -113 -93s-93 -32 -149 -32c-132.667 0 -236.167 48.833 -310.5 146.5
s-111.5 226.167 -111.5 385.5v21zM373.001 511c0 -94.667 16 -169.166 48 -223.499s84 -81.5 156 -81.5c44.667 0 82.5 8.16699 113.5 24.5s55.833 40.166 74.5 71.499v470c-18.667 32.667 -43.5 58 -74.5 76s-68.167 27 -111.5 27c-71.333 0 -123.5 -31.667 -156.5 -95
s-49.5 -146 -49.5 -248v-21zM935.001 1282v-23h-217l-155 146l-154 -146h-212v26l282 240h169z" />
    <glyph glyph-name="Gbreve" unicode="&#x11e;" horiz-adv-x="1353" 
d="M1263 162c-47.333 -46.667 -116.33 -88.835 -206.997 -126.502s-205.334 -56.5 -344.001 -56.5c-196.667 0 -356.667 65.833 -480 197.5s-185 302.834 -185 513.501v50c0 218 60.833 395.333 182.5 532s280.5 205 476.5 205c114 0 218.167 -18.167 312.5 -54.5
s172.833 -85.5 235.5 -147.5v-293h-216l-41 195c-26.667 22.667 -61.834 40.834 -105.501 54.501s-93.834 20.5 -150.501 20.5c-127.333 0 -226.333 -47 -297 -141s-106 -217 -106 -369v-52c0 -148 34.667 -266.167 104 -354.5s169.333 -132.5 300 -132.5
c58.667 0 106.167 5 142.5 15s64.833 21.667 85.5 35v247l-208 16v205h501v-559zM1040 1882l1.99805 -6c3.33301 -84.667 -26.167 -153.834 -88.5 -207.501s-146.166 -80.5 -251.499 -80.5c-106 0 -190.333 26.833 -253 80.5s-92 122.834 -88 207.501l2 6h198
c0 -38.667 11.333 -70.667 34 -96s58.334 -38 107.001 -38c47.333 0 82.333 12.5 105 37.5s34 57.167 34 96.5h199z" />
    <glyph glyph-name="gbreve" unicode="&#x11f;" horiz-adv-x="1170" 
d="M81 532c0 170.667 37.168 308.334 111.501 413.001s178.5 157 312.5 157c60.667 0 114 -13.5 160 -40.5s85.333 -65.5 118 -115.5l21 136h254v-1050c0 -142.667 -44.833 -256.5 -134.5 -341.5s-212.834 -127.5 -369.501 -127.5c-54.667 0 -112.667 7.5 -174 22.5
s-118 35.5 -170 61.5l54 205c46.667 -20 93.334 -35.833 140.001 -47.5s96 -17.5 148 -17.5c71.333 0 124.666 21.667 159.999 65s53 103.666 53 180.999v71c-32 -40.667 -69.667 -71.667 -113 -93s-93 -32 -149 -32c-132.667 0 -236.167 48.833 -310.5 146.5
s-111.5 226.167 -111.5 385.5v21zM373.001 511c0 -94.667 16 -169.166 48 -223.499s84 -81.5 156 -81.5c44.667 0 82.5 8.16699 113.5 24.5s55.833 40.166 74.5 71.499v470c-18.667 32.667 -43.5 58 -74.5 76s-68.167 27 -111.5 27c-71.333 0 -123.5 -31.667 -156.5 -95
s-49.5 -146 -49.5 -248v-21zM895.001 1561l1.99805 -6c3.33301 -84.667 -26.167 -153.834 -88.5 -207.501s-146.166 -80.5 -251.499 -80.5c-106 0 -190.333 26.833 -253 80.5s-92 122.834 -88 207.501l2 6h198c0 -38.667 11.333 -70.667 34 -96s58.334 -38 107.001 -38
c47.333 0 82.333 12.5 105 37.5s34 57.167 34 96.5h199z" />
    <glyph glyph-name="uni0120" unicode="&#x120;" horiz-adv-x="1353" 
d="M1263 162c-47.333 -46.667 -116.33 -88.835 -206.997 -126.502s-205.334 -56.5 -344.001 -56.5c-196.667 0 -356.667 65.833 -480 197.5s-185 302.834 -185 513.501v50c0 218 60.833 395.333 182.5 532s280.5 205 476.5 205c114 0 218.167 -18.167 312.5 -54.5
s172.833 -85.5 235.5 -147.5v-293h-216l-41 195c-26.667 22.667 -61.834 40.834 -105.501 54.501s-93.834 20.5 -150.501 20.5c-127.333 0 -226.333 -47 -297 -141s-106 -217 -106 -369v-52c0 -148 34.667 -266.167 104 -354.5s169.333 -132.5 300 -132.5
c58.667 0 106.167 5 142.5 15s64.833 21.667 85.5 35v247l-208 16v205h501v-559zM848.003 1600h-305v241h305v-241z" />
    <glyph glyph-name="uni0121" unicode="&#x121;" horiz-adv-x="1170" 
d="M81 532c0 170.667 37.168 308.334 111.501 413.001s178.5 157 312.5 157c60.667 0 114 -13.5 160 -40.5s85.333 -65.5 118 -115.5l21 136h254v-1050c0 -142.667 -44.833 -256.5 -134.5 -341.5s-212.834 -127.5 -369.501 -127.5c-54.667 0 -112.667 7.5 -174 22.5
s-118 35.5 -170 61.5l54 205c46.667 -20 93.334 -35.833 140.001 -47.5s96 -17.5 148 -17.5c71.333 0 124.666 21.667 159.999 65s53 103.666 53 180.999v71c-32 -40.667 -69.667 -71.667 -113 -93s-93 -32 -149 -32c-132.667 0 -236.167 48.833 -310.5 146.5
s-111.5 226.167 -111.5 385.5v21zM373.001 511c0 -94.667 16 -169.166 48 -223.499s84 -81.5 156 -81.5c44.667 0 82.5 8.16699 113.5 24.5s55.833 40.166 74.5 71.499v470c-18.667 32.667 -43.5 58 -74.5 76s-68.167 27 -111.5 27c-71.333 0 -123.5 -31.667 -156.5 -95
s-49.5 -146 -49.5 -248v-21zM703.001 1279h-305v241h305v-241z" />
    <glyph glyph-name="Gcommaaccent" unicode="&#x122;" horiz-adv-x="1353" 
d="M1263 162c-47.333 -46.667 -116.33 -88.835 -206.997 -126.502s-205.334 -56.5 -344.001 -56.5c-196.667 0 -356.667 65.833 -480 197.5s-185 302.834 -185 513.501v50c0 218 60.833 395.333 182.5 532s280.5 205 476.5 205c114 0 218.167 -18.167 312.5 -54.5
s172.833 -85.5 235.5 -147.5v-293h-216l-41 195c-26.667 22.667 -61.834 40.834 -105.501 54.501s-93.834 20.5 -150.501 20.5c-127.333 0 -226.333 -47 -297 -141s-106 -217 -106 -369v-52c0 -148 34.667 -266.167 104 -354.5s169.333 -132.5 300 -132.5
c58.667 0 106.167 5 142.5 15s64.833 21.667 85.5 35v247l-208 16v205h501v-559zM810.003 -218.001c0 -70 -14.1689 -141.5 -42.502 -214.5s-64.166 -133.5 -107.499 -181.5l-144 78c26.667 47.333 46.834 94.5 60.501 141.5s20.5 101.5 20.5 163.5v133h213v-120z" />
    <glyph glyph-name="gcommaaccent" unicode="&#x123;" horiz-adv-x="1170" 
d="M81 532c0 170.667 37.168 308.334 111.501 413.001s178.5 157 312.5 157c60.667 0 114 -13.5 160 -40.5s85.333 -65.5 118 -115.5l21 136h254v-1050c0 -142.667 -44.833 -256.5 -134.5 -341.5s-212.834 -127.5 -369.501 -127.5c-54.667 0 -112.667 7.5 -174 22.5
s-118 35.5 -170 61.5l54 205c46.667 -20 93.334 -35.833 140.001 -47.5s96 -17.5 148 -17.5c71.333 0 124.666 21.667 159.999 65s53 103.666 53 180.999v71c-32 -40.667 -69.667 -71.667 -113 -93s-93 -32 -149 -32c-132.667 0 -236.167 48.833 -310.5 146.5
s-111.5 226.167 -111.5 385.5v21zM373.001 511c0 -94.667 16 -169.166 48 -223.499s84 -81.5 156 -81.5c44.667 0 82.5 8.16699 113.5 24.5s55.833 40.166 74.5 71.499v470c-18.667 32.667 -43.5 58 -74.5 76s-68.167 27 -111.5 27c-71.333 0 -123.5 -31.667 -156.5 -95
s-49.5 -146 -49.5 -248v-21zM435.001 1427l114 260h160l-36 -270v-165h-238v175z" />
    <glyph glyph-name="Hcircumflex" unicode="&#x124;" horiz-adv-x="1601" 
d="M56 1280v176h603v-176l-156 -30v-420h594v420l-156 30v176h156h291h156v-176l-156 -30v-1045l156 -30v-175h-603v175l156 30v400h-594v-400l156 -30v-175h-603v175l155 30v1045zM1172 1603v-23h-217l-155 146l-154 -146h-212v26l282 240h169z" />
    <glyph glyph-name="hcircumflex" unicode="&#x125;" horiz-adv-x="1302" 
d="M47 175l141.002 30.001v1149l-156 30v176h447v-616c34 50 75.667 88.833 125 116.5s104 41.5 164 41.5c113.333 0 202.166 -37.5 266.499 -112.5s96.5 -190.833 96.5 -347.5v-437l140 -30v-175h-558v175l126 30v439c0 84 -14.833 143.5 -44.5 178.5
s-73.834 52.5 -132.501 52.5c-40.667 0 -76.167 -7.33301 -106.5 -22s-55.833 -35.334 -76.5 -62.001v-586l126 -30v-175h-558v175zM962.002 1656v-23h-217l-155 146l-154 -146h-212v26l282 240h169z" />
    <glyph glyph-name="Hbar" unicode="&#x126;" horiz-adv-x="1567" 
d="M1526 1456v-176l-156 -30v-140h123v-152h-123v-753l156 -30v-175h-603v175l156 30v400h-594v-400l156 -30v-175h-603v175l155 30v753h-122v152h122v140l-155 30v176h603v-176l-156 -30v-140h594v140l-156 30v176h156h291h156zM485 830h594v128h-594v-128z" />
    <glyph glyph-name="hbar" unicode="&#x127;" horiz-adv-x="1332" 
d="M77 175l141.002 30.001v915h-209v155h209v79l-156 30v176h447v-285h201v-155h-201v-176c34 50 75.667 88.833 125 116.5s104 41.5 164 41.5c113.333 0 202.166 -37.5 266.499 -112.5s96.5 -190.833 96.5 -347.5v-437l140 -30v-175h-558v175l126 30v439
c0 84 -14.833 143.5 -44.5 178.5s-73.834 52.5 -132.501 52.5c-40.667 0 -76.167 -7.33301 -106.5 -22s-55.833 -35.334 -76.5 -62.001v-586l126 -30v-175h-558v175z" />
    <glyph glyph-name="Itilde" unicode="&#x128;" horiz-adv-x="713" 
d="M55 1280v176h603v-176l-156 -30v-1045l156 -30v-175h-603v175l156 30v1045zM705 1835c0 -64 -19.833 -118.499 -59.5 -163.499s-89.834 -67.5 -150.501 -67.5c-46.667 0 -99.5 14.5 -158.5 43.5s-105.833 43.5 -140.5 43.5c-24 0 -44.167 -10.833 -60.5 -32.5
s-24.5 -47.5 -24.5 -77.5l-155 42c0 62.667 19.833 117.167 59.5 163.5s89.5 69.5 149.5 69.5c37.333 0 87.833 -14.5 151.5 -43.5s112.834 -43.5 147.501 -43.5c23.333 0 43.5 10.667 60.5 32s25.5 47.666 25.5 78.999z" />
    <glyph glyph-name="itilde" unicode="&#x129;" horiz-adv-x="686" 
d="M70 906v176h448v-877l140 -30v-175h-573v175l141 30v671zM726 1514c0 -64 -19.833 -118.499 -59.5 -163.499s-89.834 -67.5 -150.501 -67.5c-46.667 0 -99.5 14.5 -158.5 43.5s-105.833 43.5 -140.5 43.5c-24 0 -44.167 -10.833 -60.5 -32.5s-24.5 -47.5 -24.5 -77.5
l-155 42c0 62.667 19.833 117.167 59.5 163.5s89.5 69.5 149.5 69.5c37.333 0 87.833 -14.5 151.5 -43.5s112.834 -43.5 147.501 -43.5c23.333 0 43.5 10.667 60.5 32s25.5 47.666 25.5 78.999z" />
    <glyph glyph-name="Imacron" unicode="&#x12a;" horiz-adv-x="713" 
d="M55 1280v176h603v-176l-156 -30v-1045l156 -30v-175h-603v175l156 30v1045zM694 1616h-731v165h731v-165z" />
    <glyph glyph-name="imacron" unicode="&#x12b;" horiz-adv-x="686" 
d="M70 906v176h448v-877l140 -30v-175h-573v175l141 30v671zM715 1295h-731v165h731v-165z" />
    <glyph glyph-name="Ibreve" unicode="&#x12c;" horiz-adv-x="713" 
d="M55 1280v176h603v-176l-156 -30v-1045l156 -30v-175h-603v175l156 30v1045zM672 1882l1.99805 -6c3.33301 -84.667 -26.167 -153.834 -88.5 -207.501s-146.166 -80.5 -251.499 -80.5c-106 0 -190.333 26.833 -253 80.5s-92 122.834 -88 207.501l2 6h198
c0 -38.667 11.333 -70.667 34 -96s58.334 -38 107.001 -38c47.333 0 82.333 12.5 105 37.5s34 57.167 34 96.5h199z" />
    <glyph glyph-name="ibreve" unicode="&#x12d;" horiz-adv-x="686" 
d="M70 906v176h448v-877l140 -30v-175h-573v175l141 30v671zM693 1561l1.99805 -6c3.33301 -84.667 -26.167 -153.834 -88.5 -207.501s-146.166 -80.5 -251.499 -80.5c-106 0 -190.333 26.833 -253 80.5s-92 122.834 -88 207.501l2 6h198c0 -38.667 11.333 -70.667 34 -96
s58.334 -38 107.001 -38c47.333 0 82.333 12.5 105 37.5s34 57.167 34 96.5h199z" />
    <glyph glyph-name="Iogonek" unicode="&#x12e;" horiz-adv-x="713" 
d="M55 1280v176h603v-176l-156 -30v-1045l156 -30v-175h-603v175l156 30v1045zM658 0c-35.333 -35.333 -61.332 -65.3311 -77.999 -89.998s-25 -53.334 -25 -86.001c0 -18 5.5 -34.167 16.5 -48.5s33.833 -21.5 68.5 -21.5c18.667 0 35.167 2 49.5 6
s29.166 8.66699 44.499 14l35 -154c-24 -12.667 -50.667 -23.167 -80 -31.5s-64.333 -12.5 -105 -12.5c-72.667 0 -132.167 18.833 -178.5 56.5s-69.5 90.167 -69.5 157.5c0 51.333 15.333 100.166 46 146.499s78.667 87.5 144 123.5z" />
    <glyph glyph-name="iogonek" unicode="&#x12f;" horiz-adv-x="660" 
d="M54 175l141 30v671l-156 30v176h448v-877l140 -30v-175h-573v175zM487 1341h-292v219h292v-219zM627 0c-35.333 -35.333 -61.332 -65.3311 -77.999 -89.998s-25 -53.334 -25 -86.001c0 -18 5.5 -34.167 16.5 -48.5s33.833 -21.5 68.5 -21.5c18.667 0 35.167 2 49.5 6
s29.166 8.66699 44.499 14l35 -154c-24 -12.667 -50.667 -23.167 -80 -31.5s-64.333 -12.5 -105 -12.5c-72.667 0 -132.167 18.833 -178.5 56.5s-69.5 90.167 -69.5 157.5c0 51.333 15.333 100.166 46 146.499s78.667 87.5 144 123.5z" />
    <glyph glyph-name="Idotaccent" unicode="&#x130;" horiz-adv-x="713" 
d="M55 1280v176h603v-176l-156 -30v-1045l156 -30v-175h-603v175l156 30v1045zM479 1600h-305v241h305v-241z" />
    <glyph glyph-name="dotlessi" unicode="&#x131;" horiz-adv-x="686" 
d="M70 906v176h448v-877l140 -30v-175h-573v175l141 30v671z" />
    <glyph glyph-name="IJ" unicode="&#x132;" horiz-adv-x="1905" 
d="M55 1280v176h603v-176l-156 -30v-1045l156 -30v-175h-603v175l156 30v1045zM1878 1456l0.000976562 -176.001l-156 -30v-813c0 -140.667 -45.833 -252.167 -137.5 -334.5s-207.5 -123.5 -347.5 -123.5c-152 0 -272.333 37 -361 111s-131.334 183 -128.001 327l2 6h284
c0 -76.667 18.333 -132.5 55 -167.5s86 -52.5 148 -52.5c54 0 99.833 20.833 137.5 62.5s56.5 98.834 56.5 171.501v813l-156 30v176h447h156z" />
    <glyph glyph-name="ij" unicode="&#x133;" horiz-adv-x="1259" 
d="M54 175l141 30v671l-156 30v176h448v-877l140 -30v-175h-573v175zM487 1341h-292v219h292v-219zM1152 -40c0 -126.667 -33.6689 -224.5 -101.002 -293.5s-160.666 -103.5 -279.999 -103.5c-27.333 0 -52.166 1.33301 -74.499 4s-45.5 7 -69.5 13l14 223
c14.667 -4 29.667 -7 45 -9s32 -3 50 -3c39.333 0 69.833 13.833 91.5 41.5s32.5 70.167 32.5 127.5v916l-156 30v176h448v-1122zM1146 1343h-292v217h292v-217z" />
    <glyph glyph-name="Jcircumflex" unicode="&#x134;" horiz-adv-x="1192" 
d="M1165 1456l0.000976562 -176.001l-156 -30v-813c0 -140.667 -45.833 -252.167 -137.5 -334.5s-207.5 -123.5 -347.5 -123.5c-152 0 -272.333 37 -361 111s-131.334 183 -128.001 327l2 6h284c0 -76.667 18.333 -132.5 55 -167.5s86 -52.5 148 -52.5
c54 0 99.833 20.833 137.5 62.5s56.5 98.834 56.5 171.501v813l-156 30v176h447h156zM1239 1600v-23h-217l-155 146l-154 -146h-212v26l282 240h169z" />
    <glyph glyph-name="jcircumflex" unicode="&#x135;" horiz-adv-x="621" 
d="M506 -40c0 -127.333 -33.501 -225.333 -100.501 -294s-160.5 -103 -280.5 -103c-27.333 0 -52.166 1.33301 -74.499 4s-45.5 7 -69.5 13l15 221c14 -4 29.333 -7.16699 46 -9.5s34 -3.5 52 -3.5c38 0 67.667 15 89 45s32 72.333 32 127v916l-156 30v176h447v-1122z
M661.999 1268v-23h-217l-155 146l-154 -146h-212v26l282 240h169z" />
    <glyph glyph-name="Kcommaaccent" unicode="&#x136;" horiz-adv-x="1464" 
d="M56 175l155 30v1045l-155 30v176h595v-176l-148 -30v-389h127l280 407l-86 12v176h577v-176l-158 -27l-358 -478l402 -575l146 -25v-175h-577v175l90 12l-280 421h-163v-403l148 -30v-175h-595v175zM827 -206c0 -70 -14.1689 -141.5 -42.502 -214.5
s-64.166 -133.5 -107.499 -181.5l-144 78c26.667 47.333 46.834 94.5 60.501 141.5s20.5 101.5 20.5 163.5v133h213v-120z" />
    <glyph glyph-name="kcommaaccent" unicode="&#x137;" horiz-adv-x="1249" 
d="M32 1384v176h447v-904h65l168 237l-95 13v176h532v-176l-128 -29l-195 -268l273 -411l111 -23v-175h-500v175l60 10l-166 268h-125v-248l126 -30v-175h-558v175l141 30v1149zM756 -214c0 -70 -14.1689 -141.5 -42.502 -214.5s-64.166 -133.5 -107.499 -181.5l-144 78
c26.667 47.333 46.834 94.5 60.501 141.5s20.5 101.5 20.5 163.5v133h213v-120z" />
    <glyph glyph-name="kgreenlandic" unicode="&#x138;" horiz-adv-x="1270" 
d="M47 175l141 30v671l-146 30v176h437v-420h95l162 231l-96 13v176h531v-176l-127 -29l-214 -274l269 -405l111 -23v-175h-324l-282 453h-125v-248l126 -30v-175h-558v175z" />
    <glyph glyph-name="Lacute" unicode="&#x139;" horiz-adv-x="1200" 
d="M56 0v175l155 30v1045l-155 30v176h155h292h156v-176l-156 -30v-1026h411l14 183h223v-407h-1095zM355 1825h309l2 -6l-276 -260h-234z" />
    <glyph glyph-name="lacute" unicode="&#x13a;" horiz-adv-x="653" 
d="M32 1384v176h448v-1355l141 -30v-175h-574v175l141 30v1149zM354 1889h309l2 -6l-276 -260h-234z" />
    <glyph glyph-name="Lcommaaccent" unicode="&#x13b;" horiz-adv-x="1200" 
d="M56 0v175l155 30v1045l-155 30v176h155h292h156v-176l-156 -30v-1026h411l14 183h223v-407h-1095zM753 -205c0 -70 -14.1689 -141.5 -42.502 -214.5s-64.166 -133.5 -107.499 -181.5l-144 78c26.667 47.333 46.834 94.5 60.501 141.5s20.5 101.5 20.5 163.5v133h213v-120
z" />
    <glyph glyph-name="lcommaaccent" unicode="&#x13c;" horiz-adv-x="653" 
d="M32 1384v176h448v-1355l141 -30v-175h-574v175l141 30v1149zM439 -209c0 -70 -14.1689 -141.5 -42.502 -214.5s-64.166 -133.5 -107.499 -181.5l-144 78c26.667 47.333 46.834 94.5 60.501 141.5s20.5 101.5 20.5 163.5v133h213v-120z" />
    <glyph glyph-name="Lcaron" unicode="&#x13d;" horiz-adv-x="1200" 
d="M56 0v175l155 30v1045l-155 30v176h155h292h156v-176l-156 -30v-1026h411l14 183h223v-407h-1095zM963 1335c0 -70 -14.1689 -141.5 -42.502 -214.5s-64.166 -133.5 -107.499 -181.5l-144 78c26.667 47.333 46.834 94.5 60.501 141.5s20.5 101.5 20.5 163.5v133h213v-120
z" />
    <glyph glyph-name="lcaron" unicode="&#x13e;" horiz-adv-x="803" 
d="M32 1384v176h448v-1355l141 -30v-175h-574v175l141 30v1149zM811 1439c0 -70 -14.1689 -141.5 -42.502 -214.5s-64.166 -133.5 -107.499 -181.5l-144 78c26.667 47.333 46.834 94.5 60.501 141.5s20.5 101.5 20.5 163.5v133h213v-120z" />
    <glyph glyph-name="Ldot" unicode="&#x13f;" horiz-adv-x="1200" 
d="M56 0v175l155 30v1045l-155 30v176h155h292h156v-176l-156 -30v-1026h411l14 183h223v-407h-1095zM932 691h-305v241h305v-241z" />
    <glyph glyph-name="ldot" unicode="&#x140;" horiz-adv-x="873" 
d="M32 1384v176h448v-1355l141 -30v-175h-574v175l141 30v1149zM861 652h-305v241h305v-241z" />
    <glyph glyph-name="Lslash" unicode="&#x141;" horiz-adv-x="1192" 
d="M659 1280l-156 -30v-360l220 64v-195l-220 -64v-471h411l14 183h223v-407h-1095v175l155 30v406l-138 -39v195l138 39v444l-155 30v176h603v-176z" />
    <glyph glyph-name="lslash" unicode="&#x142;" horiz-adv-x="653" 
d="M473 905l146 49v-195l-146 -49v-505l141 -30v-175h-574v175l141 30v409l-127 -42v195l127 42v545l-156 30v176h448v-655z" />
    <glyph glyph-name="Nacute" unicode="&#x143;" horiz-adv-x="1582" 
d="M1544 1456v-176l-156 -30v-1250h-291l-588 980l-6 -1v-774l156 -30v-175h-603v175l155 30v1045l-155 30v176h155h292l588 -980l6 1v773l-156 30v176h447h156zM809 1826h309l2 -6l-276 -260h-234z" />
    <glyph glyph-name="nacute" unicode="&#x144;" horiz-adv-x="1300" 
d="M47 175l140.002 30.002v671l-155 30v176h427l13 -155c36 55.333 80.333 98.333 133 129s111.667 46 177 46c109.333 0 194.666 -34.333 255.999 -103s92 -176.334 92 -323.001v-471l140 -30v-175h-558v175l125 30v470c0 72.667 -14.667 124.167 -44 154.5
s-73.666 45.5 -132.999 45.5c-38.667 0 -73.334 -7.83301 -104.001 -23.5s-56.334 -37.834 -77.001 -66.501v-580l118 -30v-175h-550v175zM644.002 1502h309l2 -6l-276 -260h-234z" />
    <glyph glyph-name="Ncommaaccent" unicode="&#x145;" horiz-adv-x="1582" 
d="M1544 1456v-176l-156 -30v-1250h-291l-588 980l-6 -1v-774l156 -30v-175h-603v175l155 30v1045l-155 30v176h155h292l588 -980l6 1v773l-156 30v176h447h156zM891 -205c0 -70 -14.1689 -141.5 -42.502 -214.5s-64.166 -133.5 -107.499 -181.5l-144 78
c26.667 47.333 46.834 94.5 60.501 141.5s20.5 101.5 20.5 163.5v133h213v-120z" />
    <glyph glyph-name="ncommaaccent" unicode="&#x146;" horiz-adv-x="1300" 
d="M47 175l140.002 30.002v671l-155 30v176h427l13 -155c36 55.333 80.333 98.333 133 129s111.667 46 177 46c109.333 0 194.666 -34.333 255.999 -103s92 -176.334 92 -323.001v-471l140 -30v-175h-558v175l125 30v470c0 72.667 -14.667 124.167 -44 154.5
s-73.666 45.5 -132.999 45.5c-38.667 0 -73.334 -7.83301 -104.001 -23.5s-56.334 -37.834 -77.001 -66.501v-580l118 -30v-175h-550v175zM753.002 -206.998c0 -70 -14.1689 -141.5 -42.502 -214.5s-64.166 -133.5 -107.499 -181.5l-144 78
c26.667 47.333 46.834 94.5 60.501 141.5s20.5 101.5 20.5 163.5v133h213v-120z" />
    <glyph glyph-name="Ncaron" unicode="&#x147;" horiz-adv-x="1582" 
d="M1544 1456v-176l-156 -30v-1250h-291l-588 980l-6 -1v-774l156 -30v-175h-603v175l155 30v1045l-155 30v176h155h292l588 -980l6 1v773l-156 30v176h447h156zM767 1727l132 140h248v-17l-280 -255h-200l-281 256v16h249z" />
    <glyph glyph-name="ncaron" unicode="&#x148;" horiz-adv-x="1300" 
d="M47 175l140.002 30.002v671l-155 30v176h427l13 -155c36 55.333 80.333 98.333 133 129s111.667 46 177 46c109.333 0 194.666 -34.333 255.999 -103s92 -176.334 92 -323.001v-471l140 -30v-175h-558v175l125 30v470c0 72.667 -14.667 124.167 -44 154.5
s-73.666 45.5 -132.999 45.5c-38.667 0 -73.334 -7.83301 -104.001 -23.5s-56.334 -37.834 -77.001 -66.501v-580l118 -30v-175h-550v175zM602.002 1403l132 140h248v-17l-280 -255h-200l-281 256v16h249z" />
    <glyph glyph-name="napostrophe" unicode="&#x149;" horiz-adv-x="1300" 
d="M47 175l140.002 30.002v671l-155 30v176h427l13 -155c36 55.333 80.333 98.333 133 129s111.667 46 177 46c109.333 0 194.666 -34.333 255.999 -103s92 -176.334 92 -323.001v-471l140 -30v-175h-558v175l125 30v470c0 72.667 -14.667 124.167 -44 154.5
s-73.666 45.5 -132.999 45.5c-38.667 0 -73.334 -7.83301 -104.001 -23.5s-56.334 -37.834 -77.001 -66.501v-580l118 -30v-175h-550v175zM212.002 1438c0 -70 -14.1689 -141.5 -42.502 -214.5s-64.166 -133.5 -107.499 -181.5l-144 78
c26.667 47.333 46.834 94.5 60.501 141.5s20.5 101.5 20.5 163.5v133h213v-120z" />
    <glyph glyph-name="Eng" unicode="&#x14a;" horiz-adv-x="1584" 
d="M68 1280l0.000976562 176h448l587 -981l6 1v774l-155 30v176h155h447v-176l-155 -30v-1290c0 -126.667 -33.667 -224.5 -101 -293.5s-161 -103.5 -281 -103.5c-27.333 0 -52 1.33301 -74 4s-45.333 7 -70 13l14 221c15.333 -4 31.166 -7.16699 47.499 -9.5
s33.5 -3.5 51.5 -3.5c38 0 67.667 15 89 45s32 72.333 32 127v40l-587 982l-6 -1v-776l155 -30v-175h-603v175l156 30v1045z" />
    <glyph glyph-name="eng" unicode="&#x14b;" horiz-adv-x="1282" 
d="M93 175l139.996 29.999v671l-155 30v176h426l14 -152c35.333 54 79.333 96.167 132 126.5s111.334 45.5 176.001 45.5c108.667 0 193.667 -35.333 255 -106s92 -181.667 92 -333v-703c0 -126.667 -33.667 -224.5 -101 -293.5s-160.666 -103.5 -279.999 -103.5
c-27.333 0 -52.333 1.33301 -75 4s-46 7 -70 13l14 224c14.667 -3.33301 30.334 -6.16602 47.001 -8.49902s34.334 -3.5 53.001 -3.5c38.667 0 68.334 14.333 89.001 43s31 70.334 31 125.001v702c0 77.333 -13.5 132.166 -40.5 164.499s-67.5 48.5 -121.5 48.5
c-42.667 0 -80.334 -7.83301 -113.001 -23.5s-59.667 -37.5 -81 -65.5v-581l140 -30v-175h-572v175z" />
    <glyph glyph-name="Omacron" unicode="&#x14c;" horiz-adv-x="1448" 
d="M1387 717c0 -213.333 -61 -389.666 -183 -528.999s-281.667 -209 -479 -209c-196.667 0 -355.5 69.667 -476.5 209s-181.5 315.666 -181.5 528.999v22c0 212 60.333 388 181 528s279.334 210 476.001 210c197.333 0 357.166 -70 479.499 -210s183.5 -316 183.5 -528v-22z
M1096 741c0 150.667 -31.332 273 -93.999 367s-155.334 141 -278.001 141s-214.167 -46.667 -274.5 -140s-90.5 -216 -90.5 -368v-24c0 -153.333 30.5 -276.833 91.5 -370.5s152.5 -140.5 274.5 -140.5c123.333 0 216 46.833 278 140.5s93 217.167 93 370.5v24zM1080 1616
h-731v165h731v-165z" />
    <glyph glyph-name="omacron" unicode="&#x14d;" horiz-adv-x="1148" 
d="M63 551c0 161.333 45.168 293.5 135.501 396.5s215.166 154.5 374.499 154.5c160 0 285.167 -51.333 375.5 -154s135.5 -235 135.5 -397v-21c0 -162.667 -45.167 -295.167 -135.5 -397.5s-214.833 -153.5 -373.5 -153.5c-160.667 0 -286.167 51.167 -376.5 153.5
s-135.5 234.833 -135.5 397.5v21zM355.001 530c0 -98.667 17.333 -177.833 52 -237.5s90.667 -89.5 168 -89.5c75.333 0 130.5 30 165.5 90s52.5 139 52.5 237v21c0 96 -17.667 174.333 -53 235s-91 91 -167 91s-131.333 -30.333 -166 -91s-52 -139 -52 -235v-21z
M927.001 1295h-731v165h731v-165z" />
    <glyph glyph-name="Obreve" unicode="&#x14e;" horiz-adv-x="1448" 
d="M1387 717c0 -213.333 -61 -389.666 -183 -528.999s-281.667 -209 -479 -209c-196.667 0 -355.5 69.667 -476.5 209s-181.5 315.666 -181.5 528.999v22c0 212 60.333 388 181 528s279.334 210 476.001 210c197.333 0 357.166 -70 479.499 -210s183.5 -316 183.5 -528v-22z
M1096 741c0 150.667 -31.332 273 -93.999 367s-155.334 141 -278.001 141s-214.167 -46.667 -274.5 -140s-90.5 -216 -90.5 -368v-24c0 -153.333 30.5 -276.833 91.5 -370.5s152.5 -140.5 274.5 -140.5c123.333 0 216 46.833 278 140.5s93 217.167 93 370.5v24zM1058 1882
l1.99805 -6c3.33301 -84.667 -26.167 -153.834 -88.5 -207.501s-146.166 -80.5 -251.499 -80.5c-106 0 -190.333 26.833 -253 80.5s-92 122.834 -88 207.501l2 6h198c0 -38.667 11.333 -70.667 34 -96s58.334 -38 107.001 -38c47.333 0 82.333 12.5 105 37.5
s34 57.167 34 96.5h199z" />
    <glyph glyph-name="obreve" unicode="&#x14f;" horiz-adv-x="1148" 
d="M63 551c0 161.333 45.168 293.5 135.501 396.5s215.166 154.5 374.499 154.5c160 0 285.167 -51.333 375.5 -154s135.5 -235 135.5 -397v-21c0 -162.667 -45.167 -295.167 -135.5 -397.5s-214.833 -153.5 -373.5 -153.5c-160.667 0 -286.167 51.167 -376.5 153.5
s-135.5 234.833 -135.5 397.5v21zM355.001 530c0 -98.667 17.333 -177.833 52 -237.5s90.667 -89.5 168 -89.5c75.333 0 130.5 30 165.5 90s52.5 139 52.5 237v21c0 96 -17.667 174.333 -53 235s-91 91 -167 91s-131.333 -30.333 -166 -91s-52 -139 -52 -235v-21z
M905.001 1561l1.99805 -6c3.33301 -84.667 -26.167 -153.834 -88.5 -207.501s-146.166 -80.5 -251.499 -80.5c-106 0 -190.333 26.833 -253 80.5s-92 122.834 -88 207.501l2 6h198c0 -38.667 11.333 -70.667 34 -96s58.334 -38 107.001 -38c47.333 0 82.333 12.5 105 37.5
s34 57.167 34 96.5h199z" />
    <glyph glyph-name="Ohungarumlaut" unicode="&#x150;" horiz-adv-x="1448" 
d="M1387 717c0 -213.333 -61 -389.666 -183 -528.999s-281.667 -209 -479 -209c-196.667 0 -355.5 69.667 -476.5 209s-181.5 315.666 -181.5 528.999v22c0 212 60.333 388 181 528s279.334 210 476.001 210c197.333 0 357.166 -70 479.499 -210s183.5 -316 183.5 -528v-22z
M1096 741c0 150.667 -31.332 273 -93.999 367s-155.334 141 -278.001 141s-214.167 -46.667 -274.5 -140s-90.5 -216 -90.5 -368v-24c0 -153.333 30.5 -276.833 91.5 -370.5s152.5 -140.5 274.5 -140.5c123.333 0 216 46.833 278 140.5s93 217.167 93 370.5v24z
M952.001 1866h263l2 -6l-285 -260h-218l-2 5zM564.001 1866h260l2 -5l-240 -261h-221z" />
    <glyph glyph-name="ohungarumlaut" unicode="&#x151;" horiz-adv-x="1148" 
d="M63 551c0 161.333 45.168 293.5 135.501 396.5s215.166 154.5 374.499 154.5c160 0 285.167 -51.333 375.5 -154s135.5 -235 135.5 -397v-21c0 -162.667 -45.167 -295.167 -135.5 -397.5s-214.833 -153.5 -373.5 -153.5c-160.667 0 -286.167 51.167 -376.5 153.5
s-135.5 234.833 -135.5 397.5v21zM355.001 530c0 -98.667 17.333 -177.833 52 -237.5s90.667 -89.5 168 -89.5c75.333 0 130.5 30 165.5 90s52.5 139 52.5 237v21c0 96 -17.667 174.333 -53 235s-91 91 -167 91s-131.333 -30.333 -166 -91s-52 -139 -52 -235v-21z
M799.001 1545h263l2 -6l-285 -260h-218l-2 5zM411.001 1545h260l2 -5l-240 -261h-221z" />
    <glyph glyph-name="OE" unicode="&#x152;" horiz-adv-x="1996" 
d="M1724 640l-493 -0.000976562v-416h470l13 174h222v-398h-938c-61.333 -6.66699 -113.5 -11.834 -156.5 -15.501s-86.833 -5.5 -131.5 -5.5c-180 0 -326.167 55.333 -438.5 166s-168.5 254.334 -168.5 431.001v304c0 176.667 55.833 320.334 167.5 431.001
s257.5 166 437.5 166c46 0 92.667 -2 140 -6s97.333 -9 150 -15h936v-399h-224l-13 174h-466v-366h493v-225zM710 203.999c38.667 0 77.167 1.49902 115.5 4.49902s76.166 7.5 113.499 13.5v1011c-39.333 5.33301 -78.166 9.83301 -116.499 13.5s-76.5 5.5 -114.5 5.5
c-98.667 0 -175.667 -31.5 -231 -94.5s-83 -154.833 -83 -275.5v-306c0 -121.333 28 -213.666 84 -276.999s133.333 -95 232 -95z" />
    <glyph glyph-name="oe" unicode="&#x153;" horiz-adv-x="1875" 
d="M92 551c0 161.333 45.167 293.502 135.5 396.502s215.166 154.5 374.499 154.5c76.667 0 146.167 -12.833 208.5 -38.5s115.833 -61.834 160.5 -108.501c42.667 47.333 93.5 83.666 152.5 108.999s124.5 38 196.5 38c146 0 259.333 -44 340 -132s121 -207 121 -357v-159
h-647l-2 -6c5.33301 -71.333 29.166 -130 71.499 -176s100.166 -69 173.499 -69c64.667 0 118.334 6.5 161.001 19.5s89 33.5 139 61.5l80 -180c-44 -35.333 -101.667 -65 -173 -89s-150.666 -36 -237.999 -36c-78 0 -148.5 12.667 -211.5 38s-116.833 62 -161.5 110
c-44 -48 -97.167 -84.667 -159.5 -110s-132.166 -38 -209.499 -38c-160.667 0 -286.167 51.167 -376.5 153.5s-135.5 234.833 -135.5 397.5v21zM384 530.002c0 -98.667 17.333 -177.833 52 -237.5s90.667 -89.5 168 -89.5c75.333 0 130.5 30 165.5 90s52.5 139 52.5 237v21
c0 96 -17.667 174.333 -53 235s-91 91 -167 91s-131.333 -30.333 -166 -91s-52 -139 -52 -235v-21zM1320 877.003c-54 0 -96.668 -20.668 -128.001 -62.001s-50.666 -95.666 -57.999 -162.999l2 -5h359v26c0 62 -14.5 111.5 -43.5 148.5s-72.833 55.5 -131.5 55.5z" />
    <glyph glyph-name="Racute" unicode="&#x154;" horiz-adv-x="1408" 
d="M710 1456c165.333 0 295.001 -37.832 389.001 -113.499s141 -180.167 141 -313.5c0 -73.333 -19.667 -137 -59 -191s-97 -97.667 -173 -131c86 -25.333 147.833 -67.5 185.5 -126.5s56.5 -132.167 56.5 -219.5v-74c0 -32 6.33301 -56.833 19 -74.5
s33.667 -28.167 63 -31.5l36 -5v-176h-151c-95.333 0 -162.333 25.667 -201 77s-58 117.666 -58 198.999v83c0 70.667 -18.833 126.167 -56.5 166.5s-90.834 61.5 -159.501 63.5h-239v-384l156 -30v-175h-603v175l155 30v1045l-155 30v176h155h499zM503.001 814.001h202
c81.333 0 142.333 17.333 183 52s61 84.667 61 150s-20.167 117.5 -60.5 156.5s-99.833 58.5 -178.5 58.5h-207v-417zM692.001 1826h309l2 -6l-276 -260h-234z" />
    <glyph glyph-name="racute" unicode="&#x155;" horiz-adv-x="862" 
d="M85 175l140 30v671l-155 30v176h427l13 -158c25.333 56 58 99.667 98 131s86.333 47 139 47c15.333 0 31.5 -1.16699 48.5 -3.5s31.167 -5.16602 42.5 -8.49902l-31 -266l-120 3c-42.667 0 -78 -8.33301 -106 -25s-49.333 -40.334 -64 -71.001v-526l140 -30v-175h-572
v175zM495 1504h309l2 -6l-276 -260h-234z" />
    <glyph glyph-name="Rcommaaccent" unicode="&#x156;" horiz-adv-x="1408" 
d="M710 1456c165.333 0 295.001 -37.832 389.001 -113.499s141 -180.167 141 -313.5c0 -73.333 -19.667 -137 -59 -191s-97 -97.667 -173 -131c86 -25.333 147.833 -67.5 185.5 -126.5s56.5 -132.167 56.5 -219.5v-74c0 -32 6.33301 -56.833 19 -74.5
s33.667 -28.167 63 -31.5l36 -5v-176h-151c-95.333 0 -162.333 25.667 -201 77s-58 117.666 -58 198.999v83c0 70.667 -18.833 126.167 -56.5 166.5s-90.834 61.5 -159.501 63.5h-239v-384l156 -30v-175h-603v175l155 30v1045l-155 30v176h155h499zM503.001 814.001h202
c81.333 0 142.333 17.333 183 52s61 84.667 61 150s-20.167 117.5 -60.5 156.5s-99.833 58.5 -178.5 58.5h-207v-417zM864.001 -210.999c0 -70 -14.1689 -141.5 -42.502 -214.5s-64.166 -133.5 -107.499 -181.5l-144 78c26.667 47.333 46.834 94.5 60.501 141.5
s20.5 101.5 20.5 163.5v133h213v-120z" />
    <glyph glyph-name="rcommaaccent" unicode="&#x157;" horiz-adv-x="862" 
d="M85 175l140 30v671l-155 30v176h427l13 -158c25.333 56 58 99.667 98 131s86.333 47 139 47c15.333 0 31.5 -1.16699 48.5 -3.5s31.167 -5.16602 42.5 -8.49902l-31 -266l-120 3c-42.667 0 -78 -8.33301 -106 -25s-49.333 -40.334 -64 -71.001v-526l140 -30v-175h-572
v175zM438 -205c0 -70 -14.1689 -141.5 -42.502 -214.5s-64.166 -133.5 -107.499 -181.5l-144 78c26.667 47.333 46.834 94.5 60.501 141.5s20.5 101.5 20.5 163.5v133h213v-120z" />
    <glyph glyph-name="Rcaron" unicode="&#x158;" horiz-adv-x="1408" 
d="M710 1456c165.333 0 295.001 -37.832 389.001 -113.499s141 -180.167 141 -313.5c0 -73.333 -19.667 -137 -59 -191s-97 -97.667 -173 -131c86 -25.333 147.833 -67.5 185.5 -126.5s56.5 -132.167 56.5 -219.5v-74c0 -32 6.33301 -56.833 19 -74.5
s33.667 -28.167 63 -31.5l36 -5v-176h-151c-95.333 0 -162.333 25.667 -201 77s-58 117.666 -58 198.999v83c0 70.667 -18.833 126.167 -56.5 166.5s-90.834 61.5 -159.501 63.5h-239v-384l156 -30v-175h-603v175l155 30v1045l-155 30v176h155h499zM503.001 814.001h202
c81.333 0 142.333 17.333 183 52s61 84.667 61 150s-20.167 117.5 -60.5 156.5s-99.833 58.5 -178.5 58.5h-207v-417zM650.001 1727l132 140h248v-17l-280 -255h-200l-281 256v16h249z" />
    <glyph glyph-name="rcaron" unicode="&#x159;" horiz-adv-x="862" 
d="M85 175l140 30v671l-155 30v176h427l13 -158c25.333 56 58 99.667 98 131s86.333 47 139 47c15.333 0 31.5 -1.16699 48.5 -3.5s31.167 -5.16602 42.5 -8.49902l-31 -266l-120 3c-42.667 0 -78 -8.33301 -106 -25s-49.333 -40.334 -64 -71.001v-526l140 -30v-175h-572
v175zM453 1405l132 140h248v-17l-280 -255h-200l-281 256v16h249z" />
    <glyph glyph-name="Sacute" unicode="&#x15a;" horiz-adv-x="1242" 
d="M1162 991l-218.997 -0.00292969l-38 200c-25.333 16 -62.333 30 -111 42s-100.334 18 -155.001 18c-80 0 -141.833 -16.833 -185.5 -50.5s-65.5 -77.167 -65.5 -130.5c0 -49.333 22.833 -89.833 68.5 -121.5s124.5 -65.167 236.5 -100.5
c160.667 -44.667 282.5 -103.667 365.5 -177s124.5 -169.666 124.5 -288.999c0 -124.667 -49.333 -223 -148 -295s-228.667 -108 -390 -108c-115.333 0 -219.5 18.333 -312.5 55s-170.5 87.334 -232.5 152.001v304h226l31 -207c29.333 -24 69.166 -43.833 119.499 -59.5
s106.5 -23.5 168.5 -23.5c80 0 140.833 16.333 182.5 49s62.5 76.334 62.5 131.001c0 56 -19.833 101 -59.5 135s-109.167 66 -208.5 96c-172.667 50 -303.334 109.333 -392.001 178s-133 162.667 -133 282c0 118 50 214.5 150 289.5s225.667 113.5 377 115.5
c112 0 214 -17 306 -51s169.333 -79.333 232 -136v-298zM656.003 1825h309l2 -6l-276 -260h-234z" />
    <glyph glyph-name="sacute" unicode="&#x15b;" horiz-adv-x="1054" 
d="M946 710l-195.999 0.00390625l-31 135c-20 16 -45.167 29.333 -75.5 40s-63.833 16 -100.5 16c-51.333 0 -92 -11.5 -122 -34.5s-45 -51.833 -45 -86.5c0 -32.667 14.333 -59.834 43 -81.501s86 -40.834 172 -57.501c134 -26.667 233.333 -65.834 298 -117.501
s97 -122.834 97 -213.501c0 -97.333 -41.833 -176.833 -125.5 -238.5s-193.834 -92.5 -330.501 -92.5c-83.333 0 -159.833 12.167 -229.5 36.5s-131.5 59.166 -185.5 104.499l-3 243h204l40 -141c17.333 -14.667 41 -25.5 71 -32.5s61.333 -10.5 94 -10.5
c59.333 0 104.5 10.667 135.5 32s46.5 50.333 46.5 87c0 32 -15.667 59.667 -47 83s-89 44 -173 62c-127.333 26 -223.5 64.5 -288.5 115.5s-97.5 120.5 -97.5 208.5c0 90.667 37.333 168.834 112 234.501s181 98.5 319 98.5c84 0 163.5 -11.333 238.5 -34
s133.833 -51.667 176.5 -87zM557.001 1505h309l2 -6l-276 -260h-234z" />
    <glyph glyph-name="Scircumflex" unicode="&#x15c;" horiz-adv-x="1242" 
d="M1162 991l-218.997 -0.00292969l-38 200c-25.333 16 -62.333 30 -111 42s-100.334 18 -155.001 18c-80 0 -141.833 -16.833 -185.5 -50.5s-65.5 -77.167 -65.5 -130.5c0 -49.333 22.833 -89.833 68.5 -121.5s124.5 -65.167 236.5 -100.5
c160.667 -44.667 282.5 -103.667 365.5 -177s124.5 -169.666 124.5 -288.999c0 -124.667 -49.333 -223 -148 -295s-228.667 -108 -390 -108c-115.333 0 -219.5 18.333 -312.5 55s-170.5 87.334 -232.5 152.001v304h226l31 -207c29.333 -24 69.166 -43.833 119.499 -59.5
s106.5 -23.5 168.5 -23.5c80 0 140.833 16.333 182.5 49s62.5 76.334 62.5 131.001c0 56 -19.833 101 -59.5 135s-109.167 66 -208.5 96c-172.667 50 -303.334 109.333 -392.001 178s-133 162.667 -133 282c0 118 50 214.5 150 289.5s225.667 113.5 377 115.5
c112 0 214 -17 306 -51s169.333 -79.333 232 -136v-298zM1004 1603v-23h-217l-155 146l-154 -146h-212v26l282 240h169z" />
    <glyph glyph-name="scircumflex" unicode="&#x15d;" horiz-adv-x="1054" 
d="M946 710l-195.999 0.00390625l-31 135c-20 16 -45.167 29.333 -75.5 40s-63.833 16 -100.5 16c-51.333 0 -92 -11.5 -122 -34.5s-45 -51.833 -45 -86.5c0 -32.667 14.333 -59.834 43 -81.501s86 -40.834 172 -57.501c134 -26.667 233.333 -65.834 298 -117.501
s97 -122.834 97 -213.501c0 -97.333 -41.833 -176.833 -125.5 -238.5s-193.834 -92.5 -330.501 -92.5c-83.333 0 -159.833 12.167 -229.5 36.5s-131.5 59.166 -185.5 104.499l-3 243h204l40 -141c17.333 -14.667 41 -25.5 71 -32.5s61.333 -10.5 94 -10.5
c59.333 0 104.5 10.667 135.5 32s46.5 50.333 46.5 87c0 32 -15.667 59.667 -47 83s-89 44 -173 62c-127.333 26 -223.5 64.5 -288.5 115.5s-97.5 120.5 -97.5 208.5c0 90.667 37.333 168.834 112 234.501s181 98.5 319 98.5c84 0 163.5 -11.333 238.5 -34
s133.833 -51.667 176.5 -87zM905.001 1283v-23h-217l-155 146l-154 -146h-212v26l282 240h169z" />
    <glyph glyph-name="Scedilla" unicode="&#x15e;" horiz-adv-x="1242" 
d="M1162 991l-218.997 -0.00292969l-38 200c-25.333 16 -62.333 30 -111 42s-100.334 18 -155.001 18c-80 0 -141.833 -16.833 -185.5 -50.5s-65.5 -77.167 -65.5 -130.5c0 -49.333 22.833 -89.833 68.5 -121.5s124.5 -65.167 236.5 -100.5
c160.667 -44.667 282.5 -103.667 365.5 -177s124.5 -169.666 124.5 -288.999c0 -124.667 -49.333 -223 -148 -295s-228.667 -108 -390 -108c-115.333 0 -219.5 18.333 -312.5 55s-170.5 87.334 -232.5 152.001v304h226l31 -207c29.333 -24 69.166 -43.833 119.499 -59.5
s106.5 -23.5 168.5 -23.5c80 0 140.833 16.333 182.5 49s62.5 76.334 62.5 131.001c0 56 -19.833 101 -59.5 135s-109.167 66 -208.5 96c-172.667 50 -303.334 109.333 -392.001 178s-133 162.667 -133 282c0 118 50 214.5 150 289.5s225.667 113.5 377 115.5
c112 0 214 -17 306 -51s169.333 -79.333 232 -136v-298zM742.003 3.99707l-11.001 -57.002c42.667 -7.33301 78.334 -24.666 107.001 -51.999s43 -67.666 43 -120.999c0 -71.333 -30.5 -128.333 -91.5 -171s-147.5 -64 -259.5 -64l-7 161c34 0 61 6.83301 81 20.5
s30 34.5 30 62.5c0 27.333 -10.667 46.5 -32 57.5s-58 18.167 -110 21.5l31 142h219z" />
    <glyph glyph-name="scedilla" unicode="&#x15f;" horiz-adv-x="1054" 
d="M946 710l-195.999 0.00390625l-31 135c-20 16 -45.167 29.333 -75.5 40s-63.833 16 -100.5 16c-51.333 0 -92 -11.5 -122 -34.5s-45 -51.833 -45 -86.5c0 -32.667 14.333 -59.834 43 -81.501s86 -40.834 172 -57.501c134 -26.667 233.333 -65.834 298 -117.501
s97 -122.834 97 -213.501c0 -97.333 -41.833 -176.833 -125.5 -238.5s-193.834 -92.5 -330.501 -92.5c-83.333 0 -159.833 12.167 -229.5 36.5s-131.5 59.166 -185.5 104.499l-3 243h204l40 -141c17.333 -14.667 41 -25.5 71 -32.5s61.333 -10.5 94 -10.5
c59.333 0 104.5 10.667 135.5 32s46.5 50.333 46.5 87c0 32 -15.667 59.667 -47 83s-89 44 -173 62c-127.333 26 -223.5 64.5 -288.5 115.5s-97.5 120.5 -97.5 208.5c0 90.667 37.333 168.834 112 234.501s181 98.5 319 98.5c84 0 163.5 -11.333 238.5 -34
s133.833 -51.667 176.5 -87zM625.001 4.00391l-11.001 -57.002c42.667 -7.33301 78.334 -24.666 107.001 -51.999s43 -67.666 43 -120.999c0 -71.333 -30.5 -128.333 -91.5 -171s-147.5 -64 -259.5 -64l-7 161c34 0 61 6.83301 81 20.5s30 34.5 30 62.5
c0 27.333 -10.667 46.5 -32 57.5s-58 18.167 -110 21.5l31 142h219z" />
    <glyph glyph-name="Scaron" unicode="&#x160;" horiz-adv-x="1242" 
d="M1162 991l-218.997 -0.00292969l-38 200c-25.333 16 -62.333 30 -111 42s-100.334 18 -155.001 18c-80 0 -141.833 -16.833 -185.5 -50.5s-65.5 -77.167 -65.5 -130.5c0 -49.333 22.833 -89.833 68.5 -121.5s124.5 -65.167 236.5 -100.5
c160.667 -44.667 282.5 -103.667 365.5 -177s124.5 -169.666 124.5 -288.999c0 -124.667 -49.333 -223 -148 -295s-228.667 -108 -390 -108c-115.333 0 -219.5 18.333 -312.5 55s-170.5 87.334 -232.5 152.001v304h226l31 -207c29.333 -24 69.166 -43.833 119.499 -59.5
s106.5 -23.5 168.5 -23.5c80 0 140.833 16.333 182.5 49s62.5 76.334 62.5 131.001c0 56 -19.833 101 -59.5 135s-109.167 66 -208.5 96c-172.667 50 -303.334 109.333 -392.001 178s-133 162.667 -133 282c0 118 50 214.5 150 289.5s225.667 113.5 377 115.5
c112 0 214 -17 306 -51s169.333 -79.333 232 -136v-298zM614.003 1726l132 140h248v-17l-280 -255h-200l-281 256v16h249z" />
    <glyph glyph-name="scaron" unicode="&#x161;" horiz-adv-x="1054" 
d="M946 710l-195.999 0.00390625l-31 135c-20 16 -45.167 29.333 -75.5 40s-63.833 16 -100.5 16c-51.333 0 -92 -11.5 -122 -34.5s-45 -51.833 -45 -86.5c0 -32.667 14.333 -59.834 43 -81.501s86 -40.834 172 -57.501c134 -26.667 233.333 -65.834 298 -117.501
s97 -122.834 97 -213.501c0 -97.333 -41.833 -176.833 -125.5 -238.5s-193.834 -92.5 -330.501 -92.5c-83.333 0 -159.833 12.167 -229.5 36.5s-131.5 59.166 -185.5 104.499l-3 243h204l40 -141c17.333 -14.667 41 -25.5 71 -32.5s61.333 -10.5 94 -10.5
c59.333 0 104.5 10.667 135.5 32s46.5 50.333 46.5 87c0 32 -15.667 59.667 -47 83s-89 44 -173 62c-127.333 26 -223.5 64.5 -288.5 115.5s-97.5 120.5 -97.5 208.5c0 90.667 37.333 168.834 112 234.501s181 98.5 319 98.5c84 0 163.5 -11.333 238.5 -34
s133.833 -51.667 176.5 -87zM515.001 1406l132 140h248v-17l-280 -255h-200l-281 256v16h249z" />
    <glyph glyph-name="uni0162" unicode="&#x162;" horiz-adv-x="1377" 
d="M1338 1456v-388h-224l-12 163h-268v-1026l156 -30v-175h-604v175l156 30v1026h-267l-12 -163h-223v388h1298zM788 12l-11.001 -57.002c42.667 -7.33301 78.334 -24.666 107.001 -51.999s43 -67.666 43 -120.999c0 -71.333 -30.5 -128.333 -91.5 -171
s-147.5 -64 -259.5 -64l-7 161c34 0 61 6.83301 81 20.5s30 34.5 30 62.5c0 27.333 -10.667 46.5 -32 57.5s-58 18.167 -110 21.5l31 142h219z" />
    <glyph glyph-name="uni0163" unicode="&#x163;" horiz-adv-x="764" 
d="M494 1347l0.000976562 -265h190v-205h-190v-551c0 -42 8.66699 -72 26 -90s40.666 -27 69.999 -27c20 0 37.5 0.833008 52.5 2.5s31.833 4.5 50.5 8.5l25 -211c-32.667 -10 -65 -17.5 -97 -22.5s-66.667 -7.5 -104 -7.5c-100.667 0 -178.167 27.667 -232.5 83
s-81.5 143 -81.5 263v552h-159v205h159v265h291zM567.001 6l-11.001 -57.002c42.667 -7.33301 78.334 -24.666 107.001 -51.999s43 -67.666 43 -120.999c0 -71.333 -30.5 -128.333 -91.5 -171s-147.5 -64 -259.5 -64l-7 161c34 0 61 6.83301 81 20.5s30 34.5 30 62.5
c0 27.333 -10.667 46.5 -32 57.5s-58 18.167 -110 21.5l31 142h219z" />
    <glyph glyph-name="Tcaron" unicode="&#x164;" horiz-adv-x="1377" 
d="M1338 1456v-388h-224l-12 163h-268v-1026l156 -30v-175h-604v175l156 30v1026h-267l-12 -163h-223v388h1298zM672 1726l132 140h248v-17l-280 -255h-200l-281 256v16h249z" />
    <glyph glyph-name="tcaron" unicode="&#x165;" horiz-adv-x="804" 
d="M494 1347l0.000976562 -265h190v-205h-190v-551c0 -42 8.66699 -72 26 -90s40.666 -27 69.999 -27c20 0 37.5 0.833008 52.5 2.5s31.833 4.5 50.5 8.5l25 -211c-32.667 -10 -65 -17.5 -97 -22.5s-66.667 -7.5 -104 -7.5c-100.667 0 -178.167 27.667 -232.5 83
s-81.5 143 -81.5 263v552h-159v205h159v265h291zM901.001 1491c0 -70 -14.1689 -141.5 -42.502 -214.5s-64.166 -133.5 -107.499 -181.5l-144 78c26.667 47.333 46.834 94.5 60.501 141.5s20.5 101.5 20.5 163.5v133h213v-120z" />
    <glyph glyph-name="Tbar" unicode="&#x166;" horiz-adv-x="1377" 
d="M1338 1456v-388h-224l-12 163h-268v-373h207v-155h-207v-498l156 -30v-175h-604v175l156 30v498h-202v155h202v373h-267l-12 -163h-223v388h1298z" />
    <glyph glyph-name="tbar" unicode="&#x167;" horiz-adv-x="764" 
d="M494 1347l0.000976562 -265h190v-205h-190v-153h209v-155h-209v-243c0 -42 8.66699 -72 26 -90s40.666 -27 69.999 -27c20 0 37.5 0.833008 52.5 2.5s31.833 4.5 50.5 8.5l25 -211c-32.667 -10 -65 -17.5 -97 -22.5s-66.667 -7.5 -104 -7.5
c-100.667 0 -178.167 27.667 -232.5 83s-81.5 143 -81.5 263v244h-201v155h201v153h-159v205h159v265h291z" />
    <glyph glyph-name="Utilde" unicode="&#x168;" horiz-adv-x="1547" 
d="M642 1456l0.000976562 -176l-156 -30v-760c0 -96 25.833 -167.833 77.5 -215.5s122.5 -71.5 212.5 -71.5c91.333 0 163 23.667 215 71s78 119.333 78 216v760l-155 30v176h603v-176l-156 -30v-760c0 -163.333 -53.833 -289.333 -161.5 -378s-248.834 -133 -423.501 -133
c-174 0 -314.5 44.333 -421.5 133s-160.5 214.667 -160.5 378v760l-155 30v176h155h292h156zM1142 1836c0 -64 -19.833 -118.499 -59.5 -163.499s-89.834 -67.5 -150.501 -67.5c-46.667 0 -99.5 14.5 -158.5 43.5s-105.833 43.5 -140.5 43.5
c-24 0 -44.167 -10.833 -60.5 -32.5s-24.5 -47.5 -24.5 -77.5l-155 42c0 62.667 19.833 117.167 59.5 163.5s89.5 69.5 149.5 69.5c37.333 0 87.833 -14.5 151.5 -43.5s112.834 -43.5 147.501 -43.5c23.333 0 43.5 10.667 60.5 32s25.5 47.666 25.5 78.999z" />
    <glyph glyph-name="utilde" unicode="&#x169;" horiz-adv-x="1278" 
d="M820 137c-34.667 -50.667 -77.5 -89.667 -128.5 -117s-109.167 -41 -174.5 -41c-114 0 -203.333 36.5 -268 109.5s-97 186.5 -97 340.5v447l-119 30v176h119h292v-655c0 -78.667 13.167 -135.167 39.5 -169.5s65.5 -51.5 117.5 -51.5c46 0 85.833 7.5 119.5 22.5
s61.167 36.5 82.5 64.5v583l-128 30v176h128h292v-877l131 -30v-175h-387zM971 1514c0 -64 -19.833 -118.499 -59.5 -163.499s-89.834 -67.5 -150.501 -67.5c-46.667 0 -99.5 14.5 -158.5 43.5s-105.833 43.5 -140.5 43.5c-24 0 -44.167 -10.833 -60.5 -32.5
s-24.5 -47.5 -24.5 -77.5l-155 42c0 62.667 19.833 117.167 59.5 163.5s89.5 69.5 149.5 69.5c37.333 0 87.833 -14.5 151.5 -43.5s112.834 -43.5 147.501 -43.5c23.333 0 43.5 10.667 60.5 32s25.5 47.666 25.5 78.999z" />
    <glyph glyph-name="Umacron" unicode="&#x16a;" horiz-adv-x="1547" 
d="M642 1456l0.000976562 -176l-156 -30v-760c0 -96 25.833 -167.833 77.5 -215.5s122.5 -71.5 212.5 -71.5c91.333 0 163 23.667 215 71s78 119.333 78 216v760l-155 30v176h603v-176l-156 -30v-760c0 -163.333 -53.833 -289.333 -161.5 -378s-248.834 -133 -423.501 -133
c-174 0 -314.5 44.333 -421.5 133s-160.5 214.667 -160.5 378v760l-155 30v176h155h292h156zM1131 1617h-731v165h731v-165z" />
    <glyph glyph-name="umacron" unicode="&#x16b;" horiz-adv-x="1278" 
d="M820 137c-34.667 -50.667 -77.5 -89.667 -128.5 -117s-109.167 -41 -174.5 -41c-114 0 -203.333 36.5 -268 109.5s-97 186.5 -97 340.5v447l-119 30v176h119h292v-655c0 -78.667 13.167 -135.167 39.5 -169.5s65.5 -51.5 117.5 -51.5c46 0 85.833 7.5 119.5 22.5
s61.167 36.5 82.5 64.5v583l-128 30v176h128h292v-877l131 -30v-175h-387zM960 1295h-731v165h731v-165z" />
    <glyph glyph-name="Ubreve" unicode="&#x16c;" horiz-adv-x="1547" 
d="M642 1456l0.000976562 -176l-156 -30v-760c0 -96 25.833 -167.833 77.5 -215.5s122.5 -71.5 212.5 -71.5c91.333 0 163 23.667 215 71s78 119.333 78 216v760l-155 30v176h603v-176l-156 -30v-760c0 -163.333 -53.833 -289.333 -161.5 -378s-248.834 -133 -423.501 -133
c-174 0 -314.5 44.333 -421.5 133s-160.5 214.667 -160.5 378v760l-155 30v176h155h292h156zM1109 1883l1.99805 -6c3.33301 -84.667 -26.167 -153.834 -88.5 -207.501s-146.166 -80.5 -251.499 -80.5c-106 0 -190.333 26.833 -253 80.5s-92 122.834 -88 207.501l2 6h198
c0 -38.667 11.333 -70.667 34 -96s58.334 -38 107.001 -38c47.333 0 82.333 12.5 105 37.5s34 57.167 34 96.5h199z" />
    <glyph glyph-name="ubreve" unicode="&#x16d;" horiz-adv-x="1278" 
d="M820 137c-34.667 -50.667 -77.5 -89.667 -128.5 -117s-109.167 -41 -174.5 -41c-114 0 -203.333 36.5 -268 109.5s-97 186.5 -97 340.5v447l-119 30v176h119h292v-655c0 -78.667 13.167 -135.167 39.5 -169.5s65.5 -51.5 117.5 -51.5c46 0 85.833 7.5 119.5 22.5
s61.167 36.5 82.5 64.5v583l-128 30v176h128h292v-877l131 -30v-175h-387zM938 1561l1.99805 -6c3.33301 -84.667 -26.167 -153.834 -88.5 -207.501s-146.166 -80.5 -251.499 -80.5c-106 0 -190.333 26.833 -253 80.5s-92 122.834 -88 207.501l2 6h198
c0 -38.667 11.333 -70.667 34 -96s58.334 -38 107.001 -38c47.333 0 82.333 12.5 105 37.5s34 57.167 34 96.5h199z" />
    <glyph glyph-name="Uring" unicode="&#x16e;" horiz-adv-x="1547" 
d="M642 1456l0.000976562 -176l-156 -30v-760c0 -96 25.833 -167.833 77.5 -215.5s122.5 -71.5 212.5 -71.5c91.333 0 163 23.667 215 71s78 119.333 78 216v760l-155 30v176h603v-176l-156 -30v-760c0 -163.333 -53.833 -289.333 -161.5 -378s-248.834 -133 -423.501 -133
c-174 0 -314.5 44.333 -421.5 133s-160.5 214.667 -160.5 378v760l-155 30v176h155h292h156zM566.001 1745c0 55.333 20.501 101.833 61.501 139.5s91.5 56.5 151.5 56.5c58.667 0 108.167 -18.833 148.5 -56.5s60.5 -84.167 60.5 -139.5c0 -56 -20.167 -102 -60.5 -138
s-89.833 -54 -148.5 -54c-60.667 0 -111.334 18 -152.001 54s-61 82 -61 138zM681.002 1745c0 -28.667 9.33301 -52.167 28 -70.5s42 -27.5 70 -27.5c27.333 0 49.666 9.16699 66.999 27.5s26 41.833 26 70.5c0 29.333 -8.66699 53.333 -26 72s-39.666 28 -66.999 28
c-28 0 -51.333 -9.5 -70 -28.5s-28 -42.833 -28 -71.5z" />
    <glyph glyph-name="uring" unicode="&#x16f;" horiz-adv-x="1278" 
d="M820 137c-34.667 -50.667 -77.5 -89.667 -128.5 -117s-109.167 -41 -174.5 -41c-114 0 -203.333 36.5 -268 109.5s-97 186.5 -97 340.5v447l-119 30v176h119h292v-655c0 -78.667 13.167 -135.167 39.5 -169.5s65.5 -51.5 117.5 -51.5c46 0 85.833 7.5 119.5 22.5
s61.167 36.5 82.5 64.5v583l-128 30v176h128h292v-877l131 -30v-175h-387zM395 1423c0 55.333 20.501 101.833 61.501 139.5s91.5 56.5 151.5 56.5c58.667 0 108.167 -18.833 148.5 -56.5s60.5 -84.167 60.5 -139.5c0 -56 -20.167 -102 -60.5 -138s-89.833 -54 -148.5 -54
c-60.667 0 -111.334 18 -152.001 54s-61 82 -61 138zM510.001 1423c0 -28.667 9.33301 -52.167 28 -70.5s42 -27.5 70 -27.5c27.333 0 49.666 9.16699 66.999 27.5s26 41.833 26 70.5c0 29.333 -8.66699 53.333 -26 72s-39.666 28 -66.999 28c-28 0 -51.333 -9.5 -70 -28.5
s-28 -42.833 -28 -71.5z" />
    <glyph glyph-name="Uhungarumlaut" unicode="&#x170;" horiz-adv-x="1547" 
d="M642 1456l0.000976562 -176l-156 -30v-760c0 -96 25.833 -167.833 77.5 -215.5s122.5 -71.5 212.5 -71.5c91.333 0 163 23.667 215 71s78 119.333 78 216v760l-155 30v176h603v-176l-156 -30v-760c0 -163.333 -53.833 -289.333 -161.5 -378s-248.834 -133 -423.501 -133
c-174 0 -314.5 44.333 -421.5 133s-160.5 214.667 -160.5 378v760l-155 30v176h155h292h156zM1003 1867h263l2 -6l-285 -260h-218l-2 5zM615.001 1867h260l2 -5l-240 -261h-221z" />
    <glyph glyph-name="uhungarumlaut" unicode="&#x171;" horiz-adv-x="1278" 
d="M820 137c-34.667 -50.667 -77.5 -89.667 -128.5 -117s-109.167 -41 -174.5 -41c-114 0 -203.333 36.5 -268 109.5s-97 186.5 -97 340.5v447l-119 30v176h119h292v-655c0 -78.667 13.167 -135.167 39.5 -169.5s65.5 -51.5 117.5 -51.5c46 0 85.833 7.5 119.5 22.5
s61.167 36.5 82.5 64.5v583l-128 30v176h128h292v-877l131 -30v-175h-387zM832 1545h263l2 -6l-285 -260h-218l-2 5zM444 1545h260l2 -5l-240 -261h-221z" />
    <glyph glyph-name="Uogonek" unicode="&#x172;" horiz-adv-x="1547" 
d="M642 1456l0.000976562 -176l-156 -30v-760c0 -96 25.833 -167.833 77.5 -215.5s122.5 -71.5 212.5 -71.5c91.333 0 163 23.667 215 71s78 119.333 78 216v760l-155 30v176h603v-176l-156 -30v-760c0 -163.333 -53.833 -289.333 -161.5 -378s-248.834 -133 -423.501 -133
c-174 0 -314.5 44.333 -421.5 133s-160.5 214.667 -160.5 378v760l-155 30v176h155h292h156zM874.001 -2c-35.333 -35.333 -61.332 -65.3311 -77.999 -89.998s-25 -53.334 -25 -86.001c0 -18 5.5 -34.167 16.5 -48.5s33.833 -21.5 68.5 -21.5c18.667 0 35.167 2 49.5 6
s29.166 8.66699 44.499 14l35 -154c-24 -12.667 -50.667 -23.167 -80 -31.5s-64.333 -12.5 -105 -12.5c-72.667 0 -132.167 18.833 -178.5 56.5s-69.5 90.167 -69.5 157.5c0 51.333 15.333 100.166 46 146.499s78.667 87.5 144 123.5z" />
    <glyph glyph-name="uogonek" unicode="&#x173;" horiz-adv-x="1278" 
d="M820 137c-34.667 -50.667 -77.5 -89.667 -128.5 -117s-109.167 -41 -174.5 -41c-114 0 -203.333 36.5 -268 109.5s-97 186.5 -97 340.5v447l-119 30v176h119h292v-655c0 -78.667 13.167 -135.167 39.5 -169.5s65.5 -51.5 117.5 -51.5c46 0 85.833 7.5 119.5 22.5
s61.167 36.5 82.5 64.5v583l-128 30v176h128h292v-877l131 -30v-175h-387zM1226 0c-35.333 -35.333 -61.332 -65.3311 -77.999 -89.998s-25 -53.334 -25 -86.001c0 -18 5.5 -34.167 16.5 -48.5s33.833 -21.5 68.5 -21.5c18.667 0 35.167 2 49.5 6s29.166 8.66699 44.499 14
l35 -154c-24 -12.667 -50.667 -23.167 -80 -31.5s-64.333 -12.5 -105 -12.5c-72.667 0 -132.167 18.833 -178.5 56.5s-69.5 90.167 -69.5 157.5c0 51.333 15.333 100.166 46 146.499s78.667 87.5 144 123.5z" />
    <glyph glyph-name="Wcircumflex" unicode="&#x174;" horiz-adv-x="1972" 
d="M1942 1280l-120 -15l-295 -1265h-271l-267 961h-6l-267 -961h-271l-297 1265l-119 15v176h536v-176l-133 -23l167 -798l6 -1l273 998h215l275 -998l6 1l166 798l-133 23v176h535v-176zM1334 1604v-23h-217l-155 146l-154 -146h-212v26l282 240h169z" />
    <glyph glyph-name="wcircumflex" unicode="&#x175;" horiz-adv-x="1642" 
d="M1605 906l-109 -14l-226 -892h-244l-201 644h-6l-201 -644h-243l-227 892l-109 14v176h490v-176l-115 -22l102 -495h6l202 693h196l204 -695h6l101 496l-116 23v176h490v-176zM1187 1282v-23h-217l-155 146l-154 -146h-212v26l282 240h169z" />
    <glyph glyph-name="Ycircumflex" unicode="&#x176;" horiz-adv-x="1398" 
d="M587 1280l-119 -17l226 -478h6l226 478l-118 17v176h551v-176l-124 -20l-396 -748v-307l156 -30v-175h-603v175l156 30v322l-389 733l-123 20v176h551v-176zM1084 1604v-23h-217l-155 146l-154 -146h-212v26l282 240h169z" />
    <glyph glyph-name="ycircumflex" unicode="&#x177;" horiz-adv-x="1212" 
d="M1183 906l-101.001 -15l-398 -1053c-31.333 -78 -73.166 -143.333 -125.499 -196s-131.166 -79 -236.499 -79c-24.667 0 -47.834 2 -69.501 6s-47.167 9.66699 -76.5 17l34 213l29 -4c10 -1.33301 18.667 -2 26 -2c48.667 0 86 11.833 112 35.5s46 53.167 60 88.5l33 82
l-343 891l-101 16v176h530v-176l-121 -20l148 -432l15 -78l6 -1l171 511l-122 20v176h530v-176zM960.999 1268v-23h-217l-155 146l-154 -146h-212v26l282 240h169z" />
    <glyph glyph-name="Ydieresis" unicode="&#x178;" horiz-adv-x="1398" 
d="M587 1280l-119 -17l226 -478h6l226 478l-118 17v176h551v-176l-124 -20l-396 -748v-307l156 -30v-175h-603v175l156 30v322l-389 733l-123 20v176h551v-176zM1083 1601h-267v204h267v-204zM583 1601h-267v204h267v-204z" />
    <glyph glyph-name="Zacute" unicode="&#x179;" horiz-adv-x="1226" 
d="M1143 1456v-146l-713 -1086h507l24 176h222l-22 -400h-1087v152l710 1079h-463l-23 -176h-223l22 401h1046zM637 1827h309l2 -6l-276 -260h-234z" />
    <glyph glyph-name="zacute" unicode="&#x17a;" horiz-adv-x="1070" 
d="M450 224h302l12 144h223v-368h-899v172l515 684h-265l-11 -143h-224v369h866v-167zM565 1504h309l2 -6l-276 -260h-234z" />
    <glyph glyph-name="Zdotaccent" unicode="&#x17b;" horiz-adv-x="1226" 
d="M1143 1456v-146l-713 -1086h507l24 176h222l-22 -400h-1087v152l710 1079h-463l-23 -176h-223l22 401h1046zM753 1602h-305v241h305v-241z" />
    <glyph glyph-name="zdotaccent" unicode="&#x17c;" horiz-adv-x="1070" 
d="M450 224h302l12 144h223v-368h-899v172l515 684h-265l-11 -143h-224v369h866v-167zM681 1279h-305v241h305v-241z" />
    <glyph glyph-name="Zcaron" unicode="&#x17d;" horiz-adv-x="1226" 
d="M1143 1456v-146l-713 -1086h507l24 176h222l-22 -400h-1087v152l710 1079h-463l-23 -176h-223l22 401h1046zM595 1728l132 140h248v-17l-280 -255h-200l-281 256v16h249z" />
    <glyph glyph-name="zcaron" unicode="&#x17e;" horiz-adv-x="1070" 
d="M450 224h302l12 144h223v-368h-899v172l515 684h-265l-11 -143h-224v369h866v-167zM523 1405l132 140h248v-17l-280 -255h-200l-281 256v16h249z" />
    <glyph glyph-name="longs" unicode="&#x17f;" horiz-adv-x="753" 
d="M44 175l139.999 30.001v997c0 121.333 35 214.833 105 280.5s168.333 98.5 295 98.5c24.667 0 49.834 -1.83301 75.501 -5.5s53.834 -8.83398 84.501 -15.501l-24 -215c-18.667 3.33301 -34.834 6 -48.501 8s-29.834 3 -48.501 3c-47.333 0 -83.666 -13.5 -108.999 -40.5
s-38 -64.833 -38 -113.5v-997l155 -30v-175h-587v175z" />
    <glyph glyph-name="florin" unicode="&#x192;" horiz-adv-x="797" 
d="M714 877l-207.001 0.000976562l-1 -917c0 -126.667 -33.667 -224.5 -101 -293.5s-161 -103.5 -281 -103.5c-26.667 0 -51.167 1.33301 -73.5 4s-45.5 7 -69.5 13l15 221c14 -4 29.333 -7.16699 46 -9.5s34 -3.5 52 -3.5c38 0 67.5 15 88.5 45s31.5 72.333 31.5 127v917
h-160v205h160v120c0 121.333 35 214.833 105 280.5s168.667 98.5 296 98.5c24.667 0 49.5 -1.83301 74.5 -5.5s53.5 -8.83398 85.5 -15.501l-25 -217c-15.333 2.66699 -30.833 5 -46.5 7s-33.167 3 -52.5 3c-47.333 0 -83.166 -13 -107.499 -39s-36.5 -63.333 -36.5 -112
v-120h207v-205z" />
    <glyph glyph-name="Ohorn" unicode="&#x1a0;" horiz-adv-x="1490" 
d="M1391 717c0 -213.333 -60.998 -389.666 -182.998 -528.999s-281.667 -209 -479 -209c-196.667 0 -355.5 69.667 -476.5 209s-181.5 315.666 -181.5 528.999v22c0 212 60.333 388 181 528s279.334 210 476.001 210c86.667 0 167.167 -14.667 241.5 -44
s140.166 -70.666 197.499 -123.999c31.333 18 53.666 48.667 66.999 92s20 99.666 20 168.999h195c0 -98 -14.333 -180.167 -43 -246.5s-72.334 -115.5 -131.001 -147.5c37.333 -61.333 66 -129 86 -203s30 -152 30 -234v-22zM1100 741c0 150.667 -31.332 273 -93.999 367
s-155.334 141 -278.001 141s-214.167 -46.667 -274.5 -140s-90.5 -216 -90.5 -368v-24c0 -153.333 30.5 -276.833 91.5 -370.5s152.5 -140.5 274.5 -140.5c123.333 0 216 46.833 278 140.5s93 217.167 93 370.5v24z" />
    <glyph glyph-name="ohorn" unicode="&#x1a1;" horiz-adv-x="1270" 
d="M78 551c0 161.333 45.167 293.501 135.5 396.501s215.166 154.5 374.499 154.5c76 0 144.833 -12.667 206.5 -38s114.834 -61 159.501 -107c26 19.333 44.333 47.666 55 84.999s16 85 16 143h175c0 -85.333 -13.5 -156.833 -40.5 -214.5s-68.5 -100.5 -124.5 -128.5
c20.667 -42.667 36.5 -88.5 47.5 -137.5s16.5 -100.167 16.5 -153.5v-21c0 -162.667 -45.167 -295.167 -135.5 -397.5s-214.833 -153.5 -373.5 -153.5c-160.667 0 -286.167 51.167 -376.5 153.5s-135.5 234.833 -135.5 397.5v21zM370 530.001
c0 -98.667 17.333 -177.833 52 -237.5s90.667 -89.5 168 -89.5c75.333 0 130.5 30 165.5 90s52.5 139 52.5 237v21c0 96 -17.667 174.333 -53 235s-91 91 -167 91s-131.333 -30.333 -166 -91s-52 -139 -52 -235v-21z" />
    <glyph glyph-name="Uhorn" unicode="&#x1af;" horiz-adv-x="1774" 
d="M1357 1178l6.00098 -1.00098c85.333 1.33301 141.166 26.833 167.499 76.5s39.5 129.167 39.5 238.5h189l2 -5c2 -152.667 -27.667 -268.667 -89 -348s-166.333 -121.666 -315 -126.999v-522c0 -163.333 -54 -289.333 -162 -378s-249.333 -133 -424 -133
c-174 0 -314.5 44.333 -421.5 133s-160.5 214.667 -160.5 378v760l-155 30v176h155h293h155v-176l-155 -30v-760c0 -96 25.667 -167.833 77 -215.5s122 -71.5 212 -71.5c91.333 0 163 23.667 215 71s78 119.333 78 216v760l-155 30v176h448v-278z" />
    <glyph glyph-name="uhorn" unicode="&#x1b0;" horiz-adv-x="1373" 
d="M1107 1082v-124l6 -1c43.333 7.33301 72 28 86 62s21 86.333 21 157h171c0 -111.333 -21.667 -196.833 -65 -256.5s-116.333 -96.5 -219 -110.5v-604l131 -30v-175h-387l-19 137c-34.667 -50.667 -77.5 -89.667 -128.5 -117s-109.167 -41 -174.5 -41
c-114 0 -203.333 36.5 -268 109.5s-97 186.5 -97 340.5v447l-119 30v176h119h292v-655c0 -78.667 13.167 -135.167 39.5 -169.5s65.5 -51.5 117.5 -51.5c46 0 85.833 7.5 119.5 22.5s61.167 36.5 82.5 64.5v583l-128 30v176h128h292z" />
    <glyph glyph-name="uni01F0" unicode="&#x1f0;" horiz-adv-x="621" 
d="M506 -40c0 -127.333 -33.501 -225.333 -100.501 -294s-160.5 -103 -280.5 -103c-27.333 0 -52.166 1.33301 -74.499 4s-45.5 7 -69.5 13l15 221c14 -4 29.333 -7.16699 46 -9.5s34 -3.5 52 -3.5c38 0 67.667 15 89 45s32 72.333 32 127v916l-156 30v176h447v-1122z
M271.999 1390l132 140h248v-17l-280 -255h-200l-281 256v16h249z" />
    <glyph glyph-name="Aringacute" unicode="&#x1fa;" 
d="M41 175l104 15l443 1266h299l440 -1266l104 -15v-175h-496v175l101 18l-64 200h-472l-64 -200l101 -18v-175h-496v175zM569 608h334l-164 513h-6zM850 2014h254l2 -6l-263 -199h-174l-2 5zM532 1584c0 52 19.5 95.667 58.5 131s87.167 53 144.5 53
c56 0 103.167 -17.667 141.5 -53s57.5 -79 57.5 -131c0 -53.333 -19.167 -97 -57.5 -131s-85.5 -51 -141.5 -51c-57.333 0 -105.5 17.167 -144.5 51.5s-58.5 77.833 -58.5 130.5zM645 1584c0 -26 8.5 -47.167 25.5 -63.5s38.5 -24.5 64.5 -24.5
c24.667 0 45.167 8.16699 61.5 24.5s24.5 37.5 24.5 63.5s-8.16699 47.5 -24.5 64.5s-36.833 25.5 -61.5 25.5c-26 0 -47.5 -8.5 -64.5 -25.5s-25.5 -38.5 -25.5 -64.5z" />
    <glyph glyph-name="aringacute" unicode="&#x1fb;" horiz-adv-x="1125" 
d="M752 0c-8 18 -14.998 36.5029 -20.998 55.5029s-10.667 38.167 -14 57.5c-34.667 -40 -76.834 -72.333 -126.501 -97s-106.5 -37 -170.5 -37c-106 0 -190.167 28.833 -252.5 86.5s-93.5 136.167 -93.5 235.5c0 101.333 40.667 179.666 122 234.999s200.666 83 357.999 83
h149v106c0 52 -15 92.333 -45 121s-74.333 43 -133 43c-33.333 0 -63 -3.83301 -89 -11.5s-47 -16.834 -63 -27.501l-19 -116h-220l1 240c53.333 36 114.5 66.333 183.5 91s144.167 37 225.5 37c134 0 242.833 -32.833 326.5 -98.5s125.5 -159.167 125.5 -280.5v-447
c0 -16.667 0.166992 -32.334 0.5 -47.001s1.5 -28.667 3.5 -42l89 -12v-175h-337zM499.002 195.003c44 0 84 9.50098 120 28.501s64 42.833 84 71.5v165h-149c-62 0 -109 -14.5 -141 -43.5s-48 -63.833 -48 -104.5c0 -36.667 11.833 -65.334 35.5 -86.001s56.5 -31 98.5 -31
zM693.002 1691h254l2 -6l-263 -199h-174l-2 5zM375.002 1261c0 52 19.5 95.667 58.5 131s87.167 53 144.5 53c56 0 103.167 -17.667 141.5 -53s57.5 -79 57.5 -131c0 -53.333 -19.167 -97 -57.5 -131s-85.5 -51 -141.5 -51c-57.333 0 -105.5 17.167 -144.5 51.5
s-58.5 77.833 -58.5 130.5zM488.002 1261c0 -26 8.5 -47.167 25.5 -63.5s38.5 -24.5 64.5 -24.5c24.667 0 45.167 8.16699 61.5 24.5s24.5 37.5 24.5 63.5s-8.16699 47.5 -24.5 64.5s-36.833 25.5 -61.5 25.5c-26 0 -47.5 -8.5 -64.5 -25.5s-25.5 -38.5 -25.5 -64.5z" />
    <glyph glyph-name="AEacute" unicode="&#x1fc;" horiz-adv-x="2047" 
d="M66 175l136 20l678 1261h1017v-369h-223l-11 141h-362l16 -366h499v-227h-490l17 -408h381l12 141h222v-368h-1052v175l146 28l-6 151h-430l-83 -165l84 -14v-175h-551v175zM730 582h306l-23 554l-5 1zM1125 1825h309l2 -6l-276 -260h-234z" />
    <glyph glyph-name="aeacute" unicode="&#x1fd;" horiz-adv-x="1784" 
d="M1273 -21c-86 0 -162.5 13.501 -229.5 40.501s-122.833 65.833 -167.5 116.5c-40 -45.333 -93.833 -82.833 -161.5 -112.5s-147.834 -44.5 -240.501 -44.5c-128 0 -226.833 30.167 -296.5 90.5s-104.5 142.833 -104.5 247.5c0 106 42.333 187.667 127 245s208 86 370 86
h181v59c0 52.667 -13.667 94.167 -41 124.5s-65.666 45.5 -114.999 45.5c-54 0 -96.333 -12.5 -127 -37.5s-46 -56.167 -46 -93.5l-283 18l-2 6c-4 96 36.5 175.333 121.5 238s198.167 94 339.5 94c68 0 130 -9.16699 186 -27.5s103.667 -44.833 143 -79.5
c40.667 34.667 88.167 61.167 142.5 79.5s114.5 27.5 180.5 27.5c141.333 0 252.333 -44 333 -132s121 -207.333 121 -358v-158h-650l-2 -6c2.66699 -74.667 24.667 -134.167 66 -178.5s103.333 -66.5 186 -66.5c61.333 0 112.666 6.66699 153.999 20s88 33.666 140 60.999
l77 -184c-41.333 -32 -97.666 -60.167 -168.999 -84.5s-149 -36.5 -233 -36.5zM530 185.001c38.667 0 78.998 10.167 120.998 30.5s75.333 44.5 100 72.5v176h-179c-65.333 0 -116.166 -14.667 -152.499 -44s-54.5 -65 -54.5 -107c0 -39.333 13.833 -70.5 41.5 -93.5
s68.834 -34.5 123.501 -34.5zM1250 877.001c-63.333 0 -110.668 -20.5 -142.001 -61.5s-49.333 -96.5 -54 -166.5l2 -5h362v28c0 62.667 -14.167 112.5 -42.5 149.5s-70.166 55.5 -125.499 55.5zM889.996 1503h309l2 -6l-276 -260h-234z" />
    <glyph glyph-name="Oslashacute" unicode="&#x1fe;" horiz-adv-x="1400" 
d="M1392 717c0 -213.333 -61.001 -389.669 -183.001 -529.002s-281.667 -209 -479 -209c-62.667 0 -122 7.5 -178 22.5s-107.667 37.167 -155 66.5l-95 -163h-144l139 239c-72 66.667 -127.5 149.334 -166.5 248.001s-58.5 207 -58.5 325v22c0 212 60.333 388 181 528
s279.334 210 476.001 210c55.333 0 108.333 -6.16699 159 -18.5s98.667 -30.166 144 -53.499l66 113h144l-106 -181c81.333 -67.333 144.333 -152.833 189 -256.5s67 -217.5 67 -341.5v-22zM1101 740.997c0 74.667 -8 143.333 -24 206s-39.333 114.667 -70 156l-6 1
l-482 -827c27.333 -23.333 58.5 -41 93.5 -53s74.167 -18 117.5 -18c123.333 0 216 46.833 278 140.5s93 217.167 93 370.5v24zM363.999 716.996c0 -66.667 5.66895 -128.168 17.002 -184.501s28.666 -104.166 51.999 -143.499l6 -1l473 812
c-26 15.333 -54.333 27.333 -85 36s-63.334 13 -98.001 13c-122.667 0 -214.167 -46.667 -274.5 -140s-90.5 -216 -90.5 -368v-24zM736.001 1825h309l2 -6l-276 -260h-234z" />
    <glyph glyph-name="oslashacute" unicode="&#x1ff;" horiz-adv-x="1178" 
d="M76 551c0 161.333 45.1699 293.498 135.503 396.498s215.166 154.5 374.499 154.5c30 0 59 -2.16699 87 -6.5s55.667 -10.166 83 -17.499l67 137h162l-98 -201c67.333 -48 119.166 -112.167 155.499 -192.5s54.5 -170.5 54.5 -270.5v-21
c0 -162.667 -45.167 -295.167 -135.5 -397.5s-214.833 -153.5 -373.5 -153.5c-35.333 0 -69 2.66699 -101 8s-62.333 13 -91 23l-74 -151h-162l108 221c-62.667 48 -110.334 110.833 -143.001 188.5s-49 164.834 -49 261.501v21zM806.003 550.998
c0 41.333 -3.33203 79.833 -9.99902 115.5s-16.334 65.5 -29.001 89.5h-6l-262 -535c12 -6 25.5 -10.5 40.5 -13.5s31.167 -4.5 48.5 -4.5c75.333 0 130.5 30 165.5 90s52.5 139 52.5 237v21zM368.004 529.998c0 -36.667 2.16699 -70.332 6.5 -100.999
s11.166 -56.334 20.499 -77.001l5 -1l253 516c-10.667 2.66699 -21.667 5 -33 7s-22.666 3 -33.999 3c-76 0 -131.333 -30.333 -166 -91s-52 -139 -52 -235v-21zM569.004 1499h309l2 -6l-276 -260h-234z" />
    <glyph glyph-name="uni0218" unicode="&#x218;" horiz-adv-x="1242" 
d="M1162 991l-218.997 -0.00292969l-38 200c-25.333 16 -62.333 30 -111 42s-100.334 18 -155.001 18c-80 0 -141.833 -16.833 -185.5 -50.5s-65.5 -77.167 -65.5 -130.5c0 -49.333 22.833 -89.833 68.5 -121.5s124.5 -65.167 236.5 -100.5
c160.667 -44.667 282.5 -103.667 365.5 -177s124.5 -169.666 124.5 -288.999c0 -124.667 -49.333 -223 -148 -295s-228.667 -108 -390 -108c-115.333 0 -219.5 18.333 -312.5 55s-170.5 87.334 -232.5 152.001v304h226l31 -207c29.333 -24 69.166 -43.833 119.499 -59.5
s106.5 -23.5 168.5 -23.5c80 0 140.833 16.333 182.5 49s62.5 76.334 62.5 131.001c0 56 -19.833 101 -59.5 135s-109.167 66 -208.5 96c-172.667 50 -303.334 109.333 -392.001 178s-133 162.667 -133 282c0 118 50 214.5 150 289.5s225.667 113.5 377 115.5
c112 0 214 -17 306 -51s169.333 -79.333 232 -136v-298zM752.003 -218.003c0 -70 -14.1689 -141.5 -42.502 -214.5s-64.166 -133.5 -107.499 -181.5l-144 78c26.667 47.333 46.834 94.5 60.501 141.5s20.5 101.5 20.5 163.5v133h213v-120z" />
    <glyph glyph-name="uni0219" unicode="&#x219;" horiz-adv-x="1054" 
d="M946 710l-195.999 0.00390625l-31 135c-20 16 -45.167 29.333 -75.5 40s-63.833 16 -100.5 16c-51.333 0 -92 -11.5 -122 -34.5s-45 -51.833 -45 -86.5c0 -32.667 14.333 -59.834 43 -81.501s86 -40.834 172 -57.501c134 -26.667 233.333 -65.834 298 -117.501
s97 -122.834 97 -213.501c0 -97.333 -41.833 -176.833 -125.5 -238.5s-193.834 -92.5 -330.501 -92.5c-83.333 0 -159.833 12.167 -229.5 36.5s-131.5 59.166 -185.5 104.499l-3 243h204l40 -141c17.333 -14.667 41 -25.5 71 -32.5s61.333 -10.5 94 -10.5
c59.333 0 104.5 10.667 135.5 32s46.5 50.333 46.5 87c0 32 -15.667 59.667 -47 83s-89 44 -173 62c-127.333 26 -223.5 64.5 -288.5 115.5s-97.5 120.5 -97.5 208.5c0 90.667 37.333 168.834 112 234.501s181 98.5 319 98.5c84 0 163.5 -11.333 238.5 -34
s133.833 -51.667 176.5 -87zM635.001 -217.996c0 -70 -14.1689 -141.5 -42.502 -214.5s-64.166 -133.5 -107.499 -181.5l-144 78c26.667 47.333 46.834 94.5 60.501 141.5s20.5 101.5 20.5 163.5v133h213v-120z" />
    <glyph glyph-name="uni021A" unicode="&#x21a;" horiz-adv-x="1377" 
d="M1338 1456v-388h-224l-12 163h-268v-1026l156 -30v-175h-604v175l156 30v1026h-267l-12 -163h-223v388h1298zM798 -209c0 -70 -14.1689 -141.5 -42.502 -214.5s-64.166 -133.5 -107.499 -181.5l-144 78c26.667 47.333 46.834 94.5 60.501 141.5s20.5 101.5 20.5 163.5
v133h213v-120z" />
    <glyph glyph-name="uni021B" unicode="&#x21b;" horiz-adv-x="764" 
d="M494 1347l0.000976562 -265h190v-205h-190v-551c0 -42 8.66699 -72 26 -90s40.666 -27 69.999 -27c20 0 37.5 0.833008 52.5 2.5s31.833 4.5 50.5 8.5l25 -211c-32.667 -10 -65 -17.5 -97 -22.5s-66.667 -7.5 -104 -7.5c-100.667 0 -178.167 27.667 -232.5 83
s-81.5 143 -81.5 263v552h-159v205h159v265h291zM577.001 -215c0 -70 -14.1689 -141.5 -42.502 -214.5s-64.166 -133.5 -107.499 -181.5l-144 78c26.667 47.333 46.834 94.5 60.501 141.5s20.5 101.5 20.5 163.5v133h213v-120z" />
    <glyph glyph-name="uni0237" unicode="&#x237;" horiz-adv-x="621" 
d="M506 -40c0 -127.333 -33.501 -225.333 -100.501 -294s-160.5 -103 -280.5 -103c-27.333 0 -52.166 1.33301 -74.499 4s-45.5 7 -69.5 13l15 221c14 -4 29.333 -7.16699 46 -9.5s34 -3.5 52 -3.5c38 0 67.667 15 89 45s32 72.333 32 127v916l-156 30v176h447v-1122z" />
    <glyph glyph-name="schwa" unicode="&#x259;" horiz-adv-x="1119" 
d="M527 1104c156 0 280.666 -50.167 373.999 -150.5s140 -227.5 140 -381.5v-40c0 -162 -44.167 -294.5 -132.5 -397.5s-206.5 -154.167 -354.5 -153.5c-147.333 0 -261.166 43.833 -341.499 131.5s-120.5 206.5 -120.5 356.5v159h646l2 6
c-5.33301 70.667 -29.166 129.167 -71.499 175.5s-99.833 69.5 -172.5 69.5c-65.333 0 -119.333 -6.66699 -162 -20s-88.667 -33.666 -138 -60.999l-80 180c44 35.333 101.667 65.166 173 89.499s150.666 36.5 237.999 36.5zM553.999 205c53.333 0 95.5 20.501 126.5 61.501
s50.5 95.5 58.5 163.5l-3 5h-357v-26c0 -62.667 14.333 -112.334 43 -149.001s72.667 -55 132 -55z" />
    <glyph glyph-name="uni02BC" unicode="&#x2bc;" horiz-adv-x="471" 
d="M385 1369c0 -66.667 -17.667 -136.833 -53 -210.5s-78.333 -133.834 -129 -180.501l-144 79c26 46 46 93.833 60 143.5s21 105.834 21 168.501v191h245v-191z" />
    <glyph glyph-name="circumflex" unicode="&#x2c6;" horiz-adv-x="890" 
d="M828 1275v-23h-217l-155 146l-154 -146h-212v26l282 240h169z" />
    <glyph glyph-name="caron" unicode="&#x2c7;" horiz-adv-x="874" 
d="M450 1384l132 140h248v-17l-280 -255h-200l-281 256v16h249z" />
    <glyph glyph-name="breve" unicode="&#x2d8;" horiz-adv-x="873" 
d="M785 1456l1.99805 -6c3.33301 -84.667 -26.167 -153.834 -88.5 -207.501s-146.166 -80.5 -251.499 -80.5c-106 0 -190.333 26.833 -253 80.5s-92 122.834 -88 207.501l2 6h198c0 -38.667 11.333 -70.667 34 -96s58.334 -38 107.001 -38c47.333 0 82.333 12.5 105 37.5
s34 57.167 34 96.5h199z" />
    <glyph glyph-name="dotaccent" unicode="&#x2d9;" horiz-adv-x="556" 
d="M442 1227h-305v241h305v-241z" />
    <glyph glyph-name="ring" unicode="&#x2da;" horiz-adv-x="654" 
d="M114 1298c0 55.333 20.501 101.833 61.501 139.5s91.5 56.5 151.5 56.5c58.667 0 108.167 -18.833 148.5 -56.5s60.5 -84.167 60.5 -139.5c0 -56 -20.167 -102 -60.5 -138s-89.833 -54 -148.5 -54c-60.667 0 -111.334 18 -152.001 54s-61 82 -61 138zM229.001 1298
c0 -28.667 9.33301 -52.167 28 -70.5s42 -27.5 70 -27.5c27.333 0 49.666 9.16699 66.999 27.5s26 41.833 26 70.5c0 29.333 -8.66699 53.333 -26 72s-39.666 28 -66.999 28c-28 0 -51.333 -9.5 -70 -28.5s-28 -42.833 -28 -71.5z" />
    <glyph glyph-name="ogonek" unicode="&#x2db;" horiz-adv-x="467" 
d="M362 0c-35.333 -35.333 -61.332 -65.3311 -77.999 -89.998s-25 -53.334 -25 -86.001c0 -18 5.5 -34.167 16.5 -48.5s33.833 -21.5 68.5 -21.5c18.667 0 35.167 2 49.5 6s29.166 8.66699 44.499 14l35 -154c-24 -12.667 -50.667 -23.167 -80 -31.5
s-64.333 -12.5 -105 -12.5c-72.667 0 -132.167 18.833 -178.5 56.5s-69.5 90.167 -69.5 157.5c0 51.333 15.333 100.166 46 146.499s78.667 87.5 144 123.5z" />
    <glyph glyph-name="tilde" unicode="&#x2dc;" horiz-adv-x="950" 
d="M857 1484c0 -64 -19.833 -118.499 -59.5 -163.499s-89.834 -67.5 -150.501 -67.5c-46.667 0 -99.5 14.5 -158.5 43.5s-105.833 43.5 -140.5 43.5c-24 0 -44.167 -10.833 -60.5 -32.5s-24.5 -47.5 -24.5 -77.5l-155 42c0 62.667 19.833 117.167 59.5 163.5
s89.5 69.5 149.5 69.5c37.333 0 87.833 -14.5 151.5 -43.5s112.834 -43.5 147.501 -43.5c23.333 0 43.5 10.667 60.5 32s25.5 47.666 25.5 78.999z" />
    <glyph glyph-name="hungarumlaut" unicode="&#x2dd;" horiz-adv-x="971" 
d="M677 1518h263l2 -6l-285 -260h-218l-2 5zM289 1518h260l2 -5l-240 -261h-221z" />
    <glyph glyph-name="uni02F3" unicode="&#x2f3;" horiz-adv-x="447" 
d="M46 -254c0 47.333 17.667 86.667 53 118s79 47 131 47c50.667 0 93.334 -15.667 128.001 -47s52 -70.666 52 -117.999c0 -46.667 -17.333 -85.334 -52 -116.001s-77.334 -46 -128.001 -46c-52 0 -95.667 15.5 -131 46.5s-53 69.5 -53 115.5zM159 -253.999
c0 -19.333 6.66699 -35.5 20 -48.5s30.333 -19.5 51 -19.5c18.667 0 34.334 6.5 47.001 19.5s19 29.167 19 48.5c0 21.333 -6.33301 38.5 -19 51.5s-28.334 19.5 -47.001 19.5c-20.667 0 -37.667 -6.5 -51 -19.5s-20 -30.167 -20 -51.5z" />
    <glyph glyph-name="gravecomb" unicode="&#x300;" horiz-adv-x="528" 
d="M444 1197h-177l-189 313h231z" />
    <glyph glyph-name="acutecomb" unicode="&#x301;" horiz-adv-x="521" 
d="M228 1516h230l-191 -314h-174z" />
    <glyph glyph-name="tildecomb" unicode="&#x303;" horiz-adv-x="949" 
d="M-188 1484c0 -64 -19.833 -118.499 -59.5 -163.499s-89.834 -67.5 -150.501 -67.5c-46.667 0 -99.5 14.5 -158.5 43.5s-105.833 43.5 -140.5 43.5c-24 0 -44.167 -10.833 -60.5 -32.5s-24.5 -47.5 -24.5 -77.5l-155 42c0 62.667 19.833 117.167 59.5 163.5
s89.5 69.5 149.5 69.5c37.333 0 87.833 -14.5 151.5 -43.5s112.834 -43.5 147.501 -43.5c23.333 0 43.5 10.667 60.5 32s25.5 47.666 25.5 78.999z" />
    <glyph glyph-name="hook" unicode="&#x309;" horiz-adv-x="612" 
d="M147 1264l-15 137c48.667 2 83.667 8 105 18s32 26 32 48c0 24.667 -12.667 42.334 -38 53.001s-60 16 -104 16l7 133c123.333 0 217.833 -17.333 283.5 -52s98.5 -82.334 98.5 -143.001c0 -42.667 -14.5 -76 -43.5 -100s-64.5 -39 -106.5 -45l-1 -65h-218z" />
    <glyph glyph-name="uni030F" unicode="&#x30f;" horiz-adv-x="982" 
d="M588 1257l-2 -5h-234l-285 260l2 6h279zM934 1252h-235l-240 261l2 5h274z" />
    <glyph glyph-name="dotbelow" unicode="&#x323;" horiz-adv-x="443" 
d="M385 -360h-297v240h297v-240z" />
    <glyph glyph-name="tonos" unicode="&#x384;" horiz-adv-x="514" 
d="M205 1634h278l-210 -364h-144z" />
    <glyph glyph-name="dieresistonos" unicode="&#x385;" horiz-adv-x="1042" 
d="M933 1252h-238v204h238v-204zM370 1252h-238v204h238v-204zM488 1723h281l-176 -325h-147z" />
    <glyph glyph-name="Alphatonos" unicode="&#x386;" 
d="M41 175l104 15l443 1266h299l440 -1266l104 -15v-175h-496v175l101 18l-64 200h-472l-64 -200l101 -18v-175h-496v175zM569 608h334l-164 513h-6zM224 1634h278l-210 -364h-144z" />
    <glyph glyph-name="anoteleia" unicode="&#x387;" horiz-adv-x="553" 
d="M437 568h-292v260h292v-260z" />
    <glyph glyph-name="Epsilontonos" unicode="&#x388;" horiz-adv-x="1408" 
d="M1096 640h-493v-416h470l13 174h222v-398h-1152v175l155 30v1045l-155 30v176h155h995v-399h-224l-13 174h-466v-366h493v-225zM-92 1636h278l-210 -364h-144z" />
    <glyph glyph-name="Etatonos" unicode="&#x389;" horiz-adv-x="1701" 
d="M156 1280v176h603v-176l-156 -30v-420h594v420l-156 30v176h156h291h156v-176l-156 -30v-1045l156 -30v-175h-603v175l156 30v400h-594v-400l156 -30v-175h-603v175l155 30v1045zM-87 1635h278l-210 -364h-144z" />
    <glyph glyph-name="Iotatonos" unicode="&#x38a;" horiz-adv-x="813" 
d="M155 1280v176h603v-176l-156 -30v-1045l156 -30v-175h-603v175l156 30v1045zM-88 1636h278l-210 -364h-144z" />
    <glyph glyph-name="Omicrontonos" unicode="&#x38c;" horiz-adv-x="1468" 
d="M1407 717c0 -213.333 -61 -389.666 -183 -528.999s-281.667 -209 -479 -209c-196.667 0 -355.5 69.667 -476.5 209s-181.5 315.666 -181.5 528.999v22c0 212 60.333 388 181 528s279.334 210 476.001 210c197.333 0 357.166 -70 479.499 -210s183.5 -316 183.5 -528v-22z
M1116 741c0 150.667 -31.332 273 -93.999 367s-155.334 141 -278.001 141s-214.167 -46.667 -274.5 -140s-90.5 -216 -90.5 -368v-24c0 -153.333 30.5 -276.833 91.5 -370.5s152.5 -140.5 274.5 -140.5c123.333 0 216 46.833 278 140.5s93 217.167 93 370.5v24zM52.001 1634
h278l-210 -364h-144z" />
    <glyph glyph-name="Upsilontonos" unicode="&#x38e;" horiz-adv-x="1498" 
d="M687 1280l-119 -17l226 -478h6l226 478l-118 17v176h551v-176l-124 -20l-396 -748v-307l156 -30v-175h-603v175l156 30v322l-389 733l-123 20v176h551v-176zM-94 1631h278l-210 -364h-144z" />
    <glyph glyph-name="Omegatonos" unicode="&#x38f;" horiz-adv-x="1364" 
d="M747 245c68 22.667 121.333 78.8301 160 168.497s58 215.5 58 377.5v47c0 134 -24.167 236 -72.5 306s-115.833 105 -202.5 105c-85.333 0 -151.833 -35.167 -199.5 -105.5s-71.5 -172.166 -71.5 -305.499v-47c0 -163.333 19.5 -289.666 58.5 -378.999
s93.833 -145 164.5 -167v-245h-504v227h256c-88.667 60.667 -160.5 141.334 -215.5 242.001s-82.5 208 -82.5 322v45c0 188 55 341.833 165 461.5s253 179.5 429 179.5s319.5 -59.833 430.5 -179.5s166.5 -273.5 166.5 -461.5v-45c0 -114.667 -27.5 -222 -82.5 -322
s-126.167 -180.667 -213.5 -242h261v-227h-505v245zM17 1634h278l-210 -364h-144z" />
    <glyph glyph-name="iotadieresistonos" unicode="&#x390;" horiz-adv-x="705" 
d="M469 321c0 -43.333 7.33496 -73.332 22.002 -89.999s37.667 -25 69 -25c19.333 0 34.666 1.16699 45.999 3.5s28.333 7.16602 51 14.499l30 -210c-31.333 -13.333 -61 -22.5 -89 -27.5s-60.333 -7.5 -97 -7.5c-104.667 0 -184.834 28.5 -240.501 85.5
s-83.5 143.833 -83.5 260.5v551l-156 30v176h448v-761zM730.002 1214h-238v204h238v-204zM167.002 1214h-238v204h238v-204zM285.002 1685h281l-176 -325h-147z" />
    <glyph glyph-name="Alpha" unicode="&#x391;" 
d="M41 175l104 15l443 1266h299l440 -1266l104 -15v-175h-496v175l101 18l-64 200h-472l-64 -200l101 -18v-175h-496v175zM569 608h334l-164 513h-6z" />
    <glyph glyph-name="Beta" unicode="&#x392;" horiz-adv-x="1354" 
d="M703 1456c171.333 0 305 -33.332 401 -99.999s144 -166.334 144 -299.001c0 -67.333 -17.833 -127.5 -53.5 -180.5s-87.5 -92.833 -155.5 -119.5c87.333 -18.667 152.833 -58.667 196.5 -120s65.5 -132.333 65.5 -213c0 -139.333 -46 -244.833 -138 -316.5
s-222.333 -107.5 -391 -107.5h-716v175l155 30v1045l-155 30v176h155h492zM503 644.001l0.000976562 -420h269c77.333 0 136.333 16.833 177 50.5s61 83.5 61 149.5c0 71.333 -17.333 125.833 -52 163.5s-89.334 56.5 -164.001 56.5h-291zM503.001 846.001h210
c78 0 138 16 180 48s63 78.667 63 140c0 67.333 -21.167 117 -63.5 149s-105.5 48 -189.5 48h-200v-385z" />
    <glyph glyph-name="Gamma" unicode="&#x393;" horiz-adv-x="1223" 
d="M65 175l155 30v1045l-155 30v176h1104v-369h-224l-12 144h-421v-1026l156 -30v-175h-603v175z" />
    <glyph glyph-name="Delta" unicode="&#x394;" horiz-adv-x="1460" 
d="M595 1456h299l573 -1456h-1455zM402 224h676l-332 886h-6z" />
    <glyph glyph-name="Delta" unicode="&#x2206;" horiz-adv-x="1460" 
d="M595 1456h299l573 -1456h-1455zM402 224h676l-332 886h-6z" />
    <glyph glyph-name="Epsilon" unicode="&#x395;" horiz-adv-x="1308" 
d="M996 640h-493v-416h470l13 174h222v-398h-1152v175l155 30v1045l-155 30v176h155h995v-399h-224l-13 174h-466v-366h493v-225z" />
    <glyph glyph-name="Zeta" unicode="&#x396;" horiz-adv-x="1226" 
d="M1143 1456v-146l-713 -1086h507l24 176h222l-22 -400h-1087v152l710 1079h-463l-23 -176h-223l22 401h1046z" />
    <glyph glyph-name="Eta" unicode="&#x397;" horiz-adv-x="1601" 
d="M56 1280v176h603v-176l-156 -30v-420h594v420l-156 30v176h156h291h156v-176l-156 -30v-1045l156 -30v-175h-603v175l156 30v400h-594v-400l156 -30v-175h-603v175l155 30v1045z" />
    <glyph glyph-name="Theta" unicode="&#x398;" horiz-adv-x="1400" 
d="M893 613h-380v224h380v-224zM1384 717c0 -213.333 -61 -389.666 -183 -528.999s-281.667 -209 -479 -209c-196.667 0 -355.5 69.667 -476.5 209s-181.5 315.666 -181.5 528.999v22c0 212 60.333 388 181 528s279.334 210 476.001 210c197.333 0 357.166 -70 479.499 -210
s183.5 -316 183.5 -528v-22zM1093 741c0 150.667 -31.332 273 -93.999 367s-155.334 141 -278.001 141s-214.167 -46.667 -274.5 -140s-90.5 -216 -90.5 -368v-24c0 -153.333 30.5 -276.833 91.5 -370.5s152.5 -140.5 274.5 -140.5c123.333 0 216 46.833 278 140.5
s93 217.167 93 370.5v24z" />
    <glyph glyph-name="Iota" unicode="&#x399;" horiz-adv-x="713" 
d="M55 1280v176h603v-176l-156 -30v-1045l156 -30v-175h-603v175l156 30v1045z" />
    <glyph glyph-name="Kappa" unicode="&#x39a;" horiz-adv-x="1464" 
d="M56 175l155 30v1045l-155 30v176h595v-176l-148 -30v-389h127l280 407l-86 12v176h577v-176l-158 -27l-358 -478l402 -575l146 -25v-175h-577v175l90 12l-280 421h-163v-403l148 -30v-175h-595v175z" />
    <glyph glyph-name="Lambda" unicode="&#x39b;" horiz-adv-x="1467" 
d="M37 175l125 16l429 1265h299l429 -1265l125 -16v-175h-521v175l98 19l-277 942h-6l-279 -942l99 -19v-175h-521v175z" />
    <glyph glyph-name="Mu" unicode="&#x39c;" horiz-adv-x="1929" 
d="M1461 1077l-6 1l-390 -1078h-196l-388 1074l-6 -1l28 -639v-229l156 -30v-175h-603v175l155 30v1045l-155 30v176h155h381l371 -1073h6l374 1073h538v-176l-156 -30v-1045l156 -30v-175h-603v175l155 30v229z" />
    <glyph glyph-name="Nu" unicode="&#x39d;" horiz-adv-x="1582" 
d="M1544 1456v-176l-156 -30v-1250h-291l-588 980l-6 -1v-774l156 -30v-175h-603v175l155 30v1045l-155 30v176h155h292l588 -980l6 1v773l-156 30v176h447h156z" />
    <glyph glyph-name="Xi" unicode="&#x39e;" horiz-adv-x="1245" 
d="M63 368h223l11 -144h662l12 144h223v-368h-1131v368zM1154 1456v-369h-224l-12 144h-598l-11 -144h-224v369h1069zM313 849h630v-217h-630v217z" />
    <glyph glyph-name="Omicron" unicode="&#x39f;" horiz-adv-x="1448" 
d="M1387 717c0 -213.333 -61 -389.666 -183 -528.999s-281.667 -209 -479 -209c-196.667 0 -355.5 69.667 -476.5 209s-181.5 315.666 -181.5 528.999v22c0 212 60.333 388 181 528s279.334 210 476.001 210c197.333 0 357.166 -70 479.499 -210s183.5 -316 183.5 -528v-22z
M1096 741c0 150.667 -31.332 273 -93.999 367s-155.334 141 -278.001 141s-214.167 -46.667 -274.5 -140s-90.5 -216 -90.5 -368v-24c0 -153.333 30.5 -276.833 91.5 -370.5s152.5 -140.5 274.5 -140.5c123.333 0 216 46.833 278 140.5s93 217.167 93 370.5v24z" />
    <glyph glyph-name="Pi" unicode="&#x3a0;" horiz-adv-x="1602" 
d="M65 175l155 30v1045l-155 30v176h1488v-176l-155 -30v-1045l155 -30v-175h-602v175l155 30v1026h-594v-1026l156 -30v-175h-603v175z" />
    <glyph glyph-name="Rho" unicode="&#x3a1;" horiz-adv-x="1325" 
d="M749 1456c166.667 0 298.167 -42.832 394.5 -128.499s144.5 -197.834 144.5 -336.501c0 -139.333 -48.167 -251.333 -144.5 -336s-227.833 -127 -394.5 -127h-246v-323l156 -30v-175h-603v175l155 30v1045l-155 30v176h155h538zM503 753.001h246
c81.333 0 142.833 22.167 184.5 66.5s62.5 100.833 62.5 169.5c0 70 -20.833 127.833 -62.5 173.5s-103.167 68.5 -184.5 68.5h-246v-478z" />
    <glyph glyph-name="Sigma" unicode="&#x3a3;" horiz-adv-x="1178" 
d="M70 0v152l442 581l-442 572v151h1043v-369h-223l-12 144h-418l361 -490v-17l-363 -499h447l12 143h223v-368h-1070z" />
    <glyph glyph-name="Tau" unicode="&#x3a4;" horiz-adv-x="1377" 
d="M1338 1456v-388h-224l-12 163h-268v-1026l156 -30v-175h-604v175l156 30v1026h-267l-12 -163h-223v388h1298z" />
    <glyph glyph-name="Upsilon" unicode="&#x3a5;" horiz-adv-x="1398" 
d="M587 1280l-119 -17l226 -478h6l226 478l-118 17v176h551v-176l-124 -20l-396 -748v-307l156 -30v-175h-603v175l156 30v322l-389 733l-123 20v176h551v-176z" />
    <glyph glyph-name="Phi" unicode="&#x3a6;" horiz-adv-x="1507" 
d="M610 259c-165.333 4 -299.168 47.6689 -401.501 131.002s-153.5 192.666 -153.5 327.999c0 138.667 51.333 251.167 154 337.5s236.334 131.5 401.001 135.5v66l-155 30v169h447h155v-169l-155 -30v-66c163.333 -4.66699 296.166 -49.834 398.499 -135.501
s153.5 -197.5 153.5 -335.5c0 -135.333 -51.167 -245 -153.5 -329s-235.166 -128 -398.499 -132v-61l155 -30v-168h-602v168l155 30v61zM340.998 718.002c0 -70.667 23.833 -126.166 71.5 -166.499s111.834 -60.833 192.501 -61.5l5 2v466l-5 2
c-80.667 -1.33301 -144.834 -23.333 -192.501 -66s-71.5 -101.334 -71.5 -176.001zM1168 720.003c0 74 -23.499 132.167 -70.499 174.5s-110.5 64.166 -190.5 65.499l-5 -2v-466l5 -2c79.333 0.666992 142.666 21.334 189.999 62.001s71 96.667 71 168z" />
    <glyph glyph-name="Chi" unicode="&#x3a7;" horiz-adv-x="1438" 
d="M33 175l123 24l385 535l-375 521l-122 25v176h559v-176l-119 -13l225 -357l226 357l-117 13v176h561v-176l-122 -25l-375 -521l393 -534l129 -25v-175h-573v175l116 12l-234 368l-235 -368l117 -12v-175h-562v175z" />
    <glyph glyph-name="Psi" unicode="&#x3a8;" horiz-adv-x="1733" 
d="M1168 1280l-140 -30.0029v-629l6 -1c76.667 10 135 45.333 175 106s60 145 60 253v477h292h141v-176l-141 -30v-271c0 -173.333 -47.833 -311.666 -143.5 -414.999s-225.5 -163.666 -389.5 -180.999v-178l155 -30v-175h-602v175l155 30v177
c-166.667 14.667 -298.5 73.834 -395.5 177.501s-145.5 243.5 -145.5 419.5v271l-140 30v176h140h291v-477c0 -105.333 21.333 -188.5 64 -249.5s102.667 -97.5 180 -109.5l6 2v628l-140 30v176h140h432v-176z" />
    <glyph glyph-name="Omega" unicode="&#x3a9;" horiz-adv-x="1344" 
d="M727 245c68 22.667 121.333 78.8301 160 168.497s58 215.5 58 377.5v47c0 134 -24.167 236 -72.5 306s-115.833 105 -202.5 105c-85.333 0 -151.833 -35.167 -199.5 -105.5s-71.5 -172.166 -71.5 -305.499v-47c0 -163.333 19.5 -289.666 58.5 -378.999
s93.833 -145 164.5 -167v-245h-504v227h256c-88.667 60.667 -160.5 141.334 -215.5 242.001s-82.5 208 -82.5 322v45c0 188 55 341.833 165 461.5s253 179.5 429 179.5s319.5 -59.833 430.5 -179.5s166.5 -273.5 166.5 -461.5v-45c0 -114.667 -27.5 -222 -82.5 -322
s-126.167 -180.667 -213.5 -242h261v-227h-505v245z" />
    <glyph glyph-name="Omega" unicode="&#x2126;" horiz-adv-x="1344" 
d="M727 245c68 22.667 121.333 78.8301 160 168.497s58 215.5 58 377.5v47c0 134 -24.167 236 -72.5 306s-115.833 105 -202.5 105c-85.333 0 -151.833 -35.167 -199.5 -105.5s-71.5 -172.166 -71.5 -305.499v-47c0 -163.333 19.5 -289.666 58.5 -378.999
s93.833 -145 164.5 -167v-245h-504v227h256c-88.667 60.667 -160.5 141.334 -215.5 242.001s-82.5 208 -82.5 322v45c0 188 55 341.833 165 461.5s253 179.5 429 179.5s319.5 -59.833 430.5 -179.5s166.5 -273.5 166.5 -461.5v-45c0 -114.667 -27.5 -222 -82.5 -322
s-126.167 -180.667 -213.5 -242h261v-227h-505v245z" />
    <glyph glyph-name="Iotadieresis" unicode="&#x3aa;" horiz-adv-x="713" 
d="M55 1280v176h603v-176l-156 -30v-1045l156 -30v-175h-603v175l156 30v1045zM711 1600h-267v204h267v-204zM211 1600h-267v204h267v-204z" />
    <glyph glyph-name="Upsilondieresis" unicode="&#x3ab;" horiz-adv-x="1398" 
d="M587 1280l-119 -17l226 -478h6l226 478l-118 17v176h551v-176l-124 -20l-396 -748v-307l156 -30v-175h-603v175l156 30v322l-389 733l-123 20v176h551v-176zM1083 1601h-267v204h267v-204zM583 1601h-267v204h267v-204z" />
    <glyph glyph-name="alphatonos" unicode="&#x3ac;" horiz-adv-x="1215" 
d="M1057 1081v-736.001c0 -50 5.83301 -85 17.5 -105s29.5 -30 53.5 -30c4 0 7.83301 0.333008 11.5 1s6.83398 1.66699 9.50098 3l25 -209c-20.667 -10 -40.5 -16.833 -59.5 -20.5s-41.167 -5.5 -66.5 -5.5c-60.667 0 -112.334 13.5 -155.001 40.5
s-74.667 68.167 -96 123.5c-32 -53.333 -70.833 -94 -116.5 -122s-99.167 -42 -160.5 -42c-133.333 0 -237 48.667 -311 146s-111 226 -111 386v21c0 170.667 37 308.334 111 413.001s178.333 157 313 157c56 0 105.5 -12.833 148.5 -38.5s80.167 -62.167 111.5 -109.5
l22 127h253zM391 510.999c0 -95.333 15.834 -170.499 47.501 -225.499s83.167 -82.5 154.5 -82.5c40 0 74.167 8.66699 102.5 26s51.833 42.333 70.5 75c-0.666992 5.33301 -1 11.166 -1 17.499v23.5v424c-18.667 34.667 -42 61.334 -70 80.001s-61.333 28 -100 28
c-70.667 0 -122.334 -31.833 -155.001 -95.5s-49 -146.834 -49 -249.501v-21zM610.001 1619h278l-210 -364h-144z" />
    <glyph glyph-name="epsilontonos" unicode="&#x3ad;" horiz-adv-x="1107" 
d="M577 458c-64 0 -113.167 -10.667 -147.5 -32s-51.5 -55 -51.5 -101c0 -36.667 17.333 -68.167 52 -94.5s83 -39.5 145 -39.5c62.667 0 111.5 12.333 146.5 37s52.5 55.334 52.5 92.001h282l2 -6c3.33301 -108 -41.667 -190.667 -135 -248s-204 -86 -332 -86
c-147.333 0 -268.166 29.167 -362.499 87.5s-141.5 137.833 -141.5 238.5c0 60 17.5 111.333 52.5 154s85.833 75 152.5 97c-58.667 24 -104.334 56.167 -137.001 96.5s-49 84.5 -49 132.5c0 100 44.167 177.5 132.5 232.5s205.833 82.5 352.5 82.5
c128.667 0 236.5 -29.833 323.5 -89.5s128.833 -137.834 125.5 -234.501l-2 -6h-281c0 36 -17 64.667 -51 86s-77.333 32 -130 32c-59.333 0 -103.833 -12.333 -133.5 -37s-44.5 -53.667 -44.5 -87c0 -36.667 15.333 -65.5 46 -86.5s75 -31.5 133 -31.5h187v-189h-187z
M583 1620h278l-210 -364h-144z" />
    <glyph glyph-name="etatonos" unicode="&#x3ae;" horiz-adv-x="1246" 
d="M166 0l-0.00292969 779.002c0 30 -5.83301 51 -17.5 63s-29.167 18 -52.5 18c-12.667 0 -23 -0.833008 -31 -2.5s-20.333 -4.5 -37 -8.5l-30 198c25.333 13.333 58.333 24.666 99 33.999s81.334 14 122.001 14c64 0 115.833 -13.5 155.5 -40.5
s65.167 -68.167 76.5 -123.5c36 54 80.333 96 133 126s111.334 45 176.001 45c109.333 0 194.5 -34.667 255.5 -104s91.5 -181 91.5 -335v-1078h-292v1077c0 77.333 -13.667 132.5 -41 165.5s-67.666 49.5 -120.999 49.5c-43.333 0 -81.333 -7.83301 -114 -23.5
s-59.667 -37.834 -81 -66.501v-787h-292zM626.997 1619h278l-210 -364h-144z" />
    <glyph glyph-name="iotatonos" unicode="&#x3af;" horiz-adv-x="705" 
d="M469 321c0 -43.333 7.33496 -73.332 22.002 -89.999s37.667 -25 69 -25c19.333 0 34.666 1.16699 45.999 3.5s28.333 7.16602 51 14.499l30 -210c-31.333 -13.333 -61 -22.5 -89 -27.5s-60.333 -7.5 -97 -7.5c-104.667 0 -184.834 28.5 -240.501 85.5
s-83.5 143.833 -83.5 260.5v551l-156 30v176h448v-761zM331.002 1621h278l-210 -364h-144z" />
    <glyph glyph-name="upsilondieresistonos" unicode="&#x3b0;" horiz-adv-x="1206" 
d="M478 417c0 -75.333 11.334 -129.831 34.001 -163.498s53 -50.5 91 -50.5c66.667 0 120.167 36.667 160.5 110s60.5 157.666 60.5 252.999c-2 84.667 -11.833 170 -29.5 256s-41.834 172.667 -72.501 260h278c34 -69.333 61.667 -147.166 83 -233.499s32 -180.5 32 -282.5
c0 -174 -41.833 -315.333 -125.5 -424s-209.167 -163 -376.5 -163c-134 0 -238.5 36.333 -313.5 109s-112.5 183 -112.5 331v366c0 30 -5.83301 51 -17.5 63s-29.5 18 -53.5 18c-12.667 0 -23.167 -0.833008 -31.5 -2.5s-20.5 -4.5 -36.5 -8.5l-30 198
c25.333 13.333 58.5 24.666 99.5 33.999s81.833 14 122.5 14c76 0 134.833 -19.333 176.5 -58s62.5 -97.334 62.5 -176.001zM980.001 1214h-238v204h238v-204zM417.001 1214h-238v204h238v-204zM535.001 1685h281l-176 -325h-147z" />
    <glyph glyph-name="alpha" unicode="&#x3b1;" horiz-adv-x="1215" 
d="M1057 1081v-736.001c0 -50 5.83301 -85 17.5 -105s29.5 -30 53.5 -30c4 0 7.83301 0.333008 11.5 1s6.83398 1.66699 9.50098 3l25 -209c-20.667 -10 -40.5 -16.833 -59.5 -20.5s-41.167 -5.5 -66.5 -5.5c-60.667 0 -112.334 13.5 -155.001 40.5
s-74.667 68.167 -96 123.5c-32 -53.333 -70.833 -94 -116.5 -122s-99.167 -42 -160.5 -42c-133.333 0 -237 48.667 -311 146s-111 226 -111 386v21c0 170.667 37 308.334 111 413.001s178.333 157 313 157c56 0 105.5 -12.833 148.5 -38.5s80.167 -62.167 111.5 -109.5
l22 127h253zM391 510.999c0 -95.333 15.834 -170.499 47.501 -225.499s83.167 -82.5 154.5 -82.5c40 0 74.167 8.66699 102.5 26s51.833 42.333 70.5 75c-0.666992 5.33301 -1 11.166 -1 17.499v23.5v424c-18.667 34.667 -42 61.334 -70 80.001s-61.333 28 -100 28
c-70.667 0 -122.334 -31.833 -155.001 -95.5s-49 -146.834 -49 -249.501v-21z" />
    <glyph glyph-name="beta" unicode="&#x3b2;" horiz-adv-x="1199" 
d="M597 1477c140 0 253.169 -35.8301 339.502 -107.497s129.5 -167.5 129.5 -287.5c0 -64.667 -16 -123.834 -48 -177.501s-76.333 -96.834 -133 -129.501c82.667 -28.667 146.5 -74 191.5 -136s67.5 -136.667 67.5 -224c0 -138 -39.833 -245.167 -119.5 -321.5
s-188.5 -114.5 -326.5 -114.5c-48.667 0 -97.334 6.16699 -146.001 18.5s-93.334 31.166 -134.001 56.499v-457h-292v1440c0 128.667 45.5 234.167 136.5 316.5s202.5 123.5 334.5 123.5zM593.002 859.003c62.667 0 108.667 17.499 138 52.499s44 85.5 44 151.5
c0 52.667 -15.5 97.334 -46.5 134.001s-74.833 55 -131.5 55c-52.667 0 -95.667 -19.833 -129 -59.5s-50 -91.5 -50 -155.5v-773c26 -20 57 -35.167 93 -45.5s76.333 -15.5 121 -15.5c67.333 0 121 20.167 161 60.5s60 91.833 60 154.5c0 72 -18.667 129.167 -56 171.5
s-90 63.5 -158 63.5h-96v206h50z" />
    <glyph glyph-name="gamma" unicode="&#x3b3;" horiz-adv-x="1113" 
d="M1096 906l-91 -14l-297 -878v-431h-292v473l-234 730c-8 26.667 -19.167 45 -33.5 55s-34.833 15 -61.5 15c-6 0 -13.333 -0.5 -22 -1.5s-14 -1.83301 -16 -2.5l-23 221c16.667 5.33301 40.167 10 70.5 14s57.5 6 81.5 6c70 0 119 -10.667 147 -32s52.333 -64 73 -128
l161 -530l10 -61h6l13 61l126 482l-109 21v176h491v-176z" />
    <glyph glyph-name="delta" unicode="&#x3b4;" horiz-adv-x="1156" 
d="M192 1251c0 100 37.667 178.336 113 235.003s179.666 85 312.999 85c49.333 0 99 -7.16699 149 -21.5s102 -34.833 156 -61.5l-44 -185c-36 14 -75.667 26.5 -119 37.5s-87 16.5 -131 16.5c-50 0 -89.167 -9 -117.5 -27s-42.5 -42 -42.5 -72
c0 -24.667 10.833 -49 32.5 -73s62.834 -47 123.501 -69c156.667 -54.667 274.5 -129.334 353.5 -224.001s118.5 -211.334 118.5 -350.001v-20c0 -158.667 -46 -288.667 -138 -390s-217 -152 -375 -152c-160 0 -286 49.5 -378 148.5s-138 226.167 -138 381.5v20
c0 109.333 29.333 204.666 88 285.999s131.667 133.333 219 156l4 11c-59.333 29.333 -105.333 66.5 -138 111.5s-49 97.167 -49 156.5zM359 534.003c0 -96 18.8291 -175.167 56.4961 -237.5s93.834 -93.5 168.501 -93.5c72.667 0 127.834 31.167 165.501 93.5
s56.5 141.5 56.5 237.5v20c0 73.333 -20.667 142 -62 206s-94.666 103 -159.999 117c-73.333 0 -129.166 -30.833 -167.499 -92.5s-57.5 -138.5 -57.5 -230.5v-20z" />
    <glyph glyph-name="epsilon" unicode="&#x3b5;" horiz-adv-x="1107" 
d="M577 458c-64 0 -113.167 -10.667 -147.5 -32s-51.5 -55 -51.5 -101c0 -36.667 17.333 -68.167 52 -94.5s83 -39.5 145 -39.5c62.667 0 111.5 12.333 146.5 37s52.5 55.334 52.5 92.001h282l2 -6c3.33301 -108 -41.667 -190.667 -135 -248s-204 -86 -332 -86
c-147.333 0 -268.166 29.167 -362.499 87.5s-141.5 137.833 -141.5 238.5c0 60 17.5 111.333 52.5 154s85.833 75 152.5 97c-58.667 24 -104.334 56.167 -137.001 96.5s-49 84.5 -49 132.5c0 100 44.167 177.5 132.5 232.5s205.833 82.5 352.5 82.5
c128.667 0 236.5 -29.833 323.5 -89.5s128.833 -137.834 125.5 -234.501l-2 -6h-281c0 36 -17 64.667 -51 86s-77.333 32 -130 32c-59.333 0 -103.833 -12.333 -133.5 -37s-44.5 -53.667 -44.5 -87c0 -36.667 15.333 -65.5 46 -86.5s75 -31.5 133 -31.5h187v-189h-187z" />
    <glyph glyph-name="zeta" unicode="&#x3b6;" horiz-adv-x="1025" 
d="M968 1456l0.00292969 -160.997l-360 -427c-72.667 -86 -124.334 -160.833 -155.001 -224.5s-46 -137.5 -46 -221.5c0 -59.333 12.667 -103.166 38 -131.499s66.333 -49.833 123 -64.5l78 -24c104 -30.667 178.667 -62.334 224 -95.001s67.666 -86.334 66.999 -161.001
c0 -53.333 -24.167 -112.5 -72.5 -177.5s-101.833 -117.167 -160.5 -156.5l-148 109c30.667 32.667 53.667 63.667 69 93s23 54.666 23 75.999c0.666992 23.333 -7.5 43 -24.5 59s-46.167 29.333 -87.5 40l-74 19c-120.667 31.333 -208.334 76.5 -263.001 135.5
s-82 138.5 -82 238.5c0 102 22 199.667 66 293s112.333 196.666 205 309.999l205 242l-2 5h-516v224h893z" />
    <glyph glyph-name="eta" unicode="&#x3b7;" horiz-adv-x="1246" 
d="M166 0l-0.00292969 779.002c0 30 -5.83301 51 -17.5 63s-29.167 18 -52.5 18c-12.667 0 -23 -0.833008 -31 -2.5s-20.333 -4.5 -37 -8.5l-30 198c25.333 13.333 58.333 24.666 99 33.999s81.334 14 122.001 14c64 0 115.833 -13.5 155.5 -40.5
s65.167 -68.167 76.5 -123.5c36 54 80.333 96 133 126s111.334 45 176.001 45c109.333 0 194.5 -34.667 255.5 -104s91.5 -181 91.5 -335v-1078h-292v1077c0 77.333 -13.667 132.5 -41 165.5s-67.666 49.5 -120.999 49.5c-43.333 0 -81.333 -7.83301 -114 -23.5
s-59.667 -37.834 -81 -66.501v-787h-292z" />
    <glyph glyph-name="theta" unicode="&#x3b8;" horiz-adv-x="1184" 
d="M1099 567c0 -192.667 -44.166 -338.834 -132.499 -438.501s-207.833 -149.5 -358.5 -149.5c-152 0 -272.333 49.833 -361 149.5s-133 245.834 -133 438.501v321c0 192 44.167 338.167 132.5 438.5s208.166 150.5 359.499 150.5c150.667 0 270.5 -50.167 359.5 -150.5
s133.5 -246.5 133.5 -438.5v-321zM808.001 623h-403v-84c0 -117.333 17.167 -202.666 51.5 -255.999s84.833 -80 151.5 -80c65.333 0 115 26.667 149 80s51 138.666 51 255.999v84zM405.001 840h403v78c0 115.333 -17.333 199.833 -52 253.5s-84.667 80.5 -150 80.5
c-66 0 -116 -26.667 -150 -80s-51 -138 -51 -254v-78z" />
    <glyph glyph-name="iota" unicode="&#x3b9;" horiz-adv-x="705" 
d="M469 321c0 -43.333 7.33496 -73.332 22.002 -89.999s37.667 -25 69 -25c19.333 0 34.666 1.16699 45.999 3.5s28.333 7.16602 51 14.499l30 -210c-31.333 -13.333 -61 -22.5 -89 -27.5s-60.333 -7.5 -97 -7.5c-104.667 0 -184.834 28.5 -240.501 85.5
s-83.5 143.833 -83.5 260.5v551l-156 30v176h448v-761z" />
    <glyph glyph-name="kappa" unicode="&#x3ba;" horiz-adv-x="1270" 
d="M47 175l141 30v671l-146 30v176h437v-420h95l162 231l-96 13v176h531v-176l-127 -29l-214 -274l269 -405l111 -23v-175h-324l-282 453h-125v-248l126 -30v-175h-558v175z" />
    <glyph glyph-name="lambda" unicode="&#x3bb;" horiz-adv-x="1123" 
d="M321 0l-314 -0.00195312l382 1056l-71 158c-13.333 30 -30.833 52.667 -52.5 68s-47.167 23 -76.5 23c-12 0 -22.333 -0.166992 -31 -0.5s-18 -1.16602 -28 -2.49902l-6 208c20 6 46.167 10.833 78.5 14.5s62.166 5.5 89.499 5.5c69.333 0 125 -14.167 167 -42.5
s74.333 -70.166 97 -125.499l419 -1048c14 -34 28.833 -60 44.5 -78s35.834 -27 60.501 -27h18.5c5 0 10.167 0.333008 15.5 1l2 -221c-14.667 -2 -31 -3.66699 -49 -5s-38.333 -2 -61 -2c-81.333 0 -145.333 17.5 -192 52.5s-83 90.833 -109 167.5l-173 481h-6l-12 -60z
" />
    <glyph glyph-name="uni03BC" unicode="&#x3bc;" horiz-adv-x="1347" 
d="M899 68c-29.333 -29.333 -62.833 -51.499 -100.5 -66.499s-79.167 -22.5 -124.5 -22.5c-34 0 -65.333 3.5 -94 10.5s-54.667 17.833 -78 32.5v-438h-291v1292l-156 30v176h156h291v-620c0 -99.333 14.833 -166.833 44.5 -202.5s74.5 -53.5 134.5 -53.5
c50.667 0 92.667 9.16699 126 27.5s59.333 45.166 78 80.499v562l-156 30v176h447v-877l141 -30v-175h-412z" />
    <glyph glyph-name="nu" unicode="&#x3bd;" horiz-adv-x="1167" 
d="M522 906l-102 -19l143 -484l19 -102h6l21 102l141 483l-104 20v176h491v-176l-94 -15l-319 -891h-279l-320 891l-94 15v176h491v-176z" />
    <glyph glyph-name="xi" unicode="&#x3be;" horiz-adv-x="1088" 
d="M923 1210c-57.333 14 -100.333 23.6729 -129 29.0059s-60.667 8 -96 8c-72.667 0 -127.167 -13.333 -163.5 -40s-54.5 -62 -54.5 -106c0 -48 18.333 -86 55 -114s93.667 -42 171 -42h151v-232h-143c-104.667 0 -184.167 -21.667 -238.5 -65s-81.5 -107.333 -81.5 -192
c0 -66.667 21.833 -118.834 65.5 -156.501s102.5 -64.834 176.5 -81.501l97 -22c99.333 -23.333 172.833 -52.666 220.5 -87.999s71.5 -91 71.5 -167c-0.666992 -54 -25 -113.333 -73 -178s-101.333 -117 -160 -157l-149 110c32 33.333 55.5 64.166 70.5 92.499
s22.167 54.5 21.5 78.5c1.33301 25.333 -6.5 45.5 -23.5 60.5s-46.167 27.167 -87.5 36.5l-36 10c-164.667 32.667 -286.667 81.5 -366 146.5s-119 167.5 -119 307.5c0 93.333 26 172.166 78 236.499s127 112.166 225 143.499c-70 25.333 -123.833 60.666 -161.5 105.999
s-56.5 99.333 -56.5 162c0 117.333 43.167 210.166 129.5 278.499s202.5 102.5 348.5 102.5c62.667 0 116.5 -4 161.5 -12s92.167 -20.333 141.5 -37z" />
    <glyph glyph-name="omicron" unicode="&#x3bf;" horiz-adv-x="1148" 
d="M63 551c0 161.333 45.168 293.5 135.501 396.5s215.166 154.5 374.499 154.5c160 0 285.167 -51.333 375.5 -154s135.5 -235 135.5 -397v-21c0 -162.667 -45.167 -295.167 -135.5 -397.5s-214.833 -153.5 -373.5 -153.5c-160.667 0 -286.167 51.167 -376.5 153.5
s-135.5 234.833 -135.5 397.5v21zM355.001 530c0 -98.667 17.333 -177.833 52 -237.5s90.667 -89.5 168 -89.5c75.333 0 130.5 30 165.5 90s52.5 139 52.5 237v21c0 96 -17.667 174.333 -53 235s-91 91 -167 91s-131.333 -30.333 -166 -91s-52 -139 -52 -235v-21z" />
    </font>
</defs>
</svg>
